<svg width="20" height="20" viewBox="0 0 20 20" fill="none" xmlns="http://www.w3.org/2000/svg">
<path d="M-3.8147e-05 9.98111C-0.0102406 15.4908 4.48304 19.9961 9.99272 20C12.3724 20.0017 14.5582 19.1722 16.2759 17.7858C16.7225 17.4254 16.7559 16.756 16.35 16.3501L15.8957 15.8958C15.5486 15.5486 14.9944 15.5106 14.6098 15.8158C13.3443 16.82 11.7427 17.4194 9.99998 17.4194C5.89896 17.4194 2.58061 14.1004 2.58061 10C2.58061 5.899 5.89961 2.58065 9.99998 2.58065C11.9683 2.58065 13.756 3.34553 15.0834 4.59404L13.0368 6.64058C12.6304 7.04703 12.9183 7.74195 13.493 7.74195H19.3548C19.7112 7.74195 20 7.45312 20 7.09679V1.23496C20 0.660203 19.3051 0.372339 18.8986 0.778751L16.9078 2.76956C15.1125 1.05387 12.6793 0 9.99998 0C4.48344 0 0.0101643 4.46694 -3.8147e-05 9.98111ZM7.29481 13.1579L6.89872 12.6486C6.57058 12.2267 6.64659 11.6187 7.06848 11.2906L8.70966 10.0141V5.80646C8.70966 5.27199 9.14292 4.83872 9.6774 4.83872H10.3226C10.857 4.83872 11.2903 5.27199 11.2903 5.80646V11.2763L8.65284 13.3276C8.23095 13.6558 7.62296 13.5798 7.29481 13.1579Z" fill="white"/>
</svg>
