<svg width="28" height="28" viewBox="0 0 28 28" fill="none" xmlns="http://www.w3.org/2000/svg">
<path d="M14 4.66669C8.30783 4.66669 3.5 9.47452 3.5 15.1667C3.5 20.8589 8.30783 25.6667 14 25.6667C19.6922 25.6667 24.5 20.8589 24.5 15.1667C24.5 9.47452 19.6922 4.66669 14 4.66669ZM14 23.3334C9.57367 23.3334 5.83333 19.593 5.83333 15.1667C5.83333 10.7404 9.57367 7.00002 14 7.00002C18.4263 7.00002 22.1667 10.7404 22.1667 15.1667C22.1667 19.593 18.4263 23.3334 14 23.3334Z" fill="white"/>
<path d="M15.1667 9.33331H12.8334V14H8.16675V16.3333H12.8334V21H15.1667V16.3333H19.8334V14H15.1667V9.33331Z" fill="white"/>
<path d="M23.674 7.82602L20.1624 4.32602L21.8097 2.67285L25.3214 6.17285L23.674 7.82602Z" fill="white"/>
<path d="M6.16246 2.67633L7.81679 4.32366L4.32846 7.82366L2.67529 6.17516L6.16246 2.67633Z" fill="white"/>
</svg>
