<svg width="20" height="20" viewBox="0 0 20 20" fill="none" xmlns="http://www.w3.org/2000/svg">
<g clip-path="url(#clip0)">
<path d="M7.5 3.33337L7.5 7.30177L0.314843 10.9511C0.219182 10.9997 0.139683 11.07 0.0843951 11.1548C0.0291071 11.2395 -7.28993e-06 11.3357 -3.73211e-07 11.4337L-2.73798e-07 13.708C-2.57664e-07 14.0771 0.397265 14.3434 0.796484 14.242L7.5 12.5396L7.5 16.1111L5.25 17.6111C5.09258 17.716 5 17.8809 5 18.0556L5 19.4441C5 19.8056 5.38203 20.0709 5.77656 19.983L10 18.8889L14.2234 19.983C14.618 20.0709 15 19.8056 15 19.4441L15 18.0556C15 17.8806 14.9074 17.716 14.75 17.6111L12.5 16.1111L12.5 12.5396L19.2031 14.242C19.6023 14.3434 20 14.0771 20 13.708L20 11.4337C20 11.2344 19.8797 11.0504 19.6852 10.9514L12.5 7.30177L12.5 3.33337C12.5 2.10593 11.3809 3.00201e-05 10 3.00805e-05C8.61914 3.01408e-05 7.5 2.10593 7.5 3.33337Z" fill="#F9F7F7"/>
</g>
<defs>
<clipPath id="clip0">
<rect width="20" height="20" fill="white" transform="translate(0 20) rotate(-90)"/>
</clipPath>
</defs>
</svg>
