<svg width="18" height="16" viewBox="0 0 18 16" fill="none" xmlns="http://www.w3.org/2000/svg">
<g clip-path="url(#clip0)">
<path d="M8.47062 4.50938L10.1666 4.95625C10.2242 4.96972 10.2757 5.00184 10.3132 5.04761C10.3506 5.09338 10.3719 5.15025 10.3737 5.20937C10.3737 5.35313 10.2459 5.47188 10.0887 5.47188H8.97625C8.85636 5.47153 8.73766 5.44819 8.62656 5.40312C8.46281 5.33437 8.27406 5.35 8.14844 5.46562L7.55469 6.0125C7.52723 6.03654 7.50352 6.06456 7.48438 6.09562C7.45986 6.13583 7.44355 6.1805 7.43638 6.22704C7.4292 6.27358 7.43131 6.32108 7.44258 6.36681C7.45386 6.41253 7.47407 6.45557 7.50205 6.49345C7.53003 6.53133 7.56523 6.56329 7.60563 6.5875C7.93444 6.78484 8.3026 6.90752 8.68406 6.94688V7.5C8.68406 7.775 8.92875 8 9.22688 8H9.76969C10.0681 8 10.3128 7.775 10.3128 7.5V6.95C11.3419 6.8375 12.1203 5.98125 11.9847 4.98125C11.8863 4.2625 11.2828 3.69062 10.5297 3.49062L8.83375 3.04375C8.77615 3.03028 8.72462 2.99816 8.68715 2.95239C8.64968 2.90662 8.62838 2.84975 8.62656 2.79063C8.62656 2.64688 8.75438 2.52813 8.91156 2.52813H10.0241C10.1444 2.52831 10.2635 2.55165 10.375 2.59687C10.5384 2.66562 10.7275 2.65 10.8531 2.53437L11.4469 1.9875C11.4734 1.96397 11.4963 1.93658 11.5147 1.90625C11.5394 1.86605 11.5559 1.82136 11.5633 1.77474C11.5706 1.72813 11.5687 1.68052 11.5575 1.63467C11.5463 1.58882 11.5262 1.54563 11.4983 1.5076C11.4703 1.46958 11.4351 1.43747 11.3947 1.41313C11.0658 1.21579 10.6975 1.09311 10.3159 1.05375V0.5C10.3159 0.225 10.0716 0 9.77312 0H9.23031C8.93188 0 8.6875 0.225 8.6875 0.5V1.05C7.65969 1.1625 6.87969 2.01875 7.01531 3.01875C7.11344 3.7375 7.71875 4.30938 8.47062 4.50938ZM17.6647 10.2531C17.2959 9.91875 16.7209 9.94063 16.3334 10.2531L13.4459 12.5625C13.0915 12.8469 12.6504 13.0013 12.1959 13H8.5C8.36739 13 8.24021 12.9473 8.14645 12.8536C8.05268 12.7598 8 12.6326 8 12.5C8 12.3674 8.05268 12.2402 8.14645 12.1464C8.24021 12.0527 8.36739 12 8.5 12H10.9466C11.4434 12 11.9062 11.6594 11.9856 11.1687C11.9954 11.1124 12.0002 11.0553 12 10.9981C11.9995 10.7332 11.8939 10.4794 11.7064 10.2922C11.519 10.1051 11.2649 10 11 10H6C5.15675 10.0002 4.33921 10.2903 3.68438 10.8216L2.23125 12H0.5C0.367392 12 0.240215 12.0527 0.146447 12.1464C0.0526784 12.2402 0 12.3674 0 12.5L0 15.5C0 15.6326 0.0526784 15.7598 0.146447 15.8536C0.240215 15.9473 0.367392 16 0.5 16H11.6491C12.1033 16.0004 12.5442 15.8461 12.8991 15.5625L17.625 11.7812C17.7387 11.6903 17.8311 11.5757 17.8959 11.4453C17.9607 11.3149 17.9962 11.172 18 11.0265C18.0039 10.881 17.9758 10.7364 17.918 10.6028C17.8601 10.4692 17.7738 10.3499 17.665 10.2531H17.6647Z" fill="#F9F7F7"/>
</g>
<defs>
<clipPath id="clip0">
<rect width="18" height="16" fill="white"/>
</clipPath>
</defs>
</svg>
