<svg width="50" height="40" viewBox="0 0 50 40" fill="none" xmlns="http://www.w3.org/2000/svg">
<g clip-path="url(#clip0)">
<path d="M1.47188 4.25469C4.50235 2.98359 7.53516 2.5 10.5664 2.5C20.1891 2.49922 29.8109 7.37031 39.4336 7.37031C41.8469 7.37031 44.2586 7.06406 46.6719 6.29844C46.943 6.2125 47.2148 6.17188 47.4805 6.17188C48.825 6.17188 50 7.2125 50 8.65703V33.443C50 34.4297 49.4352 35.3648 48.5281 35.7445C45.4977 37.0164 42.4648 37.5 39.4336 37.5C29.8109 37.5 20.1883 32.6289 10.5656 32.6289C8.15234 32.6289 5.74063 32.9352 3.32735 33.7008C3.05625 33.7867 2.78437 33.8273 2.51875 33.8273C1.17422 33.8273 -0.000782013 32.7867 -0.000782013 31.3422V6.55703C0 5.56953 0.564846 4.63516 1.47188 4.25469ZM46.25 10.3297C44.6781 10.7234 43.0375 10.9211 41.35 11.0273C41.8094 13.3234 43.8281 15.0539 46.25 15.0539V10.3297ZM46.25 32.5953V28.8625C43.5648 28.8625 41.3922 30.993 41.2727 33.6594C43.0328 33.518 44.6781 33.1664 46.25 32.5953ZM25 27.5C28.4523 27.5 31.25 24.1414 31.25 20C31.25 15.8578 28.4516 12.5 25 12.5C21.5484 12.5 18.75 15.8578 18.75 20C18.75 24.143 21.5492 27.5 25 27.5ZM3.75 29.6703C5.11875 29.3273 6.53984 29.1352 7.99375 29.0109C7.53516 26.9734 5.84531 25.4266 3.75 25.1609V29.6703ZM3.75 11.2242C6.16328 10.9187 8.03594 8.90391 8.11016 6.41563C6.5836 6.58516 5.13438 6.90234 3.75 7.40469V11.2242Z" fill="black"/>
</g>
<defs>
<clipPath id="clip0">
<rect width="50" height="40" fill="white" transform="matrix(-1 0 0 1 50 0)"/>
</clipPath>
</defs>
</svg>
