<svg width="20" height="16" viewBox="0 0 20 16" fill="none" xmlns="http://www.w3.org/2000/svg">
<path d="M19.5 11H19V7.62187C19 7.225 18.8406 6.84375 18.5594 6.5625L15.4375 3.44062C15.1562 3.15937 14.775 3 14.3781 3H13V1.5C13 0.671875 12.3281 0 11.5 0H1.5C0.671875 0 0 0.671875 0 1.5V11.5C0 12.3281 0.671875 13 1.5 13H2C2 14.6562 3.34375 16 5 16C6.65625 16 8 14.6562 8 13H12C12 14.6562 13.3438 16 15 16C16.6562 16 18 14.6562 18 13H19.5C19.775 13 20 12.775 20 12.5V11.5C20 11.225 19.775 11 19.5 11ZM5 14.5C4.17188 14.5 3.5 13.8281 3.5 13C3.5 12.1719 4.17188 11.5 5 11.5C5.82812 11.5 6.5 12.1719 6.5 13C6.5 13.8281 5.82812 14.5 5 14.5ZM9.5 6.75C9.5 6.8875 9.3875 7 9.25 7H7.5V8.75C7.5 8.8875 7.3875 9 7.25 9H5.75C5.6125 9 5.5 8.8875 5.5 8.75V7H3.75C3.6125 7 3.5 6.8875 3.5 6.75V5.25C3.5 5.1125 3.6125 5 3.75 5H5.5V3.25C5.5 3.1125 5.6125 3 5.75 3H7.25C7.3875 3 7.5 3.1125 7.5 3.25V5H9.25C9.3875 5 9.5 5.1125 9.5 5.25V6.75ZM15 14.5C14.1719 14.5 13.5 13.8281 13.5 13C13.5 12.1719 14.1719 11.5 15 11.5C15.8281 11.5 16.5 12.1719 16.5 13C16.5 13.8281 15.8281 14.5 15 14.5ZM17.5 8H13V4.5H14.3781L17.5 7.62187V8Z" fill="#F9F7F7"/>
</svg>
