<svg width="18" height="16" viewBox="0 0 18 16" fill="none" xmlns="http://www.w3.org/2000/svg">
<g clip-path="url(#clip0)">
<path d="M8.7399 4.63312L2.99257 9.37843V14.5C2.99257 14.6326 3.04512 14.7598 3.13866 14.8536C3.23219 14.9473 3.35905 15 3.49134 15L6.98456 14.9909C7.11641 14.9903 7.24263 14.9373 7.33563 14.8436C7.42863 14.7499 7.48084 14.6231 7.48083 14.4909V11.5C7.48083 11.3674 7.53338 11.2402 7.62692 11.1464C7.72046 11.0527 7.84732 11 7.9796 11H9.97466C10.1069 11 10.2338 11.0527 10.3273 11.1464C10.4209 11.2402 10.4734 11.3674 10.4734 11.5V14.4887C10.4732 14.5545 10.486 14.6197 10.5109 14.6806C10.5359 14.7414 10.5726 14.7967 10.619 14.8433C10.6653 14.8899 10.7203 14.9269 10.781 14.9521C10.8416 14.9773 10.9066 14.9903 10.9722 14.9903L14.4642 15C14.5965 15 14.7233 14.9473 14.8169 14.8536C14.9104 14.7598 14.9629 14.6326 14.9629 14.5V9.375L9.21685 4.63312C9.1493 4.57853 9.06514 4.54877 8.97838 4.54877C8.89161 4.54877 8.80746 4.57853 8.7399 4.63312ZM17.8184 7.85843L15.2123 5.70499V1.37656C15.2123 1.2771 15.1729 1.18172 15.1028 1.11139C15.0326 1.04107 14.9375 1.00156 14.8382 1.00156H13.0926C12.9934 1.00156 12.8982 1.04107 12.8281 1.11139C12.7579 1.18172 12.7185 1.2771 12.7185 1.37656V3.64562L9.92759 1.34374C9.65976 1.1228 9.32368 1.002 8.97682 1.002C8.62996 1.002 8.29388 1.1228 8.02605 1.34374L0.135269 7.85843C0.0973901 7.88982 0.0660513 7.92838 0.0430433 7.97191C0.0200352 8.01544 0.00580887 8.06309 0.00117702 8.11214C-0.00345483 8.16118 0.00159863 8.21066 0.0160487 8.25775C0.0304987 8.30483 0.0540621 8.3486 0.0853925 8.38656L0.8803 9.35531C0.911545 9.3934 0.949976 9.42493 0.993394 9.44811C1.03681 9.47129 1.08436 9.48565 1.13333 9.49038C1.18229 9.49511 1.2317 9.49012 1.27874 9.47568C1.32577 9.46124 1.36951 9.43765 1.40743 9.40625L8.7399 3.35187C8.80746 3.29728 8.89161 3.26752 8.97838 3.26752C9.06514 3.26752 9.1493 3.29728 9.21685 3.35187L16.5496 9.40625C16.5875 9.43765 16.6312 9.46128 16.6781 9.47576C16.7251 9.49025 16.7745 9.49531 16.8234 9.49067C16.8723 9.48603 16.9198 9.47177 16.9633 9.4487C17.0067 9.42564 17.0451 9.39422 17.0765 9.35625L17.8714 8.3875C17.9027 8.34932 17.9261 8.30533 17.9404 8.25803C17.9547 8.21074 17.9595 8.16109 17.9546 8.11192C17.9496 8.06276 17.9351 8.01505 17.9117 7.97155C17.8883 7.92805 17.8566 7.88961 17.8184 7.85843Z" fill="#58A4F8"/>
</g>
<defs>
<clipPath id="clip0">
<rect width="17.9556" height="16" fill="white"/>
</clipPath>
</defs>
</svg>
