<svg width="18" height="20" viewBox="0 0 18 20" fill="none" xmlns="http://www.w3.org/2000/svg">
<g clip-path="url(#clip0)">
<path d="M16.25 8.125H10.625V2.5C10.625 1.80977 10.0652 1.25 9.375 1.25H8.125C7.43477 1.25 6.875 1.80977 6.875 2.5V8.125H1.25C0.559766 8.125 0 8.68477 0 9.375V10.625C0 11.3152 0.559766 11.875 1.25 11.875H6.875V17.5C6.875 18.1902 7.43477 18.75 8.125 18.75H9.375C10.0652 18.75 10.625 18.1902 10.625 17.5V11.875H16.25C16.9402 11.875 17.5 11.3152 17.5 10.625V9.375C17.5 8.68477 16.9402 8.125 16.25 8.125Z" fill="white"/>
</g>
<defs>
<clipPath id="clip0">
<rect width="17.5" height="20" fill="white"/>
</clipPath>
</defs>
</svg>
