<svg width="20" height="16" viewBox="0 0 20 16" fill="none" xmlns="http://www.w3.org/2000/svg">
<g clip-path="url(#clip0)">
<path d="M19.4482 4.7875L10.7313 2.10937C10.2563 1.96344 9.74384 1.96344 9.26915 2.10937L0.551963 4.7875C-0.183662 5.01344 -0.183662 5.98625 0.551963 6.21219L2.07165 6.67906C1.73821 7.09125 1.53321 7.59406 1.5129 8.14469C1.21196 8.31719 1.00009 8.62844 1.00009 9C1.00009 9.33687 1.17759 9.62031 1.43321 9.80156L0.6354 13.3916C0.566025 13.7037 0.803525 14 1.12321 14H2.87665C3.19665 14 3.43415 13.7037 3.36478 13.3916L2.56696 9.80156C2.82259 9.62031 3.00009 9.33687 3.00009 9C3.00009 8.63844 2.7979 8.33594 2.51071 8.16031C2.53446 7.69094 2.77446 7.27594 3.15728 7.01281L9.26884 8.89062C9.55196 8.9775 10.0951 9.08594 10.731 8.89062L19.4482 6.2125C20.1842 5.98625 20.1842 5.01375 19.4482 4.7875ZM11.0248 9.84656C10.1332 10.1203 9.37353 9.96906 8.97509 9.84656L4.44321 8.45438L4.00009 12C4.00009 13.1047 6.68634 14 10.0001 14C13.3138 14 16.0001 13.1047 16.0001 12L15.557 8.45406L11.0248 9.84656Z" fill="#018CCA"/>
</g>
<defs>
<clipPath id="clip0">
<rect width="20" height="16" fill="white"/>
</clipPath>
</defs>
</svg>
