<svg width="16" height="16" viewBox="0 0 16 16" fill="none" xmlns="http://www.w3.org/2000/svg">
<path d="M15.5312 8.53124L10.2812 13.7812C9.8125 14.25 9 13.9219 9 13.25V10.25H4.75C4.33437 10.25 4 9.91562 4 9.49999V6.49999C4 6.08437 4.33437 5.74999 4.75 5.74999H9V2.74999C9 2.08124 9.80937 1.74999 10.2812 2.21874L15.5312 7.46874C15.8219 7.76249 15.8219 8.23749 15.5312 8.53124ZM6 13.625V12.375C6 12.1687 5.83125 12 5.625 12H3C2.44688 12 2 11.5531 2 11V4.99999C2 4.44687 2.44688 3.99999 3 3.99999H5.625C5.83125 3.99999 6 3.83124 6 3.62499V2.37499C6 2.16874 5.83125 1.99999 5.625 1.99999H3C1.34375 1.99999 0 3.34374 0 4.99999V11C0 12.6562 1.34375 14 3 14H5.625C5.83125 14 6 13.8312 6 13.625Z" fill="#F85C58"/>
</svg>
