<svg width="12" height="16" viewBox="0 0 12 16" fill="none" xmlns="http://www.w3.org/2000/svg">
<path d="M10.5 2H8C8 0.896875 7.10313 0 6 0C4.89687 0 4 0.896875 4 2H1.5C0.671875 2 0 2.67188 0 3.5V14.5C0 15.3281 0.671875 16 1.5 16H10.5C11.3281 16 12 15.3281 12 14.5V3.5C12 2.67188 11.3281 2 10.5 2ZM6 1.25C6.41563 1.25 6.75 1.58438 6.75 2C6.75 2.41563 6.41563 2.75 6 2.75C5.58437 2.75 5.25 2.41563 5.25 2C5.25 1.58438 5.58437 1.25 6 1.25ZM9.7875 8.49375L5.31875 12.925C5.17188 13.0719 4.93437 13.0688 4.7875 12.9219L2.20625 10.3188C2.05938 10.1719 2.0625 9.93438 2.20937 9.7875L3.09687 8.90625C3.24375 8.75937 3.48125 8.7625 3.62812 8.90938L5.06563 10.3594L8.37813 7.07188C8.525 6.925 8.7625 6.92812 8.90938 7.075L9.79062 7.9625C9.9375 8.1125 9.93438 8.34687 9.7875 8.49375Z" fill="#B6B6B9"/>
</svg>
