<svg width="28" height="20" viewBox="0 0 28 20" fill="none" xmlns="http://www.w3.org/2000/svg">
<g clip-path="url(#clip0)">
<path d="M14.0007 15H5.60069V8.75H2.80069V18.75C2.80069 19.4414 3.42631 20 4.20069 20H15.4007C16.1751 20 16.8007 19.4414 16.8007 18.75V8.75H14.0007V15ZM27.7644 5.55469L24.0326 0.554688C23.7701 0.207031 23.3326 0 22.8644 0H5.13694C4.66882 0 4.23132 0.207031 3.97319 0.554688L0.241315 5.55469C-0.379935 6.38672 0.285065 7.5 1.40506 7.5H26.6007C27.7163 7.5 28.3813 6.38672 27.7644 5.55469ZM22.4007 19.375C22.4007 19.7188 22.7157 20 23.1007 20H24.5007C24.8857 20 25.2007 19.7188 25.2007 19.375V8.75H22.4007V19.375Z" fill="#29D47D"/>
</g>
<defs>
<clipPath id="clip0">
<rect width="28" height="20" fill="white"/>
</clipPath>
</defs>
</svg>
