<svg width="18" height="16" viewBox="0 0 18 16" fill="none" xmlns="http://www.w3.org/2000/svg">
<path d="M17.8341 7.38344L16 5.76375V1.5C16 1.36739 15.9473 1.24021 15.8536 1.14645C15.7598 1.05268 15.6326 1 15.5 1H13.5C13.3674 1 13.2402 1.05268 13.1464 1.14645C13.0527 1.24021 13 1.36739 13 1.5V3.11469L9.83687 0.321875C9.64062 0.144063 9.26656 0 9 0C8.73344 0 8.36063 0.144063 8.16438 0.321875L0.164375 7.38438C0.0658069 7.48396 0.00730254 7.61632 0 7.75625C0.00638654 7.87847 0.0511065 7.99557 0.127813 8.09094L0.796875 8.83438C0.901149 8.92795 1.03247 8.98595 1.17188 9C1.29273 8.98792 1.40812 8.94356 1.50594 8.87156L2.00281 8.43406V15C2.00281 15.2652 2.10817 15.5196 2.29571 15.7071C2.48324 15.8946 2.7376 16 3.00281 16H15C15.2652 16 15.5196 15.8946 15.7071 15.7071C15.8946 15.5196 16 15.2652 16 15V8.43375L16.4972 8.87125C16.5954 8.94315 16.7111 8.98759 16.8322 9C16.9703 8.98556 17.1003 8.92743 17.2031 8.83406L17.8722 8.09C17.944 7.99214 17.9881 7.87674 18 7.75594C17.9856 7.6173 17.9275 7.48683 17.8341 7.38344ZM9 5.5C9.39556 5.5 9.78224 5.6173 10.1111 5.83706C10.44 6.05682 10.6964 6.36918 10.8478 6.73463C10.9991 7.10009 11.0387 7.50222 10.9616 7.89018C10.8844 8.27814 10.6939 8.63451 10.4142 8.91421C10.1345 9.19392 9.77814 9.3844 9.39018 9.46157C9.00222 9.53874 8.60009 9.49913 8.23463 9.34776C7.86918 9.19638 7.55682 8.94004 7.33706 8.61114C7.1173 8.28224 7 7.89556 7 7.5C7 6.96957 7.21071 6.46086 7.58579 6.08579C7.96086 5.71071 8.46957 5.5 9 5.5ZM12.5 14H5.5C5.36739 14 5.24021 13.9473 5.14645 13.8536C5.05268 13.7598 5 13.6326 5 13.5C5 12.7044 5.31607 11.9413 5.87868 11.3787C6.44129 10.8161 7.20435 10.5 8 10.5H10C10.7956 10.5 11.5587 10.8161 12.1213 11.3787C12.6839 11.9413 13 12.7044 13 13.5C13 13.6326 12.9473 13.7598 12.8536 13.8536C12.7598 13.9473 12.6326 14 12.5 14Z" fill="#018CCA"/>
</svg>
