<svg width="24" height="24" viewBox="0 0 24 24" fill="none" xmlns="http://www.w3.org/2000/svg">
<g clip-path="url(#clip0)">
<path d="M22.6748 10.6H21.3464C20.7377 6.50172 17.4981 3.26208 13.3998 2.65343V1.325C13.3998 1.03507 13.1647 0.800003 12.8748 0.800003H11.1248C10.8349 0.800003 10.5998 1.03507 10.5998 1.325V2.65343C6.50152 3.26208 3.26188 6.50172 2.65323 10.6H1.3248C1.03487 10.6 0.799805 10.8351 0.799805 11.125V12.875C0.799805 13.1649 1.03487 13.4 1.3248 13.4H2.65323C3.26188 17.4983 6.50152 20.7379 10.5998 21.3466V22.675C10.5998 22.9649 10.8349 23.2 11.1248 23.2H12.8748C13.1647 23.2 13.3998 22.9649 13.3998 22.675V21.3466C17.4981 20.7379 20.7377 17.4983 21.3464 13.4H22.6748C22.9647 13.4 23.1998 13.1649 23.1998 12.875V11.125C23.1998 10.8351 22.9647 10.6 22.6748 10.6ZM13.3998 18.5027V16.725C13.3998 16.4351 13.1647 16.2 12.8748 16.2H11.1248C10.8349 16.2 10.5998 16.4351 10.5998 16.725V18.5027C8.05469 17.9602 6.04031 15.9481 5.49707 13.4H7.2748C7.56474 13.4 7.7998 13.1649 7.7998 12.875V11.125C7.7998 10.8351 7.56474 10.6 7.2748 10.6H5.49707C6.03965 8.05489 8.05167 6.04051 10.5998 5.49727V7.275C10.5998 7.56493 10.8349 7.8 11.1248 7.8H12.8748C13.1647 7.8 13.3998 7.56493 13.3998 7.275V5.49727C15.9449 6.03985 17.9593 8.05187 18.5025 10.6H16.7248C16.4349 10.6 16.1998 10.8351 16.1998 11.125V12.875C16.1998 13.1649 16.4349 13.4 16.7248 13.4H18.5025C17.96 15.9451 15.9479 17.9595 13.3998 18.5027ZM13.3998 12C13.3998 12.7732 12.773 13.4 11.9998 13.4C11.2266 13.4 10.5998 12.7732 10.5998 12C10.5998 11.2268 11.2266 10.6 11.9998 10.6C12.773 10.6 13.3998 11.2268 13.3998 12Z" fill="white"/>
</g>
<defs>
<clipPath id="clip0">
<rect width="22.4" height="22.4" fill="white" transform="translate(0.799805 0.800003)"/>
</clipPath>
</defs>
</svg>
