<svg width="18" height="20" viewBox="0 0 18 20" fill="none" xmlns="http://www.w3.org/2000/svg">
<g clip-path="url(#clip0)">
<path d="M15.625 1.25H1.875C0.839844 1.25 0 2.08984 0 3.125V16.875C0 17.9102 0.839844 18.75 1.875 18.75H15.625C16.6602 18.75 17.5 17.9102 17.5 16.875V3.125C17.5 2.08984 16.6602 1.25 15.625 1.25ZM6.25 14.375C6.25 14.7203 5.97031 15 5.625 15H4.375C4.02969 15 3.75 14.7203 3.75 14.375V9.375C3.75 9.02969 4.02969 8.75 4.375 8.75H5.625C5.97031 8.75 6.25 9.02969 6.25 9.375V14.375ZM10 14.375C10 14.7203 9.72031 15 9.375 15H8.125C7.77969 15 7.5 14.7203 7.5 14.375V5.625C7.5 5.27969 7.77969 5 8.125 5H9.375C9.72031 5 10 5.27969 10 5.625V14.375ZM13.75 14.375C13.75 14.7203 13.4703 15 13.125 15H11.875C11.5297 15 11.25 14.7203 11.25 14.375V11.875C11.25 11.5297 11.5297 11.25 11.875 11.25H13.125C13.4703 11.25 13.75 11.5297 13.75 11.875V14.375Z" fill="white"/>
</g>
<defs>
<clipPath id="clip0">
<rect width="17.5" height="20" fill="white"/>
</clipPath>
</defs>
</svg>
