<svg width="14" height="16" viewBox="0 0 14 16" fill="none" xmlns="http://www.w3.org/2000/svg">
<g clip-path="url(#clip0)">
<path d="M1 14.4998C1 14.8977 1.15804 15.2792 1.43934 15.5605C1.72064 15.8418 2.10218 15.9998 2.5 15.9998H11.5C11.8978 15.9998 12.2794 15.8418 12.5607 15.5605C12.842 15.2792 13 14.8977 13 14.4998V3.99983H1V14.4998ZM9.5 6.49983C9.5 6.36722 9.55268 6.24004 9.64645 6.14628C9.74021 6.05251 9.86739 5.99983 10 5.99983C10.1326 5.99983 10.2598 6.05251 10.3536 6.14628C10.4473 6.24004 10.5 6.36722 10.5 6.49983V13.4998C10.5 13.6324 10.4473 13.7596 10.3536 13.8534C10.2598 13.9472 10.1326 13.9998 10 13.9998C9.86739 13.9998 9.74021 13.9472 9.64645 13.8534C9.55268 13.7596 9.5 13.6324 9.5 13.4998V6.49983ZM6.5 6.49983C6.5 6.36722 6.55268 6.24004 6.64645 6.14628C6.74021 6.05251 6.86739 5.99983 7 5.99983C7.13261 5.99983 7.25979 6.05251 7.35355 6.14628C7.44732 6.24004 7.5 6.36722 7.5 6.49983V13.4998C7.5 13.6324 7.44732 13.7596 7.35355 13.8534C7.25979 13.9472 7.13261 13.9998 7 13.9998C6.86739 13.9998 6.74021 13.9472 6.64645 13.8534C6.55268 13.7596 6.5 13.6324 6.5 13.4998V6.49983ZM3.5 6.49983C3.5 6.36722 3.55268 6.24004 3.64645 6.14628C3.74021 6.05251 3.86739 5.99983 4 5.99983C4.13261 5.99983 4.25979 6.05251 4.35355 6.14628C4.44732 6.24004 4.5 6.36722 4.5 6.49983V13.4998C4.5 13.6324 4.44732 13.7596 4.35355 13.8534C4.25979 13.9472 4.13261 13.9998 4 13.9998C3.86739 13.9998 3.74021 13.9472 3.64645 13.8534C3.55268 13.7596 3.5 13.6324 3.5 13.4998V6.49983ZM13.5 0.99983H9.75L9.45625 0.415455C9.39402 0.290522 9.29817 0.185431 9.17947 0.112005C9.06078 0.0385782 8.92395 -0.0002701 8.78438 -0.000169997H5.2125C5.07324 -0.000705326 4.93665 0.0379981 4.81838 0.111506C4.7001 0.185014 4.60492 0.290353 4.54375 0.415455L4.25 0.99983H0.5C0.367392 0.99983 0.240215 1.05251 0.146447 1.14628C0.0526784 1.24004 0 1.36722 0 1.49983L0 2.49983C0 2.63244 0.0526784 2.75962 0.146447 2.85338C0.240215 2.94715 0.367392 2.99983 0.5 2.99983H13.5C13.6326 2.99983 13.7598 2.94715 13.8536 2.85338C13.9473 2.75962 14 2.63244 14 2.49983V1.49983C14 1.36722 13.9473 1.24004 13.8536 1.14628C13.7598 1.05251 13.6326 0.99983 13.5 0.99983Z" fill="#F85C58"/>
</g>
<defs>
<clipPath id="clip0">
<rect width="14" height="16" fill="white"/>
</clipPath>
</defs>
</svg>
