<svg width="166" height="206" viewBox="0 0 166 206" fill="none" xmlns="http://www.w3.org/2000/svg">
<g clip-path="url(#clip0)">
<path fill-rule="evenodd" clip-rule="evenodd" d="M21.3666 109.827C24.3497 99.8761 31.3544 92.0874 38.6255 84.9511C52.7804 71.0582 60.3934 62.4683 65.4384 42.1457C68.4051 30.1934 71.4248 17.5277 80.835 8.85616C87.6867 2.54139 99.4794 -2.76415 108.643 1.75774C122.739 10.1717 126.525 27.4386 125.103 42.9001C123.341 62.0635 114.39 73.8797 97.1931 80.938C87.5034 84.9133 81.0623 90.1586 75.8024 99.2986C71.5951 106.607 69.1419 115.759 63.8548 122.384C55.9503 132.289 46.0587 136.691 33.8663 135.046C45.2861 114.035 58.6291 92.8259 74.7225 75.1352C76.2288 73.3566 85.1143 66.5492 83.3223 63.5181C81.348 60.1807 72.2264 72.7176 72.291 72.6418C67.6141 78.0103 63.2864 83.7152 59.0366 89.4748C59.0474 89.4804 59.06 89.4835 59.0718 89.4894C54.6963 95.3996 50.3556 101.397 46.0977 107.469C44.3757 110.038 42.6998 112.639 41.0952 115.306C38.7408 119.219 35.004 130.325 31.1509 132.731C30.3266 133.245 29.5644 133.533 28.8519 133.651C26.2231 137.956 23.6652 142.295 21.2325 146.685C14.8793 158.151 9.42635 170.257 6.92358 183.202C6.19329 186.981 6.71011 201.114 4.13103 203.842C-0.58445 208.831 0.79699 199.223 1.07888 196.323C3.4211 172.31 12.042 151.852 24.5591 131.664C20.7138 126.642 20.1585 113.859 21.3666 109.827Z" fill="#EBEAEA"/>
<path fill-rule="evenodd" clip-rule="evenodd" d="M182.869 121.43C177.898 115.573 165.948 114.579 158.639 114.971C149.596 115.456 140.306 117.658 131.702 120.32C117.529 124.704 103.756 132.706 91.2735 140.451C89.7692 141.384 71.2359 152.529 72.8764 154.485C74.5016 156.423 92.6954 143.184 96.7501 140.902C105.403 136.032 113.338 130.272 122.876 127.055C132.751 123.724 143.195 122.405 153.58 122.496C154.913 122.508 159.26 121.579 159.354 123.551C159.446 125.479 152.252 124.473 150.984 124.485C145.745 124.533 140.473 125.026 135.309 125.934C125.632 127.635 116.535 131.061 108.247 136.317C110.56 141.694 116.103 144.173 121.919 142.828C126.945 141.664 131.844 138.795 136.766 137.966C140.155 137.395 143.549 137.735 146.836 138.69C155.506 141.209 160.506 146.371 170.039 142.78C177.511 139.966 190.009 129.853 182.869 121.43Z" fill="#EBEAEA"/>
</g>
<defs>
<clipPath id="clip0">
<rect width="236" height="206" fill="white" transform="matrix(-1 0 0 1 236 0)"/>
</clipPath>
</defs>
</svg>
