<svg width="167" height="206" viewBox="0 0 167 206" fill="none" xmlns="http://www.w3.org/2000/svg">
<g clip-path="url(#clip0)">
<path fill-rule="evenodd" clip-rule="evenodd" d="M145.633 109.827C142.65 99.8761 135.646 92.0874 128.374 84.9511C114.22 71.0582 106.607 62.4683 101.562 42.1457C98.5949 30.1934 95.5752 17.5277 86.165 8.85616C79.3133 2.54139 67.5206 -2.76415 58.3575 1.75774C44.2606 10.1717 40.4751 27.4386 41.8965 42.9001C43.6586 62.0635 52.6101 73.8797 69.8069 80.938C79.4966 84.9133 85.9377 90.1586 91.1976 99.2986C95.4049 106.607 97.8581 115.759 103.145 122.384C111.05 132.289 120.941 136.691 133.134 135.046C121.714 114.035 108.371 92.8259 92.2775 75.1352C90.7712 73.3566 81.8857 66.5492 83.6777 63.5181C85.652 60.1807 94.7736 72.7176 94.709 72.6418C99.3859 78.0103 103.714 83.7152 107.963 89.4748C107.953 89.4804 107.94 89.4835 107.928 89.4894C112.304 95.3996 116.644 101.397 120.902 107.469C122.624 110.038 124.3 112.639 125.905 115.306C128.259 119.219 131.996 130.325 135.849 132.731C136.673 133.245 137.436 133.533 138.148 133.651C140.777 137.956 143.335 142.295 145.768 146.685C152.121 158.151 157.574 170.257 160.076 183.202C160.807 186.981 160.29 201.114 162.869 203.842C167.584 208.831 166.203 199.223 165.921 196.323C163.579 172.31 154.958 151.852 142.441 131.664C146.286 126.642 146.841 113.859 145.633 109.827Z" fill="#EBEAEA"/>
<path fill-rule="evenodd" clip-rule="evenodd" d="M-15.8694 121.43C-10.8983 115.573 1.05194 114.579 8.36064 114.971C17.4044 115.456 26.6936 117.658 35.2977 120.32C49.4713 124.704 63.2437 132.706 75.7265 140.451C77.2308 141.384 95.7641 152.529 94.1236 154.485C92.4984 156.423 74.3046 143.184 70.2499 140.902C61.5974 136.032 53.6621 130.272 44.1244 127.055C34.2488 123.724 23.8047 122.405 13.42 122.496C12.0872 122.508 7.73986 121.579 7.64605 123.551C7.55422 125.479 14.7475 124.473 16.0162 124.485C21.2552 124.533 26.5265 125.026 31.6913 125.934C41.3678 127.635 50.465 131.061 58.7528 136.317C56.4404 141.694 50.8967 144.173 45.0814 142.828C40.0554 141.664 35.1558 138.795 30.2343 137.966C26.8448 137.395 23.4509 137.735 20.164 138.69C11.4942 141.209 6.49387 146.371 -3.0385 142.78C-10.5113 139.966 -23.0088 129.853 -15.8694 121.43Z" fill="#EBEAEA"/>
</g>
<defs>
<clipPath id="clip0">
<rect width="236" height="206" fill="white" transform="translate(-69)"/>
</clipPath>
</defs>
</svg>
