<svg width="30" height="30" viewBox="0 0 30 30" fill="none" xmlns="http://www.w3.org/2000/svg">
<path d="M27.5 11.25H21.5125L16.025 3.03751C15.9107 2.86735 15.7562 2.72793 15.5753 2.63153C15.3944 2.53513 15.1925 2.48471 14.9875 2.48471C14.7825 2.48471 14.5806 2.53513 14.3997 2.63153C14.2188 2.72793 14.0643 2.86735 13.95 3.03751L8.4625 11.25H2.5C1.8125 11.25 1.25 11.8125 1.25 12.5C1.25 12.6125 1.2625 12.725 1.3 12.8375L4.475 24.425C4.7625 25.475 5.725 26.25 6.875 26.25H23.125C24.275 26.25 25.2375 25.475 25.5375 24.425L28.7125 12.8375L28.75 12.5C28.75 11.8125 28.1875 11.25 27.5 11.25ZM14.9875 5.98751L18.5 11.25H11.475L14.9875 5.98751ZM15 21.25C13.625 21.25 12.5 20.125 12.5 18.75C12.5 17.375 13.625 16.25 15 16.25C16.375 16.25 17.5 17.375 17.5 18.75C17.5 20.125 16.375 21.25 15 21.25Z" fill="white"/>
</svg>
