<svg width="20" height="20" viewBox="0 0 20 20" fill="none" xmlns="http://www.w3.org/2000/svg">
<path d="M14.1812 3.74832L3.34449 14.5858C3.12392 14.8064 3 15.1056 3 15.4175C3 15.7294 3.12392 16.0286 3.34449 16.2492C3.56506 16.4697 3.86422 16.5936 4.17615 16.5936C4.48809 16.5936 4.78725 16.4697 5.00782 16.2492L15.8445 5.41249C16.0582 5.19049 16.1763 4.89352 16.1734 4.58538C16.1705 4.27724 16.0469 3.98254 15.8291 3.76458C15.6112 3.54663 15.3166 3.42284 15.0084 3.4198C14.7003 3.41676 14.4033 3.53471 14.1812 3.74832ZM5.43032 4.16665C5.21145 4.16644 4.99468 4.20933 4.79239 4.29288C4.5901 4.37644 4.40624 4.49902 4.25132 4.65363C4.0964 4.80824 3.97345 4.99185 3.88949 5.19398C3.80553 5.3961 3.76221 5.61278 3.76199 5.83165C3.76177 6.05052 3.80466 6.26729 3.88822 6.46959C3.97177 6.67188 4.09435 6.85573 4.24896 7.01065C4.40357 7.16557 4.58718 7.28852 4.78931 7.37248C4.99143 7.45644 5.20812 7.49977 5.42699 7.49999C5.86902 7.50043 6.29311 7.32526 6.60599 7.01301C6.91886 6.70076 7.09488 6.27701 7.09532 5.83499C7.09576 5.39296 6.92059 4.96886 6.60834 4.65599C6.2961 4.34311 5.87235 4.1671 5.43032 4.16665ZM13.7637 12.5C13.3216 12.4995 12.8975 12.6747 12.5847 12.987C12.2718 13.2992 12.0958 13.723 12.0953 14.165C12.0949 14.607 12.2701 15.0311 12.5823 15.344C12.8945 15.6569 13.3183 15.8329 13.7603 15.8333C13.9792 15.8335 14.196 15.7906 14.3983 15.7071C14.6005 15.6235 14.7844 15.501 14.9393 15.3463C15.0942 15.1917 15.2172 15.0081 15.3012 14.806C15.3851 14.6039 15.4284 14.3872 15.4287 14.1683C15.4289 13.9495 15.386 13.7327 15.3024 13.5304C15.2189 13.3281 15.0963 13.1442 14.9417 12.9893C14.7871 12.8344 14.6035 12.7115 14.4013 12.6275C14.1992 12.5435 13.9825 12.5002 13.7637 12.5Z" fill="#FFA527"/>
</svg>
