<svg width="20" height="20" viewBox="0 0 20 20" fill="none" xmlns="http://www.w3.org/2000/svg">
<path d="M16.25 6.66666H14.1667V4.99999C14.1667 4.08333 13.4167 3.33333 12.5 3.33333H2.50001C1.58334 3.33333 0.833344 4.08333 0.833344 4.99999V12.5C0.833344 13.4167 1.58334 14.1667 2.50001 14.1667C2.50001 15.55 3.61668 16.6667 5.00001 16.6667C6.38334 16.6667 7.50001 15.55 7.50001 14.1667H12.5C12.5 15.55 13.6167 16.6667 15 16.6667C16.3833 16.6667 17.5 15.55 17.5 14.1667H18.3333C18.7917 14.1667 19.1667 13.7917 19.1667 13.3333V10.5583C19.1667 10.2 19.05 9.84999 18.8333 9.55833L16.9167 6.99999C16.7583 6.79166 16.5083 6.66666 16.25 6.66666ZM5.00001 15C4.54168 15 4.16668 14.625 4.16668 14.1667C4.16668 13.7083 4.54168 13.3333 5.00001 13.3333C5.45834 13.3333 5.83334 13.7083 5.83334 14.1667C5.83334 14.625 5.45834 15 5.00001 15ZM16.25 7.91666L17.8833 9.99999H14.1667V7.91666H16.25ZM15 15C14.5417 15 14.1667 14.625 14.1667 14.1667C14.1667 13.7083 14.5417 13.3333 15 13.3333C15.4583 13.3333 15.8333 13.7083 15.8333 14.1667C15.8333 14.625 15.4583 15 15 15Z" fill="#FFA527"/>
</svg>
