<svg width="14" height="14" viewBox="0 0 14 14" fill="none" xmlns="http://www.w3.org/2000/svg">
<path d="M6.99984 1.16666C3.77984 1.16666 1.1665 3.77999 1.1665 6.99999C1.1665 10.22 3.77984 12.8333 6.99984 12.8333C10.2198 12.8333 12.8332 10.22 12.8332 6.99999C12.8332 3.77999 10.2198 1.16666 6.99984 1.16666ZM9.33317 7.58332H7.58317V9.33332C7.58317 9.65416 7.32067 9.91666 6.99984 9.91666C6.679 9.91666 6.4165 9.65416 6.4165 9.33332V7.58332H4.6665C4.34567 7.58332 4.08317 7.32082 4.08317 6.99999C4.08317 6.67916 4.34567 6.41666 4.6665 6.41666H6.4165V4.66666C6.4165 4.34582 6.679 4.08332 6.99984 4.08332C7.32067 4.08332 7.58317 4.34582 7.58317 4.66666V6.41666H9.33317C9.654 6.41666 9.9165 6.67916 9.9165 6.99999C9.9165 7.32082 9.654 7.58332 9.33317 7.58332Z" fill="#A1A1A1"/>
<rect x="0.5" y="0.5" width="13" height="13" stroke="white"/>
</svg>
