<svg width="12" height="12" viewBox="0 0 12 12" fill="none" xmlns="http://www.w3.org/2000/svg">
<path d="M6 1C3.235 1 1 3.235 1 6C1 8.765 3.235 11 6 11C8.765 11 11 8.765 11 6C11 3.235 8.765 1 6 1ZM8.15 8.15C8.10374 8.19635 8.0488 8.23313 7.98831 8.25822C7.92783 8.28331 7.86298 8.29622 7.7975 8.29622C7.73202 8.29622 7.66717 8.28331 7.60669 8.25822C7.5462 8.23313 7.49126 8.19635 7.445 8.15L6 6.705L4.555 8.15C4.46151 8.24349 4.33471 8.29601 4.2025 8.29601C4.07029 8.29601 3.94349 8.24349 3.85 8.15C3.75651 8.05651 3.70399 7.92971 3.70399 7.7975C3.70399 7.73203 3.71688 7.66721 3.74194 7.60673C3.76699 7.54625 3.80371 7.49129 3.85 7.445L5.295 6L3.85 4.555C3.75651 4.46151 3.70399 4.33471 3.70399 4.2025C3.70399 4.07029 3.75651 3.94349 3.85 3.85C3.94349 3.75651 4.07029 3.70399 4.2025 3.70399C4.33471 3.70399 4.46151 3.75651 4.555 3.85L6 5.295L7.445 3.85C7.49129 3.80371 7.54625 3.76699 7.60673 3.74194C7.66721 3.71688 7.73203 3.70399 7.7975 3.70399C7.86297 3.70399 7.92779 3.71688 7.98827 3.74194C8.04875 3.76699 8.10371 3.80371 8.15 3.85C8.19629 3.89629 8.23301 3.95125 8.25806 4.01173C8.28312 4.07221 8.29601 4.13703 8.29601 4.2025C8.29601 4.26797 8.28312 4.33279 8.25806 4.39327C8.23301 4.45375 8.19629 4.50871 8.15 4.555L6.705 6L8.15 7.445C8.34 7.635 8.34 7.955 8.15 8.15Z" fill="#FE0505"/>
</svg>
