<svg width="220" height="224" viewBox="0 0 220 224" fill="none" xmlns="http://www.w3.org/2000/svg">
<path d="M109.765 224C170.387 224 219.53 195.34 219.53 159.986C219.53 124.633 170.387 95.9728 109.765 95.9728C49.1435 95.9728 0 124.633 0 159.986C0 195.34 49.1435 224 109.765 224Z" fill="#F5F5F5"/>
<path d="M126.991 204.816C140.101 204.816 150.729 198.619 150.729 190.974C150.729 183.329 140.101 177.131 126.991 177.131C113.88 177.131 103.253 183.329 103.253 190.974C103.253 198.619 113.88 204.816 126.991 204.816Z" fill="#E0E0E0"/>
<path d="M114.654 144.1L51.161 181.135C49.3738 182.197 46.2568 182.048 44.191 180.843L21.6514 167.696C19.5908 166.496 19.3648 164.675 21.1257 163.634L84.6183 126.599C86.4055 125.537 89.5226 125.686 91.5884 126.891L114.128 140.038C116.215 141.238 116.441 143.059 114.654 144.1Z" fill="#E0E0E0"/>
<path d="M183.019 157.029L188.023 159.965C188.023 159.965 185.5 151.831 186.898 143.643C187.236 141.716 187.926 139.868 188.932 138.195C189.327 137.367 192.344 132.265 189.689 129.907C187.035 127.55 180.806 132.238 181.084 144.843C181.218 148.971 181.868 153.066 183.019 157.029Z" fill="#018CCA"/>
<path opacity="0.5" d="M183.019 157.029L188.023 159.965C188.023 159.965 185.5 151.831 186.898 143.643C187.236 141.716 187.926 139.868 188.932 138.195C189.327 137.367 192.344 132.265 189.689 129.907C187.035 127.55 180.806 132.238 181.084 144.843C181.218 148.971 181.868 153.066 183.019 157.029Z" fill="black"/>
<path d="M185.348 158.627C185.3 158.627 185.254 158.612 185.216 158.584C185.177 158.557 185.148 158.518 185.132 158.473C185.132 158.42 183.224 153.116 183.324 144.61C183.424 136.103 187.876 131.484 187.923 131.442C187.944 131.42 187.968 131.403 187.995 131.392C188.022 131.38 188.052 131.375 188.081 131.375C188.11 131.375 188.139 131.38 188.166 131.392C188.194 131.403 188.218 131.42 188.239 131.442C188.26 131.463 188.277 131.488 188.288 131.516C188.299 131.544 188.305 131.573 188.305 131.603C188.305 131.634 188.299 131.663 188.288 131.691C188.277 131.719 188.26 131.744 188.239 131.765C188.197 131.808 183.876 136.252 183.776 144.615C183.676 152.978 185.542 158.266 185.558 158.319C185.569 158.347 185.574 158.377 185.573 158.407C185.572 158.437 185.566 158.466 185.553 158.493C185.541 158.521 185.524 158.545 185.502 158.565C185.48 158.586 185.454 158.601 185.426 158.611L185.348 158.627Z" fill="white"/>
<path d="M186.898 159.323L195.161 164.25C195.161 164.25 198.946 163.687 198.662 160.087C198.378 156.487 196.838 155.643 198.752 154.061C200.665 152.478 201.159 152.378 201.064 150.827C200.97 149.277 199.945 148.602 199.456 147.992C198.967 147.381 197.621 146.086 198.573 144.222C199.524 142.358 200.812 140.548 198.899 139.687C197.753 139.156 195.829 139.82 194.557 141.185C193.285 142.549 192.228 143.537 191.025 143.84C189.821 144.142 187.298 144.179 187.382 146.282C187.466 148.385 188.007 149.112 187.503 150.041C186.551 151.799 182.488 152.749 186.898 159.323Z" fill="#018CCA"/>
<path opacity="0.2" d="M186.898 159.323L195.161 164.25C195.161 164.25 198.946 163.687 198.662 160.087C198.378 156.487 196.838 155.643 198.752 154.061C200.665 152.478 201.159 152.378 201.064 150.827C200.97 149.277 199.945 148.602 199.456 147.992C198.967 147.381 197.621 146.086 198.573 144.222C199.524 142.358 200.812 140.548 198.899 139.687C197.753 139.156 195.829 139.82 194.557 141.185C193.285 142.549 192.228 143.537 191.025 143.84C189.821 144.142 187.298 144.179 187.382 146.282C187.466 148.385 188.007 149.112 187.503 150.041C186.551 151.799 182.488 152.749 186.898 159.323Z" fill="black"/>
<path d="M190.263 161.553C190.205 161.553 190.15 161.531 190.108 161.492C190.066 161.452 190.041 161.398 190.037 161.34C190.037 161.218 189.132 148.772 197.69 140.601C197.734 140.559 197.792 140.537 197.852 140.539C197.913 140.541 197.969 140.567 198.011 140.611C198.052 140.656 198.074 140.715 198.072 140.775C198.07 140.836 198.044 140.894 198 140.935C189.59 148.953 190.483 161.181 190.494 161.303C190.498 161.364 190.479 161.425 190.439 161.471C190.4 161.518 190.344 161.547 190.284 161.553H190.263Z" fill="white"/>
<path d="M191.766 150.886C191.709 150.886 191.653 150.864 191.611 150.824C191.569 150.785 191.544 150.731 191.54 150.673C191.476 149.718 191.22 148.785 190.788 147.933C190.356 147.08 189.757 146.325 189.027 145.714C189.003 145.696 188.983 145.674 188.967 145.648C188.952 145.622 188.941 145.594 188.936 145.564C188.932 145.534 188.933 145.503 188.94 145.474C188.947 145.445 188.96 145.417 188.977 145.393C188.995 145.368 189.017 145.348 189.043 145.332C189.068 145.316 189.097 145.306 189.126 145.301C189.156 145.296 189.186 145.298 189.215 145.305C189.244 145.312 189.271 145.325 189.295 145.342C190.084 145.991 190.73 146.798 191.194 147.712C191.658 148.626 191.93 149.627 191.992 150.652C191.996 150.712 191.977 150.771 191.939 150.816C191.901 150.862 191.846 150.891 191.787 150.896L191.766 150.886Z" fill="white"/>
<path d="M191.135 153.009C191.079 153.01 191.024 152.989 190.983 152.951C190.941 152.908 190.918 152.85 190.918 152.789C190.918 152.729 190.941 152.671 190.983 152.627C191.072 152.526 193.227 150.174 198.21 150.864C198.269 150.875 198.322 150.907 198.358 150.956C198.394 151.004 198.411 151.064 198.405 151.125C198.396 151.185 198.364 151.239 198.315 151.276C198.267 151.312 198.207 151.329 198.147 151.321C193.416 150.668 191.34 152.914 191.314 152.914C191.294 152.944 191.268 152.968 191.236 152.985C191.205 153.002 191.17 153.01 191.135 153.009Z" fill="white"/>
<path d="M31.5073 149.882L29.042 155.165C29.042 155.165 26.5452 147.02 20.7947 141.079C19.4377 139.683 17.8328 138.557 16.0638 137.76C15.2806 137.303 9.92958 134.829 10.8074 131.388C11.6852 127.948 19.428 128.203 26.2824 138.753C28.4815 142.225 30.2371 145.965 31.5073 149.882Z" fill="#018CCA"/>
<path opacity="0.5" d="M31.5073 149.882L29.042 155.165C29.042 155.165 26.5452 147.02 20.7947 141.079C19.4377 139.683 17.8328 138.557 16.0638 137.76C15.2806 137.303 9.92958 134.829 10.8074 131.388C11.6852 127.948 19.428 128.203 26.2824 138.753C28.4815 142.225 30.2371 145.965 31.5073 149.882Z" fill="black"/>
<path d="M30.3615 152.569C30.3115 152.568 30.2629 152.552 30.2231 152.521C30.1833 152.49 30.1544 152.447 30.1408 152.399C30.1408 152.346 28.7215 146.967 23.9119 140.091C19.1022 133.215 13.0836 132.079 13.0468 132.068C13.0174 132.063 12.9893 132.052 12.9642 132.036C12.939 132.02 12.9172 131.999 12.9001 131.974C12.883 131.949 12.8709 131.921 12.8645 131.892C12.8581 131.863 12.8575 131.832 12.8628 131.803C12.8744 131.743 12.9082 131.691 12.9572 131.656C13.0062 131.621 13.0666 131.607 13.1257 131.617C13.1887 131.617 19.4334 132.838 24.3114 139.826C29.1894 146.813 30.6191 152.229 30.6191 152.282C30.6336 152.341 30.6247 152.404 30.5943 152.456C30.5638 152.509 30.5143 152.547 30.4562 152.563L30.3615 152.569Z" fill="white"/>
<path d="M29.6043 153.997L25.5569 162.774C25.5569 162.774 22.1244 164.478 20.3425 161.351C18.5605 158.224 19.3437 156.647 16.8837 156.44C14.4237 156.232 13.9506 156.44 13.1569 155.107C12.3632 153.774 12.831 152.627 12.8888 151.847C12.9466 151.066 13.3356 149.224 11.5011 148.231C9.66662 147.238 7.59033 146.494 8.68892 144.689C9.34072 143.627 11.2856 143.038 13.1043 143.436C14.9231 143.834 16.3371 144.036 17.5092 143.606C18.6814 143.176 20.7682 141.753 21.8826 143.532C22.997 145.31 22.9339 146.218 23.8958 146.717C25.662 147.599 29.5412 146.048 29.6043 153.997Z" fill="#018CCA"/>
<path opacity="0.2" d="M29.6043 153.997L25.5569 162.774C25.5569 162.774 22.1244 164.478 20.3425 161.351C18.5605 158.224 19.3437 156.647 16.8837 156.44C14.4237 156.232 13.9506 156.44 13.1569 155.107C12.3632 153.774 12.831 152.627 12.8888 151.847C12.9466 151.066 13.3356 149.224 11.5011 148.231C9.66662 147.238 7.59033 146.494 8.68892 144.689C9.34072 143.627 11.2856 143.038 13.1043 143.436C14.9231 143.834 16.3371 144.036 17.5092 143.606C18.6814 143.176 20.7682 141.753 21.8826 143.532C22.997 145.31 22.9339 146.218 23.8958 146.717C25.662 147.599 29.5412 146.048 29.6043 153.997Z" fill="black"/>
<path d="M27.9537 157.799C27.9138 157.799 27.8747 157.788 27.8405 157.767C27.8062 157.747 27.7782 157.717 27.7592 157.682C27.6961 157.576 21.5513 147.004 10.1343 145.215C10.1045 145.21 10.0758 145.2 10.05 145.184C10.0243 145.168 10.0019 145.147 9.98425 145.122C9.96661 145.098 9.95406 145.07 9.94733 145.04C9.94061 145.01 9.93984 144.979 9.94509 144.949C9.9489 144.919 9.95868 144.891 9.97385 144.865C9.98902 144.839 10.0093 144.816 10.0333 144.798C10.0574 144.78 10.0849 144.767 10.114 144.761C10.1431 144.754 10.1732 144.753 10.2027 144.758C21.8404 146.585 28.0746 157.347 28.1534 157.454C28.1724 157.489 28.1821 157.529 28.1814 157.569C28.1808 157.609 28.1699 157.648 28.1499 157.683C28.1298 157.718 28.1012 157.747 28.0668 157.767C28.0324 157.787 27.9935 157.798 27.9537 157.799Z" fill="white"/>
<path d="M20.7474 149.866C20.7069 149.866 20.6671 149.855 20.6321 149.835C20.597 149.814 20.5679 149.785 20.5476 149.749C20.0256 148.87 19.6894 147.891 19.56 146.874C19.4306 145.857 19.511 144.824 19.796 143.84C19.806 143.811 19.8214 143.785 19.8413 143.763C19.8613 143.741 19.8854 143.723 19.9122 143.71C19.9391 143.697 19.9681 143.69 19.9978 143.688C20.0275 143.687 20.0571 143.691 20.0851 143.702C20.113 143.712 20.1387 143.727 20.1607 143.747C20.1827 143.768 20.2006 143.792 20.2133 143.819C20.226 143.846 20.2333 143.875 20.2347 143.905C20.2362 143.935 20.2318 143.965 20.2217 143.994C19.9647 144.916 19.8951 145.881 20.0171 146.831C20.139 147.78 20.45 148.696 20.9314 149.521C20.9464 149.547 20.9561 149.576 20.96 149.606C20.9639 149.636 20.9618 149.666 20.954 149.695C20.9462 149.724 20.9327 149.752 20.9144 149.776C20.8961 149.799 20.8733 149.819 20.8473 149.834C20.8173 149.853 20.7828 149.864 20.7474 149.866Z" fill="white"/>
<path d="M15.7063 153.901C15.6748 153.901 15.6437 153.894 15.6148 153.881C15.5859 153.869 15.5599 153.85 15.5381 153.827C15.517 153.806 15.5002 153.781 15.4888 153.753C15.4773 153.725 15.4714 153.695 15.4714 153.665C15.4714 153.635 15.4773 153.605 15.4888 153.578C15.5002 153.55 15.517 153.524 15.5381 153.503C19.2492 150.079 22.3715 150.779 22.4766 150.811C22.5057 150.818 22.5331 150.831 22.5573 150.848C22.5815 150.866 22.602 150.888 22.6177 150.914C22.6333 150.94 22.6438 150.968 22.6484 150.998C22.6531 151.028 22.6519 151.058 22.6449 151.087C22.6387 151.117 22.6267 151.145 22.6094 151.17C22.5921 151.195 22.57 151.216 22.5444 151.232C22.5188 151.248 22.4903 151.258 22.4606 151.263C22.4308 151.267 22.4005 151.265 22.3715 151.257C22.34 151.257 19.3648 150.594 15.843 153.843C15.8046 153.877 15.7568 153.897 15.7063 153.901Z" fill="white"/>
<path d="M29.6623 42.9237C29.6628 41.3776 30.0657 39.8589 30.8305 38.5198C31.5953 37.1806 32.6952 36.068 34.0199 35.2936L89.4859 2.94701C89.8559 2.73149 90.2691 2.60246 90.695 2.56939C91.1209 2.53632 91.5487 2.60005 91.947 2.75589C92.3453 2.91174 92.704 3.15574 92.9967 3.46997C93.2894 3.78421 93.5087 4.16069 93.6385 4.57177C93.4896 3.91318 93.2109 3.29165 92.8189 2.74428C92.4269 2.19692 91.9298 1.73495 91.3572 1.38596L91.1575 1.26914C89.7771 0.439637 88.201 0.00125825 86.5949 0.000128636C86.0815 -0.0047824 85.5765 0.13101 85.1336 0.393047L29.6675 32.7556C28.3408 33.5281 27.239 34.6401 26.4731 35.9796C25.7072 37.3191 25.3042 38.8388 25.3047 40.3856V161.547C25.3053 162.054 25.4377 162.551 25.6884 162.989C25.9391 163.427 26.2995 163.791 26.7334 164.045C27.1673 164.298 27.6594 164.432 28.1606 164.432C28.6617 164.433 29.1542 164.3 29.5887 164.048L29.6623 164.006V42.9237Z" fill="#37474F"/>
<path d="M89.4123 134.24L33.9462 166.586C33.5124 166.84 33.02 166.974 32.5187 166.974C32.0174 166.975 31.5248 166.842 31.0906 166.589C30.6563 166.336 30.2957 165.972 30.0449 165.533C29.7942 165.095 29.6622 164.597 29.6622 164.091V42.9237C29.6628 41.3776 30.0657 39.8589 30.8305 38.5198C31.5953 37.1806 32.6952 36.068 34.0198 35.2936L89.4858 2.947C89.9204 2.69483 90.4129 2.56244 90.914 2.56308C91.4151 2.56373 91.9073 2.69739 92.3411 2.95067C92.775 3.20396 93.1354 3.56798 93.3861 4.00625C93.6369 4.44453 93.7692 4.94167 93.7699 5.44787V126.61C93.7704 128.156 93.3679 129.675 92.603 131.014C91.8381 132.354 90.7376 133.466 89.4123 134.24Z" fill="#455A64"/>
<path d="M29.6623 164.091V42.9237C29.6629 41.6037 29.9575 40.3007 30.5243 39.1113L26.2351 36.4565C25.6242 37.6839 25.3056 39.0384 25.3047 40.4122V162.588C25.3048 163.069 25.4284 163.541 25.6633 163.959C25.8983 164.377 26.2365 164.726 26.6451 164.972L28.858 166.3C29.624 166.762 30.4995 167.006 31.3917 167.006H32.4955C32.12 167.002 31.7488 166.924 31.4032 166.776C31.0576 166.627 30.7443 166.412 30.4812 166.141C30.2181 165.87 30.0104 165.55 29.8699 165.198C29.7293 164.846 29.6588 164.47 29.6623 164.091Z" fill="#263238"/>
<path d="M87.5042 14.5965V116.463C87.5031 117.829 87.1466 119.17 86.4703 120.353C85.794 121.535 84.8218 122.518 83.6512 123.201L34.6716 151.762C34.3024 151.978 33.8843 152.095 33.4574 152.102C33.5987 152.432 33.8076 152.728 34.0703 152.971C34.3331 153.214 34.6437 153.397 34.9818 153.51C35.32 153.623 35.6779 153.662 36.0321 153.625C36.3863 153.589 36.7288 153.476 37.037 153.296L86.0166 124.73C87.187 124.047 88.1587 123.065 88.8341 121.882C89.5095 120.699 89.8648 119.358 89.8643 117.992V17.1345C89.8655 16.4872 89.6218 15.864 89.1831 15.3922C88.7444 14.9204 88.1438 14.6358 87.5042 14.5965Z" fill="#37474F"/>
<path d="M33.4572 152.075C33.8841 152.069 34.3022 151.952 34.6714 151.735L83.651 123.174C84.8178 122.493 85.7875 121.515 86.4636 120.338C87.1396 119.16 87.4983 117.824 87.504 116.463V14.5965C87.0122 14.6007 86.5275 14.7149 86.0847 14.931L37.1052 43.4918C35.9338 44.1743 34.961 45.1564 34.2847 46.3392C33.6083 47.522 33.2522 48.8639 33.2522 50.2298V151.061C33.2517 151.415 33.3233 151.766 33.4625 152.091L33.4572 152.075Z" fill="#018CCA"/>
<g opacity="0.5">
<path opacity="0.5" d="M33.4572 152.075C33.8841 152.069 34.3022 151.952 34.6714 151.735L83.651 123.174C84.8178 122.493 85.7875 121.515 86.4636 120.338C87.1396 119.16 87.4983 117.824 87.504 116.463V14.5965C87.0122 14.6007 86.5275 14.7149 86.0847 14.931L37.1052 43.4918C35.9338 44.1743 34.961 45.1564 34.2847 46.3392C33.6083 47.522 33.2522 48.8639 33.2522 50.2298V151.061C33.2517 151.415 33.3233 151.766 33.4625 152.091L33.4572 152.075Z" fill="white"/>
</g>
<path d="M53.9521 28.5663C53.9354 28.8752 53.8473 29.1758 53.6949 29.4442C53.5424 29.7125 53.3299 29.941 53.0742 30.1114C52.5854 30.3928 52.1912 30.1645 52.1912 29.5804C52.208 29.2709 52.2967 28.9698 52.4502 28.7014C52.6036 28.433 52.8174 28.2048 53.0742 28.0353C53.5578 27.7911 53.9521 27.9981 53.9521 28.5663Z" fill="#263238"/>
<path d="M57.2376 26.6548C57.2199 26.964 57.1308 27.2649 56.9775 27.5331C56.8242 27.8014 56.6108 28.0298 56.3545 28.1999C55.8657 28.4813 55.4714 28.253 55.4714 27.6689C55.4883 27.3594 55.577 27.0583 55.7304 26.7899C55.8838 26.5215 56.0976 26.2933 56.3545 26.1238C56.8381 25.8583 57.2376 26.0866 57.2376 26.6548Z" fill="#263238"/>
<path d="M70.4784 19.9593L59.8288 26.1981C59.4031 26.4424 59.0614 26.1981 59.0614 25.6141C59.0659 25.3245 59.1376 25.04 59.2709 24.7836C59.4043 24.5272 59.5954 24.3061 59.8288 24.138L70.4942 17.9203C70.9147 17.6708 71.2564 17.9203 71.2564 18.4991C71.2479 18.7868 71.1731 19.0685 71.0381 19.322C70.9031 19.5754 70.7114 19.7936 70.4784 19.9593Z" fill="#263238"/>
<path d="M68.6756 138.063C69.3117 138.063 69.7269 138.748 69.7269 139.804C69.7269 141.461 68.7019 143.463 67.4824 144.174L62.3784 147.153C62.1504 147.296 61.8898 147.379 61.6215 147.392C60.9855 147.392 60.5702 146.707 60.5702 145.65C60.5702 143.988 61.6215 141.987 62.8147 141.28L67.9187 138.302C68.1483 138.157 68.4108 138.075 68.6809 138.063H68.6756ZM68.6809 137.622C68.334 137.632 67.9963 137.737 67.7032 137.925L62.5992 140.898C61.2378 141.689 60.1339 143.818 60.1339 145.677C60.1339 147.041 60.7489 147.859 61.6215 147.859C61.9684 147.849 62.3061 147.744 62.5992 147.556L67.7032 144.583C69.0594 143.792 70.1632 141.663 70.1632 139.804C70.1632 138.44 69.5535 137.622 68.6809 137.622Z" fill="#263238"/>
<path d="M40.4799 57.3713V171.53C40.4799 173.6 41.2315 174.986 42.3774 175.443H42.409L47.2975 178.146L47.2659 173.76L46.7403 55.3908L41.5837 52.736C40.8917 54.1835 40.5153 55.7642 40.4799 57.3713Z" fill="#E6E6E6"/>
<path d="M47.5658 178.586L42.2778 175.661C40.969 175.13 40.2173 173.574 40.2173 171.503V57.3448C40.2452 55.689 40.6271 54.0588 41.3369 52.566L41.4525 52.3165L46.9928 55.1784V55.3377L47.5185 173.707L47.5658 178.586ZM42.5459 175.204L47.0349 177.689V173.749L46.5093 55.5395L41.7417 53.0758C41.1385 54.4219 40.813 55.878 40.785 57.3554V171.514C40.785 173.383 41.4315 174.753 42.5196 175.183L42.5827 175.215L42.5459 175.204Z" fill="#E6E6E6"/>
<path d="M41.5735 52.7466L46.7301 55.4014L101.923 22.9645L105.602 20.7982L100.509 17.8991L100.367 17.8141C99.5521 17.3203 98.4903 17.3522 97.3181 18.0371L45.0795 48.4988C43.5192 49.5316 42.2987 51.0104 41.5735 52.7466Z" fill="#E0E0E0"/>
<path d="M46.7297 55.6616C46.6874 55.6612 46.6459 55.6502 46.6088 55.6297L41.4522 52.9749C41.4219 52.9602 41.3949 52.9395 41.3726 52.9141C41.3503 52.8887 41.3333 52.859 41.3225 52.8269C41.3118 52.7947 41.3074 52.7607 41.3099 52.7269C41.3123 52.693 41.3213 52.66 41.3366 52.6297C42.0879 50.8499 43.3446 49.3348 44.9477 48.2758L97.1968 17.8035C98.4058 17.1026 99.5832 17.023 100.508 17.5858H100.55L100.656 17.6495L105.744 20.5433C105.784 20.5677 105.817 20.602 105.84 20.6429C105.863 20.6838 105.875 20.7299 105.875 20.7769C105.876 20.8235 105.864 20.8694 105.841 20.9096C105.818 20.9499 105.784 20.9829 105.744 21.0052L46.8716 55.6085C46.8302 55.6393 46.781 55.6577 46.7297 55.6616ZM41.92 52.6085L46.7244 55.0934L105.071 20.7982L100.23 18.0371L100.193 18.0053C99.4413 17.5699 98.4689 17.6601 97.4491 18.2548L45.2001 48.7271C43.764 49.68 42.6263 51.0263 41.92 52.6085Z" fill="#E0E0E0"/>
<path d="M45.5364 60.2385V173.866C45.5364 175.655 46.1041 176.94 47.0029 177.546L47.3025 177.71C48.0858 178.082 49.0687 178.002 50.1358 177.376L75.393 162.657L102.406 146.25C103.789 145.376 104.935 144.167 105.739 142.733C106.543 141.298 106.98 139.684 107.011 138.036V24.4087C107.011 22.6778 106.485 21.4247 105.633 20.7928C105.49 20.684 105.332 20.5948 105.166 20.5274C104.71 20.3646 104.222 20.3124 103.743 20.3752C103.264 20.4379 102.806 20.6137 102.406 20.8884L50.1568 51.8758C48.6827 52.6551 47.4904 53.8854 46.7506 55.3908C45.9922 56.8947 45.5773 58.5512 45.5364 60.2385Z" fill="#FAFAFA"/>
<path d="M102.406 146.25C91.6565 152.728 63.687 169.586 49.8415 178.013C49.4285 178.262 48.9573 178.397 48.4759 178.403C47.9946 178.409 47.5204 178.286 47.1015 178.046C46.6827 177.806 46.3342 177.459 46.0916 177.039C45.849 176.619 45.7209 176.141 45.7205 175.655V58.8102C45.7204 57.4801 46.0649 56.1731 46.7195 55.019C47.3742 53.865 48.3164 52.904 49.4525 52.2315L102.637 20.7344C103.05 20.491 103.52 20.3617 103.998 20.3598C104.477 20.3578 104.947 20.4832 105.362 20.7233C105.777 20.9634 106.122 21.3097 106.363 21.7274C106.603 22.145 106.731 22.6194 106.732 23.1025V138.514C106.733 140.071 106.335 141.601 105.577 142.957C104.819 144.313 103.726 145.447 102.406 146.25Z" fill="#FAFAFA"/>
<path d="M102.254 146.017C93.8119 151.093 85.3735 156.183 76.9387 161.287L61.9578 170.34L55.1244 174.482L52.1335 176.298C51.2136 176.855 50.2359 177.652 49.2162 178.007C47.5289 178.602 46.0098 177.238 45.9677 175.554C45.9677 175.284 45.9677 175.023 45.9677 174.742V67.6137C45.9677 64.7624 45.9677 61.9058 45.9677 59.0545C45.9484 57.7045 46.286 56.3738 46.9458 55.1996C47.6055 54.0254 48.5635 53.0503 49.7208 52.3749C50.9403 51.6475 52.1651 50.9307 53.4003 50.2085L70.5679 40.0033L90.9366 27.945C94.8001 25.6618 98.6531 23.3574 102.501 21.0849C103.699 20.384 105.208 20.453 106.044 21.7221C106.339 22.2287 106.478 22.8129 106.443 23.3999V138.068C106.496 139.652 106.135 141.221 105.397 142.619C104.659 144.017 103.569 145.195 102.238 146.033C101.949 146.213 102.212 146.675 102.501 146.494C103.901 145.619 105.051 144.389 105.836 142.927C106.621 141.465 107.016 139.821 106.979 138.158V31.5662C106.979 28.7946 107.006 26.0176 106.979 23.2406C106.993 22.6847 106.856 22.1356 106.584 21.6521C106.312 21.1686 105.915 20.769 105.435 20.4962C104.956 20.2233 104.411 20.0875 103.861 20.1033C103.311 20.1191 102.775 20.2859 102.312 20.5858C101.029 21.3344 99.7569 22.099 98.4849 22.853L80.8547 33.329L60.302 45.4988C56.6751 47.6493 52.9956 49.7838 49.3844 51.9501C48.1687 52.6727 47.1634 53.7068 46.4702 54.9478C45.7771 56.1887 45.4206 57.5925 45.4368 59.0173C45.4368 59.9731 45.4368 60.9288 45.4368 61.8846V175.103C45.4368 175.284 45.4368 175.469 45.4368 175.634C45.4425 176.109 45.5579 176.576 45.7739 176.998C45.9899 177.419 46.3005 177.784 46.6809 178.063C47.0613 178.342 47.501 178.528 47.9649 178.605C48.4288 178.682 48.9041 178.648 49.3529 178.507C50.3463 178.172 51.282 177.418 52.1756 176.876L55.2243 175.023L62.0577 170.892C71.9959 164.875 81.9428 158.868 91.8985 152.871L102.532 146.463C102.806 146.303 102.543 145.841 102.254 146.017Z" fill="#EBEBEB"/>
<path d="M49.4314 52.2156L102.637 20.7344C103.05 20.491 103.52 20.3617 103.998 20.3598C104.476 20.3578 104.947 20.4832 105.362 20.7233C105.777 20.9634 106.122 21.3097 106.363 21.7274C106.603 22.145 106.731 22.6194 106.732 23.1025V28.1733L45.7151 63.7482V58.7996C45.7125 57.4701 46.0542 56.1631 46.7061 55.0081C47.358 53.8532 48.2975 52.8905 49.4314 52.2156Z" fill="#EBEBEB"/>
<path d="M85.9854 79.8563C91.3808 70.4167 91.3808 60.2136 85.9855 57.067C80.5902 53.9205 71.8427 59.0221 66.4473 68.4617C61.052 77.9013 61.052 88.1044 66.4473 91.251C71.8426 94.3975 80.5901 89.2959 85.9854 79.8563Z" fill="#018CCA"/>
<path opacity="0.5" d="M85.9854 79.8563C91.3808 70.4167 91.3808 60.2136 85.9855 57.067C80.5902 53.9205 71.8427 59.0221 66.4473 68.4617C61.052 77.9013 61.052 88.1044 66.4473 91.251C71.8426 94.3975 80.5901 89.2959 85.9854 79.8563Z" fill="white"/>
<path d="M73.7373 74.219C73.6559 74.219 73.5752 74.2028 73.5 74.1713C73.4247 74.1398 73.3563 74.0936 73.2987 74.0355C73.2411 73.9773 73.1955 73.9082 73.1643 73.8322C73.1331 73.7562 73.1171 73.6747 73.1171 73.5924V69.4668C73.1625 68.488 73.4391 67.5343 73.9237 66.6855C74.4084 65.8366 75.087 65.1172 75.903 64.5872C76.2333 64.3123 76.6388 64.1457 77.0653 64.1098C77.4918 64.0739 77.919 64.1703 78.2899 64.3861C78.6607 64.602 78.9575 64.927 79.1405 65.3178C79.3236 65.7086 79.3843 66.1465 79.3144 66.573V70.704C79.3144 70.8701 79.2491 71.0295 79.1327 71.147C79.0164 71.2645 78.8587 71.3305 78.6942 71.3305C78.5297 71.3305 78.3719 71.2645 78.2556 71.147C78.1392 71.0295 78.0739 70.8701 78.0739 70.704V66.5518C78.156 66.3443 78.1609 66.1138 78.0876 65.903C78.0144 65.6921 77.868 65.5153 77.6755 65.4051C77.4831 65.2949 77.2576 65.259 77.0409 65.3038C76.8242 65.3487 76.631 65.4714 76.497 65.6491C75.8714 66.0712 75.3506 66.6333 74.975 67.2917C74.5994 67.9502 74.3791 68.6872 74.3313 69.4456V73.5712C74.337 73.7365 74.2777 73.8974 74.1665 74.0187C74.0552 74.1401 73.9009 74.2121 73.7373 74.219Z" fill="#37474F"/>
<path d="M81.2224 68.0438C81.0772 67.983 80.9191 67.9603 80.7628 67.978C80.6065 67.9956 80.4572 68.053 80.3289 68.1447L72.0657 72.9659C71.7033 73.1957 71.4033 73.5132 71.1931 73.8898C70.8625 74.4318 70.6811 75.0532 70.6675 75.6897V82.9162C70.649 83.1188 70.6763 83.323 70.7473 83.5134C70.8183 83.7038 70.9312 83.8755 71.0775 84.0153C71.1222 84.0507 71.1718 84.0793 71.2247 84.1003C71.3646 84.1529 71.5151 84.1708 71.6633 84.1523C71.8115 84.1338 71.9532 84.0795 72.0762 83.9941L80.3289 79.1676C80.7594 78.8573 81.1116 78.449 81.3573 77.9759C81.6029 77.5028 81.7349 76.9779 81.7428 76.4437V69.2066C81.7719 68.9831 81.7386 68.7558 81.6466 68.5503C81.5547 68.3449 81.4078 68.1694 81.2224 68.0438Z" fill="#018CCA"/>
<path d="M77.1754 75.5782L77.9744 77.8933L75.1727 79.5233L75.8718 76.6667L75.9717 76.2632C75.4986 76.2632 75.1727 75.9074 75.1727 75.2597C75.1763 74.9959 75.2206 74.7344 75.3041 74.4844C75.5224 73.7944 75.9699 73.2017 76.5709 72.8066C77.3436 72.3553 77.9744 72.7216 77.9744 73.6243C77.936 74.3485 77.6542 75.0378 77.1754 75.5782Z" fill="#455A64"/>
<path d="M75.8507 76.6402L75.9506 76.2367C75.4775 76.2367 75.1516 75.8809 75.1516 75.2331C75.1552 74.9694 75.1995 74.7078 75.283 74.4579L77.1753 75.5782L77.9743 77.8933L75.8507 76.6402Z" fill="#37474F"/>
<path d="M96.6243 100.884L55.8343 124.656C54.1469 125.638 52.7803 124.592 52.7803 122.325V116.086C52.7803 113.813 54.1469 111.174 55.8343 110.192L96.6243 86.4206C98.3116 85.4383 99.6783 86.479 99.6783 88.7516V94.9905C99.652 97.263 98.2853 99.8966 96.6243 100.884Z" fill="#018CCA"/>
<path d="M63.1665 109.629H62.3781V116.229H63.1665V109.629Z" fill="#FAFAFA"/>
<path d="M65.7496 111.515L60.0652 114.815L60.4594 115.508L66.1438 112.208L65.7496 111.515Z" fill="#FAFAFA"/>
<path d="M60.9656 111.425L60.5714 112.115L64.5728 114.448L64.967 113.759L60.9656 111.425Z" fill="#FAFAFA"/>
<path d="M64.9916 108.864L60.9888 115.899L61.6747 116.298L65.6775 109.262L64.9916 108.864Z" fill="#FAFAFA"/>
<path d="M76.6076 102.238H75.8191V108.838H76.6076V102.238Z" fill="#FAFAFA"/>
<path d="M78.8415 103.555L73.1831 106.855L73.5773 107.545L79.2357 104.245L78.8415 103.555Z" fill="#FAFAFA"/>
<path d="M74.4116 104.032L74.0173 104.721L78.0187 107.055L78.413 106.365L74.4116 104.032Z" fill="#FAFAFA"/>
<path d="M78.404 101.414L74.4012 108.449L75.0872 108.848L79.09 101.812L78.404 101.414Z" fill="#FAFAFA"/>
<path d="M90.0482 94.8418H89.2598V101.442H90.0482V94.8418Z" fill="#FAFAFA"/>
<path d="M92.7396 96.6643L87.0552 99.9643L87.4494 100.657L93.1338 97.3572L92.7396 96.6643Z" fill="#FAFAFA"/>
<path d="M87.8527 96.6355L87.4585 97.3253L91.4599 99.6589L91.8541 98.9691L87.8527 96.6355Z" fill="#FAFAFA"/>
<path d="M91.3146 94.4349L87.3118 101.438L87.9946 101.836L91.9974 94.8331L91.3146 94.4349Z" fill="#FAFAFA"/>
<path d="M97.807 109.475C98.3326 109.475 98.6007 110.298 98.6007 111.116V117.355C98.6007 119.25 97.439 121.528 96.0724 122.33L55.3086 146.102C55.1017 146.235 54.8649 146.313 54.62 146.33C54.0944 146.33 53.8316 145.507 53.8316 144.689V138.45C53.8316 136.555 54.988 134.277 56.3599 133.475L97.1499 109.704C97.355 109.571 97.5901 109.492 97.8333 109.475H97.807ZM97.8333 108.413C97.4052 108.429 96.9886 108.557 96.6243 108.785L55.8343 132.557C54.1469 133.539 52.7803 136.178 52.7803 138.45V144.689C52.7803 146.378 53.5372 147.392 54.62 147.392C55.0499 147.377 55.4685 147.249 55.8343 147.02L96.6243 123.249C98.3116 122.266 99.6783 119.627 99.6783 117.355V111.116C99.6783 109.428 98.9161 108.413 97.8333 108.413Z" fill="#018CCA"/>
<path d="M77.3719 128.771V131.91C77.3719 132.205 77.4389 132.403 77.573 132.503C77.7071 132.596 77.8948 132.572 78.1362 132.432C78.3775 132.292 78.6088 132.022 78.8301 131.622L79.2927 132.272C78.8971 132.913 78.458 133.373 77.9753 133.653C77.4992 133.93 77.0903 133.977 76.7483 133.796C76.4131 133.603 76.2455 133.181 76.2455 132.529V129.425L75.5717 129.816V128.769L76.2455 128.378V126.436L77.3719 125.782V127.724L78.7798 126.907V127.953L77.3719 128.771ZM85.3968 126.147C85.3968 126.17 85.3867 126.339 85.3666 126.653L81.2735 129.029C81.3473 129.374 81.5216 129.579 81.7965 129.644C82.0714 129.709 82.4133 129.623 82.8223 129.386C83.1039 129.222 83.3519 129.032 83.5665 128.814C83.7877 128.585 83.9922 128.311 84.1799 127.993L85.0147 128.555C84.5051 129.525 83.7609 130.295 82.7821 130.863C82.1719 131.217 81.6322 131.395 81.1629 131.396C80.6936 131.389 80.3316 131.216 80.0768 130.875C79.822 130.535 79.6946 130.054 79.6946 129.434C79.6946 128.822 79.8187 128.199 80.0667 127.567C80.3215 126.923 80.6668 126.339 81.1026 125.814C81.5451 125.278 82.0379 124.853 82.5809 124.537C83.1106 124.23 83.5899 124.083 84.019 124.098C84.4481 124.112 84.7833 124.298 85.0247 124.654C85.2728 124.998 85.3968 125.496 85.3968 126.147ZM82.591 125.904C82.2356 126.11 81.9373 126.399 81.6959 126.772C81.4546 127.145 81.3071 127.548 81.2534 127.983L83.9185 126.435C83.8648 126.071 83.7173 125.843 83.476 125.75C83.2346 125.65 82.9396 125.701 82.591 125.904ZM87.9397 122.345C88.1275 121.934 88.3789 121.559 88.694 121.221C89.0158 120.879 89.3846 120.588 89.8002 120.346V122.021C89.6259 122.107 89.5086 122.167 89.4482 122.202C88.999 122.463 88.6471 122.814 88.3923 123.257C88.1375 123.692 88.0101 124.2 88.0101 124.781V127.735L86.4413 128.645V122.389L87.9397 121.519V122.345Z" fill="#018CCA"/>
<path d="M157.804 38.575C157.828 38.9951 157.95 39.4034 158.162 39.7662C158.373 40.1291 158.666 40.436 159.018 40.6617C159.691 41.044 160.232 40.7307 160.232 39.9661C160.208 39.546 160.085 39.1377 159.874 38.7749C159.663 38.412 159.369 38.1051 159.018 37.8794C158.35 37.4971 157.804 37.8051 157.804 38.575Z" fill="#455A64"/>
<path d="M141.524 43.5183C140.456 43.4824 139.414 43.1678 138.502 42.6051L134.649 40.4015C134.617 40.3856 134.588 40.3632 134.565 40.3357C134.542 40.3083 134.524 40.2763 134.514 40.2419C134.503 40.2074 134.5 40.1711 134.504 40.1352C134.507 40.0993 134.518 40.0646 134.536 40.0332C134.554 40.0017 134.577 39.9742 134.606 39.9523C134.634 39.9304 134.667 39.9146 134.701 39.9059C134.736 39.8971 134.772 39.8956 134.807 39.9014C134.843 39.9072 134.876 39.9202 134.906 39.9396L138.759 42.1431C140.426 43.0936 141.966 43.2475 143.106 42.5785C144.247 41.9095 144.841 40.5343 144.841 38.6706C144.841 36.6157 145.551 35.0653 146.833 34.306C148.116 33.5467 149.877 33.6901 151.706 34.7361L157.935 38.2989C157.994 38.3345 158.038 38.3919 158.057 38.4592C158.075 38.5264 158.067 38.5984 158.035 38.66C158 38.7211 157.944 38.7661 157.877 38.785C157.81 38.8039 157.738 38.7952 157.677 38.7608L151.448 35.2246C149.787 34.2742 148.242 34.1202 147.101 34.7945C145.961 35.4688 145.367 36.8387 145.367 38.6971C145.367 40.7573 144.657 42.3077 143.374 43.0617C142.809 43.3772 142.17 43.5348 141.524 43.5183Z" fill="#455A64"/>
<path d="M133.056 39.2122C133.075 39.5517 133.174 39.8818 133.345 40.1747C133.516 40.4676 133.754 40.7147 134.039 40.8953C134.565 41.2086 135.022 40.9537 135.022 40.3325C135.004 39.9929 134.905 39.6628 134.734 39.3699C134.563 39.077 134.324 38.8299 134.039 38.6493C133.498 38.3361 133.056 38.5909 133.056 39.2122Z" fill="#455A64"/>
<path d="M195.23 33.568L169.473 18.8389C169.203 18.6383 168.876 18.5302 168.54 18.5302C168.204 18.5302 167.878 18.6383 167.607 18.8389L165.378 20.3893L166.897 22.2849V49.6988C166.897 51.6156 168.054 53.8404 169.473 54.674L194.583 69.0101L194.699 71.0491L197.043 69.4243C197.313 69.1698 197.522 68.856 197.653 68.5071C197.785 68.1582 197.835 67.7835 197.8 67.4119V38.5431C197.811 36.6263 196.654 34.4016 195.23 33.568Z" fill="#018CCA"/>
<path opacity="0.3" d="M195.23 33.568L169.473 18.8389C169.203 18.6383 168.876 18.5302 168.54 18.5302C168.204 18.5302 167.878 18.6383 167.607 18.8389L165.378 20.3893L166.897 22.2849V49.6988C166.897 51.6156 168.054 53.8404 169.473 54.674L194.583 69.0101L194.699 71.0491L197.043 69.4243C197.313 69.1698 197.522 68.856 197.653 68.5071C197.785 68.1582 197.835 67.7835 197.8 67.4119V38.5431C197.811 36.6263 196.654 34.4016 195.23 33.568Z" fill="black"/>
<path d="M193.042 70.9216L167.286 56.1925C165.861 55.3642 164.71 53.1341 164.71 51.2173V22.3326C164.71 20.4105 165.861 19.5291 167.286 20.3627L193.042 35.0918C194.467 35.9201 195.618 38.1502 195.618 40.067V68.957C195.618 70.8738 194.467 71.7552 193.042 70.9216Z" fill="#018CCA"/>
<path d="M187.634 45.9236C187.575 45.9245 187.518 45.9056 187.472 45.87C187.425 45.8344 187.391 45.7842 187.376 45.7272C186.827 43.6786 185.979 41.7243 184.858 39.929C184.821 39.8698 184.808 39.798 184.823 39.7293C184.838 39.6606 184.879 39.6007 184.937 39.5626C184.966 39.5433 184.999 39.5302 185.033 39.5241C185.068 39.5179 185.103 39.5189 185.137 39.5268C185.17 39.5347 185.202 39.5495 185.231 39.5703C185.259 39.591 185.282 39.6173 185.3 39.6476C186.45 41.4868 187.322 43.4895 187.886 45.5891C187.903 45.6573 187.893 45.7293 187.859 45.7905C187.825 45.8517 187.769 45.8974 187.702 45.9183L187.634 45.9236Z" fill="white"/>
<path d="M188.223 51.3236C188.153 51.3181 188.087 51.285 188.041 51.2314C187.995 51.1777 187.971 51.1078 187.976 51.0368C187.976 50.7554 188.007 50.4581 188.007 50.1554C188.005 49.2477 187.925 48.3417 187.771 47.4475C187.759 47.3771 187.775 47.3048 187.816 47.2466C187.857 47.1883 187.919 47.1489 187.989 47.1369C188.059 47.1249 188.13 47.1414 188.188 47.1827C188.245 47.2241 188.285 47.2868 188.296 47.3572C188.457 48.2812 188.54 49.2173 188.543 50.1554C188.543 50.4687 188.543 50.7767 188.512 51.074C188.509 51.1096 188.5 51.1443 188.484 51.1762C188.468 51.208 188.446 51.2363 188.419 51.2595C188.392 51.2827 188.361 51.3003 188.327 51.3113C188.293 51.3223 188.258 51.3265 188.223 51.3236Z" fill="white"/>
<path d="M172.143 42.5095C172.078 42.5097 172.016 42.4852 171.968 42.4409C171.92 42.3967 171.891 42.3358 171.885 42.2706C171.843 41.8086 171.822 41.3467 171.822 40.9007C171.822 38.3255 172.511 36.2016 173.762 34.9113C173.786 34.8866 173.815 34.867 173.846 34.8536C173.878 34.8401 173.912 34.8332 173.946 34.8332C173.98 34.8332 174.014 34.8401 174.046 34.8536C174.077 34.867 174.106 34.8866 174.13 34.9113C174.155 34.936 174.174 34.9654 174.188 34.9977C174.201 35.0301 174.208 35.0648 174.208 35.0998C174.208 35.1349 174.201 35.1696 174.188 35.2019C174.174 35.2343 174.155 35.2636 174.13 35.2883C172.979 36.4777 172.343 38.4741 172.343 40.906C172.343 41.336 172.343 41.7821 172.401 42.2281C172.404 42.2627 172.401 42.2977 172.391 42.331C172.381 42.3643 172.364 42.3952 172.342 42.4219C172.32 42.4487 172.293 42.4707 172.262 42.4866C172.232 42.5026 172.198 42.5121 172.164 42.5148L172.143 42.5095Z" fill="white"/>
<path d="M183.77 38.214C183.731 38.2144 183.692 38.2061 183.657 38.1895C183.621 38.173 183.59 38.1487 183.565 38.1184C182.591 36.8657 181.395 35.807 180.038 34.9963C178.293 33.9981 176.653 33.8069 175.307 34.4653C175.244 34.4944 175.173 34.4973 175.108 34.4735C175.043 34.4496 174.99 34.4009 174.96 34.3379C174.945 34.3062 174.936 34.2718 174.935 34.2367C174.933 34.2016 174.938 34.1665 174.95 34.1334C174.961 34.1003 174.98 34.0699 175.003 34.0439C175.027 34.0179 175.055 33.997 175.086 33.9821C176.6 33.276 178.403 33.4512 180.306 34.5609C181.72 35.406 182.968 36.5077 183.986 37.8104C184.029 37.8648 184.05 37.9343 184.043 38.0039C184.036 38.0735 184.002 38.1375 183.949 38.1821C183.895 38.2138 183.831 38.2251 183.77 38.214Z" fill="white"/>
<path d="M173.956 42.7165C173.888 42.7166 173.823 42.6901 173.774 42.6426C173.725 42.5951 173.696 42.5302 173.693 42.4617C173.693 42.2971 173.693 42.1325 173.693 41.9679C173.693 40.0829 174.151 38.5431 175.018 37.5184C175.04 37.4914 175.067 37.4692 175.097 37.453C175.128 37.4368 175.161 37.4269 175.195 37.4239C175.23 37.421 175.264 37.425 175.297 37.4357C175.33 37.4465 175.36 37.4637 175.386 37.4865C175.439 37.5327 175.472 37.5981 175.478 37.6685C175.484 37.7389 175.462 37.8089 175.418 37.8635C174.634 38.7927 174.219 40.2104 174.219 41.9679C174.219 42.1219 174.219 42.2811 174.219 42.4351C174.221 42.47 174.215 42.5048 174.203 42.5376C174.191 42.5703 174.173 42.6004 174.15 42.626C174.126 42.6517 174.098 42.6724 174.067 42.687C174.035 42.7016 174.001 42.7099 173.967 42.7112L173.956 42.7165Z" fill="white"/>
<path d="M175.996 37.2476C175.938 37.2482 175.882 37.2295 175.836 37.1944C175.789 37.1593 175.756 37.1098 175.74 37.0536C175.725 36.9974 175.728 36.9375 175.75 36.8833C175.771 36.8291 175.81 36.7836 175.859 36.7538C176.533 36.3493 177.322 36.1847 178.099 36.2865C178.168 36.2933 178.231 36.3271 178.275 36.3808C178.32 36.4345 178.341 36.5036 178.335 36.5733C178.327 36.6432 178.293 36.7073 178.239 36.752C178.185 36.7966 178.116 36.8182 178.046 36.8122C177.384 36.7325 176.714 36.8782 176.143 37.2263C176.097 37.246 176.046 37.2533 175.996 37.2476Z" fill="white"/>
<path d="M187.634 54.7377C187.581 54.7378 187.529 54.7222 187.486 54.693C187.442 54.6637 187.407 54.622 187.387 54.5731L187.082 53.8032C186.471 52.3144 186.148 50.721 186.13 49.1094C186.13 44.6068 183.397 39.398 180.038 37.4759C180.008 37.4588 179.982 37.4359 179.96 37.4083C179.939 37.3808 179.924 37.3493 179.915 37.3156C179.906 37.2819 179.904 37.2468 179.909 37.2123C179.914 37.1778 179.926 37.1447 179.943 37.1148C179.96 37.084 179.982 37.0569 180.009 37.035C180.036 37.0131 180.067 36.997 180.101 36.9876C180.134 36.9782 180.169 36.9757 180.204 36.9802C180.238 36.9847 180.271 36.9962 180.301 37.014C183.802 39.021 186.656 44.4475 186.656 49.0882C186.669 50.6382 186.98 52.1708 187.57 53.6014L187.875 54.3713C187.889 54.4033 187.896 54.4378 187.896 54.4726C187.897 54.5075 187.89 54.5421 187.877 54.5742C187.864 54.6064 187.844 54.6356 187.819 54.66C187.795 54.6845 187.766 54.7037 187.733 54.7165C187.702 54.7306 187.668 54.7379 187.634 54.7377Z" fill="white"/>
<path d="M175.565 51.6846C175.511 51.6846 175.458 51.6678 175.414 51.6364C175.37 51.6051 175.336 51.5607 175.318 51.5094C174.469 49.0005 173.92 46.3979 173.683 43.7573C173.68 43.722 173.684 43.6864 173.695 43.6528C173.706 43.6191 173.724 43.588 173.747 43.5613C173.77 43.5346 173.798 43.5128 173.829 43.4972C173.861 43.4816 173.895 43.4725 173.93 43.4705C173.999 43.4689 174.066 43.4937 174.118 43.54C174.17 43.5863 174.202 43.6506 174.209 43.7201C174.433 46.3107 174.962 48.865 175.786 51.3289C175.798 51.3616 175.804 51.3965 175.803 51.4315C175.801 51.4666 175.793 51.501 175.778 51.5327C175.764 51.5645 175.743 51.5929 175.717 51.6162C175.691 51.6396 175.661 51.6574 175.628 51.6687C175.608 51.6768 175.586 51.6821 175.565 51.6846Z" fill="white"/>
<path d="M186.089 56.527C186.035 56.5282 185.982 56.5124 185.938 56.482C185.894 56.4515 185.86 56.4079 185.841 56.3571L185.137 54.4456C184.427 52.58 184.044 50.6035 184.007 48.605V46.5183C184.007 44.0387 182.246 41.0174 180.08 39.7803C179.071 39.2015 178.135 39.1006 177.452 39.5042C176.769 39.9077 176.401 40.7413 176.401 41.8723V43.7201C176.458 46.7217 177.053 49.6881 178.157 52.4758L179.024 54.7589C179.037 54.7917 179.043 54.8266 179.042 54.8618C179.041 54.8969 179.033 54.9316 179.019 54.9637C179.005 54.9958 178.985 55.0247 178.959 55.0488C178.934 55.0729 178.904 55.0917 178.871 55.1041C178.807 55.1282 178.735 55.1256 178.672 55.0968C178.609 55.068 178.56 55.0153 178.535 54.9501L177.668 52.6669C176.547 49.8169 175.946 46.786 175.891 43.7201V41.8776C175.891 40.5502 176.348 39.5467 177.189 39.0529C178.03 38.5591 179.161 38.6493 180.343 39.3237C182.651 40.6458 184.548 43.8741 184.548 46.5236V48.6103C184.585 50.5456 184.957 52.4595 185.647 54.2651L186.346 56.1713C186.359 56.2037 186.365 56.2383 186.364 56.273C186.363 56.3078 186.355 56.3421 186.341 56.3737C186.327 56.4054 186.306 56.4339 186.281 56.4575C186.256 56.4811 186.226 56.4993 186.194 56.5111L186.089 56.527Z" fill="white"/>
<path d="M183.77 57.2863C183.714 57.2867 183.659 57.2688 183.614 57.2354C183.569 57.2019 183.535 57.1546 183.518 57.1005L183.15 55.8474C182.48 53.648 182.126 51.3627 182.099 49.0616V45.844C182.058 45.1151 181.846 44.4065 181.481 43.7768C181.115 43.1471 180.606 42.6144 179.996 42.2227C179.806 42.082 179.583 41.9942 179.348 41.9681C179.114 41.942 178.877 41.9785 178.661 42.0741C178.477 42.2095 178.331 42.3918 178.238 42.6026C178.146 42.8133 178.111 43.045 178.136 43.2741C178.136 46.8634 179.218 50.9997 181.179 54.9235L181.92 56.4049C181.936 56.4363 181.945 56.4705 181.947 56.5055C181.95 56.5404 181.946 56.5756 181.935 56.6089C181.924 56.6421 181.906 56.6729 181.883 56.6994C181.861 56.7259 181.833 56.7476 181.802 56.7633C181.771 56.779 181.737 56.7884 181.702 56.7909C181.668 56.7933 181.633 56.7889 181.6 56.7778C181.567 56.7667 181.537 56.7492 181.51 56.7262C181.484 56.7032 181.463 56.6752 181.447 56.6439L180.711 55.1625C178.709 51.1643 177.61 46.9431 177.61 43.2741C177.58 42.9521 177.637 42.6279 177.774 42.3356C177.911 42.0432 178.123 41.7934 178.388 41.6121C178.682 41.4686 179.01 41.4067 179.336 41.4328C179.662 41.4589 179.975 41.5721 180.243 41.7608C180.933 42.2017 181.508 42.802 181.922 43.512C182.336 44.222 182.577 45.0213 182.625 45.844V49.0722C182.648 51.3229 182.994 53.5583 183.65 55.7094L184.018 56.9571C184.028 56.9906 184.032 57.0258 184.028 57.0607C184.025 57.0956 184.014 57.1295 183.998 57.1602C183.981 57.191 183.958 57.218 183.931 57.2397C183.904 57.2613 183.872 57.2772 183.839 57.2863C183.816 57.2908 183.793 57.2908 183.77 57.2863Z" fill="white"/>
<path d="M180.822 51.6846C180.762 51.684 180.704 51.6632 180.658 51.6257C180.611 51.5882 180.578 51.5361 180.564 51.4776L180.322 50.3413C180.091 49.2487 179.975 48.1346 179.975 47.0174V44.0281C179.975 43.9576 180.003 43.8901 180.052 43.8403C180.101 43.7905 180.168 43.7626 180.238 43.7626C180.308 43.7626 180.375 43.7905 180.424 43.8403C180.473 43.8901 180.501 43.9576 180.501 44.0281V47.0174C180.504 48.0882 180.617 49.1558 180.837 50.2032L181.079 51.3395C181.087 51.3733 181.088 51.4084 181.082 51.4426C181.076 51.4768 181.063 51.5095 181.045 51.5387C181.026 51.5679 181.002 51.593 180.973 51.6126C180.945 51.6322 180.913 51.6459 180.879 51.6528L180.822 51.6846Z" fill="white"/>
<path d="M172.716 45.9236C172.651 45.9228 172.589 45.8981 172.54 45.8541C172.492 45.8102 172.461 45.7499 172.453 45.6847L172.301 44.1342C172.295 44.0641 172.316 43.9943 172.361 43.9398C172.405 43.8852 172.468 43.8502 172.537 43.8422C172.572 43.8378 172.607 43.8405 172.641 43.8503C172.674 43.8601 172.706 43.8766 172.733 43.899C172.76 43.9213 172.782 43.949 172.798 43.9803C172.814 44.0116 172.824 44.0459 172.827 44.0811L172.979 45.6316C172.983 45.6665 172.979 45.7018 172.969 45.7354C172.959 45.769 172.943 45.8003 172.921 45.8274C172.899 45.8546 172.872 45.8771 172.841 45.8936C172.811 45.9101 172.777 45.9203 172.742 45.9236H172.716Z" fill="white"/>
<path d="M195.23 82.7676L169.473 68.0332C169.203 67.8326 168.876 67.7245 168.54 67.7245C168.204 67.7245 167.878 67.8326 167.607 68.0332L165.378 69.5836L166.897 71.4792V98.8931C166.897 100.81 168.054 103.035 169.473 103.868L194.583 118.204L194.699 120.243L197.043 118.624C197.314 118.368 197.522 118.054 197.654 117.704C197.785 117.354 197.835 116.979 197.8 116.606V87.7215C197.811 85.8207 196.654 83.5959 195.23 82.7676Z" fill="#018CCA"/>
<path opacity="0.3" d="M195.23 82.7676L169.473 68.0332C169.203 67.8326 168.876 67.7245 168.54 67.7245C168.204 67.7245 167.878 67.8326 167.607 68.0332L165.378 69.5836L166.897 71.4792V98.8931C166.897 100.81 168.054 103.035 169.473 103.868L194.583 118.204L194.699 120.243L197.043 118.624C197.314 118.368 197.522 118.054 197.654 117.704C197.785 117.354 197.835 116.979 197.8 116.606V87.7215C197.811 85.8207 196.654 83.5959 195.23 82.7676Z" fill="black"/>
<path d="M193.043 120.116L167.286 105.387C165.862 104.559 164.711 102.334 164.711 100.412V71.527C164.711 69.6102 165.862 68.7288 167.286 69.5571L193.043 84.2862C194.467 85.1198 195.619 87.3446 195.619 89.2613V118.151C195.619 120.068 194.467 120.95 193.043 120.116Z" fill="#018CCA"/>
<path d="M170.451 79.5871C170.381 79.5871 170.314 79.5591 170.265 79.5094C170.216 79.4596 170.188 79.392 170.188 79.3216V77.5323C170.187 77.3545 170.232 77.1797 170.32 77.0256C170.408 76.8716 170.534 76.7441 170.687 76.6562C170.846 76.5597 171.028 76.5088 171.213 76.5088C171.398 76.5088 171.58 76.5597 171.739 76.6562L173.594 77.7181C173.656 77.7526 173.701 77.8103 173.72 77.8785C173.739 77.9467 173.731 78.0199 173.697 78.0818C173.663 78.1438 173.605 78.1895 173.538 78.2089C173.47 78.2283 173.398 78.2199 173.337 78.1854L171.476 77.1234C171.396 77.0768 171.305 77.0523 171.213 77.0523C171.121 77.0523 171.03 77.0768 170.95 77.1234C170.878 77.1645 170.817 77.2247 170.776 77.2976C170.734 77.3705 170.713 77.4534 170.714 77.5376V79.3269C170.712 79.3964 170.684 79.4626 170.635 79.5112C170.586 79.5599 170.52 79.5871 170.451 79.5871Z" fill="white"/>
<path d="M173.437 104.208C173.393 104.208 173.35 104.197 173.311 104.176L171.576 103.183C171.161 102.942 170.817 102.595 170.578 102.176C170.339 101.758 170.214 101.283 170.214 100.799V99.148C170.214 99.0776 170.242 99.0101 170.291 98.9603C170.341 98.9105 170.408 98.8825 170.477 98.8825C170.547 98.8825 170.614 98.9105 170.663 98.9603C170.712 99.0101 170.74 99.0776 170.74 99.148V100.799C170.742 101.191 170.846 101.575 171.043 101.913C171.24 102.251 171.521 102.53 171.86 102.721L173.594 103.714C173.644 103.744 173.682 103.789 173.704 103.843C173.725 103.896 173.729 103.956 173.714 104.012C173.699 104.068 173.667 104.117 173.621 104.153C173.576 104.188 173.52 104.208 173.463 104.208H173.437Z" fill="white"/>
<path d="M189.138 113.081C188.953 113.084 188.771 113.036 188.612 112.943L186.757 111.881C186.696 111.846 186.651 111.789 186.633 111.721C186.614 111.653 186.623 111.581 186.657 111.52C186.692 111.459 186.749 111.415 186.815 111.397C186.882 111.378 186.953 111.386 187.014 111.419L188.875 112.481C188.955 112.527 189.045 112.552 189.138 112.552C189.23 112.552 189.321 112.527 189.401 112.481C189.473 112.44 189.534 112.379 189.575 112.306C189.617 112.234 189.638 112.151 189.637 112.066V110.277C189.637 110.207 189.665 110.139 189.714 110.089C189.763 110.04 189.83 110.012 189.9 110.012C189.97 110.012 190.036 110.04 190.086 110.089C190.135 110.139 190.163 110.207 190.163 110.277V112.066C190.164 112.243 190.118 112.417 190.03 112.571C189.943 112.724 189.816 112.85 189.663 112.937C189.504 113.033 189.323 113.082 189.138 113.081Z" fill="white"/>
<path d="M189.889 90.7109C189.819 90.7109 189.753 90.6829 189.703 90.6331C189.654 90.5834 189.626 90.5158 189.626 90.4454V88.7941C189.625 88.403 189.52 88.0193 189.324 87.6824C189.127 87.3456 188.845 87.0677 188.507 86.8773L186.772 85.8844C186.711 85.8488 186.666 85.7904 186.648 85.7219C186.629 85.6533 186.638 85.5801 186.672 85.518C186.689 85.4877 186.712 85.461 186.739 85.4397C186.766 85.4183 186.798 85.4028 186.831 85.3939C186.864 85.3849 186.899 85.3829 186.933 85.3878C186.967 85.3927 187 85.4045 187.03 85.4225L188.764 86.4154C189.183 86.6527 189.532 86.9978 189.776 87.4157C190.019 87.8335 190.149 88.3091 190.152 88.7941V90.4454C190.152 90.5158 190.124 90.5834 190.075 90.6331C190.026 90.6829 189.959 90.7109 189.889 90.7109Z" fill="white"/>
<path d="M172.779 88.518C172.838 91.533 173.265 94.5292 174.051 97.4383C176.049 105.052 183.928 109.73 186.094 104.575C187.111 102.038 187.61 99.3198 187.56 96.5834C187.56 91.9109 184.249 86.2295 180.17 83.8933C175.996 81.5092 172.721 83.7234 172.779 88.518Z" fill="white"/>
<path d="M179.907 92.7711V97.7728L177.757 96.148L179.907 92.7711Z" fill="#E0E0E0"/>
<path d="M175.907 89.7817C175.921 90.0269 175.992 90.2652 176.115 90.4774C176.237 90.6896 176.407 90.8697 176.612 91.0029C177.006 91.2259 177.321 91.0454 177.321 90.5941C177.307 90.3489 177.236 90.1107 177.112 89.8992C176.989 89.6876 176.817 89.509 176.612 89.3782C176.223 89.1552 175.907 89.3357 175.907 89.7817Z" fill="#E0E0E0"/>
<path d="M182.488 93.594C182.503 93.8389 182.575 94.0767 182.698 94.288C182.822 94.4993 182.993 94.6781 183.197 94.81C183.592 95.033 183.907 94.8524 183.907 94.4064C183.893 94.1606 183.822 93.9216 183.698 93.7092C183.575 93.4968 183.403 93.3172 183.197 93.1852C182.829 92.9622 182.488 93.1427 182.488 93.594Z" fill="#E0E0E0"/>
<path d="M179.197 100.221L181.599 99.8117C181.599 99.8117 181.09 102.403 179.197 100.221Z" fill="#E0E0E0"/>
<path d="M157.804 84.9871C157.829 85.4063 157.952 85.8135 158.163 86.1753C158.374 86.5372 158.667 86.8433 159.018 87.0684C159.691 87.4561 160.232 87.1428 160.232 86.3782C160.208 85.958 160.085 85.5497 159.874 85.1869C159.663 84.8241 159.369 84.5172 159.018 84.2915C158.35 83.9039 157.804 84.2171 157.804 84.9871Z" fill="#455A64"/>
<path d="M157.851 85.5658C157.806 85.5654 157.761 85.5545 157.72 85.5339L151.496 81.9499C147.853 79.8685 144.889 74.7765 144.889 70.6084C144.889 66.6049 142.045 61.7253 138.55 59.7235L134.649 57.4935C134.589 57.4589 134.544 57.4015 134.525 57.3338C134.507 57.2661 134.515 57.1937 134.549 57.1324C134.566 57.1016 134.588 57.0744 134.615 57.0526C134.642 57.0307 134.673 57.0146 134.707 57.0052C134.74 56.9958 134.775 56.9932 134.81 56.9978C134.844 57.0023 134.877 57.0138 134.907 57.0315L138.807 59.2616C142.45 61.3483 145.414 66.435 145.414 70.6084C145.414 74.6066 148.258 79.4862 151.754 81.488L157.983 85.0561C158.043 85.0907 158.088 85.1481 158.106 85.2158C158.125 85.2834 158.117 85.3559 158.083 85.4171C158.06 85.4603 158.027 85.4968 157.987 85.5229C157.946 85.549 157.899 85.5638 157.851 85.5658Z" fill="#455A64"/>
<path d="M133.057 56.2191C133.077 56.559 133.176 56.8892 133.347 57.1827C133.518 57.4761 133.755 57.7246 134.04 57.9076C134.565 58.2156 135.023 57.966 135.023 57.3448C135.002 57.0049 134.903 56.6747 134.732 56.3813C134.561 56.0878 134.324 55.8393 134.04 55.6563C133.498 55.3483 133.057 55.5979 133.057 56.2191Z" fill="#455A64"/>
<path d="M140.452 104.888C140.452 104.888 144.284 104.628 146.455 110.006C147.806 113.351 149.451 118.502 150.502 121.953C150.821 122.995 150.829 124.109 150.524 125.156C150.219 126.202 149.616 127.135 148.789 127.836L142.108 133.502L139.727 129.111C141.115 127.239 142.642 125.476 144.294 123.838L139.727 110.006L140.452 104.888Z" fill="#FFA8A7"/>
<path d="M142.218 121.316C142.218 121.316 148.305 122.128 149.824 117.387C149.824 117.387 147.196 110.447 146.019 108.143C144.841 105.838 142.381 104.16 140.452 104.888C138.523 105.615 142.218 121.316 142.218 121.316Z" fill="#018CCA"/>
<path opacity="0.4" d="M142.218 121.316C142.218 121.316 148.305 122.128 149.824 117.387C149.824 117.387 147.196 110.447 146.019 108.143C144.841 105.838 142.381 104.16 140.452 104.888C138.523 105.615 142.218 121.316 142.218 121.316Z" fill="white"/>
<path d="M138.15 183.577C138.15 183.577 135.259 181.076 134.134 180.96C133.009 180.843 131.064 182.786 132.71 186.158C133.167 187.098 135.028 188.112 136.189 189.912C137.351 191.712 138.392 193.066 140.174 192.816C141.956 192.567 142.187 191.558 142.071 190.384C141.921 189.311 141.708 188.247 141.435 187.199L138.15 183.577Z" fill="#37474F"/>
<path d="M140.253 192.28C138.418 192.535 137.341 191.138 136.142 189.285C134.944 187.432 133.03 186.381 132.557 185.414C132.368 185.027 132.213 184.624 132.095 184.209C132.182 184.889 132.385 185.548 132.694 186.158C133.151 187.098 135.012 188.112 136.174 189.912C137.335 191.712 138.376 193.066 140.158 192.816C141.525 192.63 141.977 191.988 142.061 191.17C141.83 191.722 141.33 192.137 140.253 192.28Z" fill="#263238"/>
<path d="M136.615 186.795C136.569 186.796 136.523 186.783 136.484 186.758C136.451 186.741 136.422 186.717 136.399 186.688C136.375 186.66 136.358 186.627 136.347 186.591C136.336 186.555 136.332 186.518 136.336 186.481C136.34 186.444 136.35 186.408 136.368 186.376C136.956 185.323 137.933 184.548 139.086 184.22C139.156 184.209 139.229 184.225 139.288 184.266C139.347 184.307 139.389 184.369 139.405 184.439C139.421 184.51 139.41 184.584 139.374 184.647C139.338 184.709 139.28 184.756 139.212 184.777C138.22 185.07 137.378 185.737 136.862 186.641C136.838 186.687 136.803 186.725 136.759 186.752C136.716 186.779 136.666 186.794 136.615 186.795Z" fill="#EBEBEB"/>
<path d="M135.522 185.786C135.476 185.786 135.431 185.775 135.391 185.754C135.358 185.737 135.329 185.713 135.306 185.685C135.282 185.656 135.265 185.623 135.254 185.587C135.243 185.552 135.239 185.515 135.243 185.478C135.247 185.441 135.257 185.405 135.275 185.372C135.566 184.849 135.956 184.39 136.424 184.02C136.891 183.65 137.426 183.377 137.998 183.216C138.035 183.196 138.077 183.186 138.12 183.185C138.162 183.184 138.204 183.192 138.243 183.21C138.282 183.228 138.316 183.255 138.343 183.289C138.369 183.322 138.388 183.361 138.398 183.403C138.407 183.445 138.407 183.488 138.398 183.53C138.388 183.572 138.369 183.611 138.342 183.644C138.315 183.677 138.281 183.704 138.242 183.722C138.203 183.74 138.161 183.748 138.119 183.747C137.127 184.043 136.286 184.712 135.769 185.616C135.749 185.666 135.714 185.708 135.671 185.738C135.627 185.769 135.575 185.785 135.522 185.786Z" fill="#EBEBEB"/>
<path d="M134.297 184.783C134.252 184.782 134.207 184.771 134.166 184.751C134.1 184.715 134.05 184.654 134.029 184.581C134.007 184.508 134.015 184.43 134.05 184.363C134.64 183.311 135.619 182.537 136.773 182.213C136.809 182.204 136.846 182.203 136.883 182.209C136.919 182.215 136.954 182.228 136.985 182.248C137.016 182.268 137.044 182.293 137.065 182.324C137.086 182.354 137.101 182.389 137.109 182.425C137.125 182.499 137.111 182.576 137.071 182.64C137.03 182.703 136.967 182.748 136.894 182.765C135.902 183.061 135.061 183.73 134.544 184.634C134.521 184.68 134.485 184.718 134.442 184.744C134.398 184.77 134.348 184.784 134.297 184.783Z" fill="#EBEBEB"/>
<path d="M122.764 191.781C122.764 191.781 118.89 190.512 117.734 190.862C116.577 191.213 115.447 193.942 118.443 196.591C119.274 197.324 121.524 197.558 123.406 198.853C125.287 200.149 126.864 201.046 128.525 200.064C130.186 199.082 130.05 197.94 129.75 196.729C129.377 195.168 129.072 194.032 129.072 194.032L122.764 191.781Z" fill="#37474F"/>
<path d="M128.399 199.496C126.691 200.51 125.056 199.581 123.143 198.243C121.23 196.905 118.885 196.65 118.028 195.912C117.682 195.607 117.363 195.271 117.077 194.908C117.44 195.546 117.909 196.115 118.465 196.591C119.295 197.324 121.545 197.558 123.427 198.853C125.308 200.149 126.885 201.046 128.546 200.064C129.813 199.315 130.003 198.471 129.755 197.648C129.74 198.29 129.382 198.912 128.399 199.496Z" fill="#263238"/>
<path d="M121.855 195.397H121.829C121.754 195.389 121.686 195.351 121.638 195.293C121.591 195.234 121.569 195.159 121.576 195.083C121.729 193.805 122.377 192.64 123.379 191.845C123.409 191.823 123.442 191.807 123.478 191.799C123.514 191.79 123.551 191.789 123.587 191.795C123.623 191.801 123.657 191.814 123.689 191.833C123.72 191.853 123.747 191.878 123.768 191.908C123.812 191.97 123.829 192.046 123.818 192.12C123.806 192.195 123.765 192.262 123.705 192.306C122.839 193.012 122.274 194.027 122.128 195.142C122.122 195.211 122.09 195.275 122.04 195.322C121.989 195.369 121.923 195.396 121.855 195.397Z" fill="#EBEBEB"/>
<path d="M123.432 195.922C123.358 195.914 123.291 195.878 123.244 195.82C123.197 195.763 123.173 195.689 123.179 195.614C123.334 194.335 123.982 193.169 124.982 192.37C125.044 192.327 125.12 192.31 125.194 192.323C125.267 192.336 125.333 192.377 125.377 192.439C125.398 192.47 125.413 192.504 125.421 192.54C125.429 192.576 125.43 192.614 125.423 192.65C125.417 192.687 125.403 192.721 125.384 192.753C125.364 192.784 125.338 192.811 125.308 192.832C124.44 193.536 123.875 194.552 123.731 195.668C123.725 195.741 123.689 195.809 123.633 195.857C123.577 195.905 123.505 195.928 123.432 195.922Z" fill="#EBEBEB"/>
<path d="M120.362 194.85H120.336C120.263 194.842 120.195 194.805 120.148 194.748C120.101 194.69 120.078 194.616 120.084 194.542C120.235 193.262 120.884 192.095 121.887 191.298C121.947 191.254 122.023 191.236 122.096 191.249C122.169 191.261 122.235 191.303 122.278 191.364C122.321 191.425 122.339 191.501 122.326 191.576C122.314 191.65 122.273 191.716 122.213 191.76C121.344 192.463 120.779 193.48 120.636 194.595C120.629 194.664 120.598 194.728 120.547 194.775C120.497 194.822 120.431 194.849 120.362 194.85Z" fill="#EBEBEB"/>
<path d="M141.62 184.321C141.966 180.445 142.718 174.37 143.033 171.53C143.458 167.939 143.356 164.306 142.729 160.746C142.568 159.906 142.527 159.048 142.608 158.197C143.37 150.477 143.864 137.962 143.443 135.211L132.715 137.505C132.715 137.505 134.029 155.064 134.607 160.905C135.186 166.746 137.341 184.374 137.341 184.374C137.981 184.788 138.728 185.003 139.488 184.994C140.248 184.985 140.989 184.75 141.62 184.321Z" fill="#455A64"/>
<path d="M140.074 188.308C140.37 188.238 140.647 188.102 140.884 187.909C141.12 187.716 141.311 187.471 141.441 187.193C141.441 186.583 141.509 185.563 141.619 184.321C140.989 184.75 140.248 184.984 139.488 184.994C138.728 185.003 137.981 184.788 137.341 184.374L137.719 187.634C138.035 187.921 138.411 188.131 138.819 188.248C139.227 188.364 139.657 188.385 140.074 188.308Z" fill="#FFA8A7"/>
<path d="M129.55 191.138C129.987 185.266 130.833 173.898 130.943 172.108C131.026 170.134 130.902 168.157 130.575 166.209C130.385 165.156 130.385 164.077 130.575 163.024L135.306 136.592L122.338 136.401L121.492 164.091C121.483 164.445 121.497 164.8 121.534 165.153L124.283 190.963C124.283 190.963 126.964 193.241 129.55 191.138Z" fill="#455A64"/>
<path d="M127.384 195.981C127.788 195.934 128.173 195.786 128.505 195.55C128.837 195.315 129.106 194.999 129.287 194.632L129.55 191.138C126.964 193.262 124.294 190.974 124.294 190.974L124.704 194.839C124.704 194.839 125.303 196.177 127.384 195.981Z" fill="#FFA8A7"/>
<path d="M128.331 106.651L125.271 107.713L121.981 123.434L122.144 137.372C122.144 137.372 124.493 139.268 133.671 139.268C138.823 139.268 142.181 137.303 143.443 135.217L142.618 126.796C142.618 126.796 143.443 118.496 143.443 114.392C143.443 110.288 143.627 106.927 140.452 104.893L137.624 105.132L128.331 106.651Z" fill="#018CCA"/>
<path opacity="0.2" d="M128.331 106.651L125.271 107.713L121.981 123.434L122.144 137.372C122.144 137.372 124.493 139.268 133.671 139.268C138.823 139.268 142.181 137.303 143.443 135.217L142.618 126.796C142.618 126.796 143.443 118.496 143.443 114.392C143.443 110.288 143.627 106.927 140.452 104.893L137.624 105.132L128.331 106.651Z" fill="white"/>
<path d="M125.009 93.1374L123.479 96.2011C123.457 96.2455 123.445 96.2943 123.443 96.344C123.441 96.3936 123.45 96.4431 123.469 96.489C123.488 96.5349 123.517 96.5761 123.553 96.6098C123.589 96.6435 123.632 96.6689 123.679 96.6843L125.492 97.3002L125.009 93.1374Z" fill="#F28F8F"/>
<path d="M127.111 88.0029C127.111 88.0029 124.788 89.2666 124.788 96.4984C124.788 100.486 125.061 103.029 127.111 102.87C129.161 102.711 135.07 101.93 135.07 101.93V88.0029H127.111Z" fill="#FFA8A7"/>
<path d="M127.111 102.897C127.831 102.838 129.03 102.705 130.265 102.557V101.819C129.138 102.305 127.96 102.661 126.754 102.881C126.872 102.895 126.992 102.9 127.111 102.897Z" fill="#F28F8F"/>
<path d="M129.95 101.511V106.061H136.116V99.6683L129.95 101.511Z" fill="#FFA8A7"/>
<path d="M129.95 104.33C129.95 104.33 132.168 105.127 133.945 104.813C135.721 104.5 136.116 103.406 136.116 103.406C136.116 103.406 136.694 103.359 137.624 105.127C137.262 105.787 136.744 106.347 136.115 106.757C135.487 107.166 134.769 107.412 134.024 107.474C132.09 107.599 130.152 107.318 128.331 106.651C128.331 106.651 129.214 104.102 129.95 104.33Z" fill="#018CCA"/>
<path opacity="0.4" d="M129.95 104.33C129.95 104.33 132.168 105.127 133.945 104.813C135.721 104.5 136.116 103.406 136.116 103.406C136.116 103.406 136.694 103.359 137.624 105.127C137.262 105.787 136.744 106.347 136.115 106.757C135.487 107.166 134.769 107.412 134.024 107.474C132.09 107.599 130.152 107.318 128.331 106.651C128.331 106.651 129.214 104.102 129.95 104.33Z" fill="white"/>
<path d="M116.194 117.838L114.538 120.408C114.538 120.408 110.517 118.597 107.704 117.498C106.067 116.884 104.543 115.997 103.194 114.875C103.295 113.769 103.471 112.671 103.72 111.589C104.046 110.474 104.156 109.544 103.194 110.038C102.232 110.532 101.565 112.449 101.507 112.693C101.507 112.693 95.8564 106.953 95.1521 107.081C94.4477 107.208 94.6264 108.068 96.1298 109.836L97.6489 111.61C97.6489 111.61 94.1849 113.622 94.7473 115.82C95.3097 118.019 99.8776 119.006 99.8776 119.006C99.8776 119.006 113.245 129.381 116.204 127.502C119.164 125.622 123.353 120.254 123.353 120.254L116.194 117.838Z" fill="#FFA8A7"/>
<path d="M126.486 107.304C126.486 107.304 128.956 109.353 127.348 113.59C125.739 117.827 121.634 122.946 121.634 122.946C121.634 122.946 117.334 121.592 115.673 118.082L121.098 109.507C121.483 108.897 122.004 108.386 122.621 108.017C123.237 107.648 123.931 107.431 124.646 107.383C125.161 107.351 125.771 107.325 126.486 107.304Z" fill="#018CCA"/>
<path opacity="0.4" d="M126.486 107.304C126.486 107.304 128.956 109.353 127.348 113.59C125.739 117.827 121.634 122.946 121.634 122.946C121.634 122.946 117.334 121.592 115.673 118.082L121.098 109.507C121.483 108.897 122.004 108.386 122.621 108.017C123.237 107.648 123.931 107.431 124.646 107.383C125.161 107.351 125.771 107.325 126.486 107.304Z" fill="white"/>
<path d="M126.244 83.7339C126.244 83.7339 123.805 83.4047 123.185 85.0985C122.796 86.1605 124.036 86.9782 124.036 86.9782C124.036 86.9782 122.459 88.4702 124.809 88.9321C124.768 89.1868 124.791 89.4477 124.875 89.6914C124.958 89.9351 125.101 90.1541 125.289 90.3287C125.477 90.5034 125.704 90.6282 125.952 90.6921C126.199 90.756 126.459 90.757 126.706 90.6949C126.706 90.6949 126.433 92.2878 128.488 92.8666C128.488 92.8666 127.437 95.6595 129.403 95.6967H131.227L130.491 97.8524C130.491 97.8524 131.858 101.176 136.115 101.176C136.583 100.167 137.109 99.1861 137.692 98.24C138.218 97.5763 140.846 94.1728 140.846 91.4755C140.846 88.7781 139.821 87.1799 138.397 86.8242C137.946 85.8331 137.242 84.981 136.357 84.3552C134.922 83.3782 131.905 82.5074 130.202 83.7074C130.202 83.7074 128.693 81.7056 127.647 81.7056C126.601 81.7056 126.244 82.7941 126.244 83.7339Z" fill="#263238"/>
<path d="M129.403 95.6967C129.403 95.6967 129.225 92.8666 131.585 92.8666C133.945 92.8666 133.388 97.8524 130.491 97.8524L129.403 95.6967Z" fill="#FFA8A7"/>
</svg>
