<svg width="40" height="40" viewBox="0 0 40 40" fill="none" xmlns="http://www.w3.org/2000/svg">
<path d="M28.3333 30C26.4833 30 25 31.4833 25 33.3333C25 34.2174 25.3511 35.0652 25.9763 35.6904C26.6014 36.3155 27.4492 36.6667 28.3333 36.6667C29.2173 36.6667 30.0652 36.3155 30.6903 35.6904C31.3154 35.0652 31.6666 34.2174 31.6666 33.3333C31.6666 32.4493 31.3154 31.6014 30.6903 30.9763C30.0652 30.3512 29.2173 30 28.3333 30ZM1.66663 3.33333V6.66666H4.99996L11 19.3167L8.73329 23.4C8.48329 23.8667 8.33329 24.4167 8.33329 25C8.33329 25.8841 8.68448 26.7319 9.3096 27.357C9.93472 27.9821 10.7826 28.3333 11.6666 28.3333H31.6666V25H12.3666C12.2561 25 12.1501 24.9561 12.072 24.878C11.9939 24.7998 11.95 24.6938 11.95 24.5833C11.95 24.5 11.9666 24.4333 12 24.3833L13.5 21.6667H25.9166C27.1666 21.6667 28.2666 20.9667 28.8333 19.95L34.8 9.16666C34.9166 8.9 35 8.61666 35 8.33333C35 7.8913 34.8244 7.46738 34.5118 7.15482C34.1992 6.84226 33.7753 6.66666 33.3333 6.66666H8.68329L7.11663 3.33333H1.66663ZM11.6666 30C9.81663 30 8.33329 31.4833 8.33329 33.3333C8.33329 34.2174 8.68448 35.0652 9.3096 35.6904C9.93472 36.3155 10.7826 36.6667 11.6666 36.6667C12.5507 36.6667 13.3985 36.3155 14.0236 35.6904C14.6488 35.0652 15 34.2174 15 33.3333C15 32.4493 14.6488 31.6014 14.0236 30.9763C13.3985 30.3512 12.5507 30 11.6666 30Z" fill="black"/>
</svg>
