<svg width="272" height="262" viewBox="0 0 272 262" fill="none" xmlns="http://www.w3.org/2000/svg">
<path d="M135.584 262C210.465 262 271.168 226.953 271.168 183.721C271.168 140.488 210.465 105.441 135.584 105.441C60.703 105.441 0 140.488 0 183.721C0 226.953 60.703 262 135.584 262Z" fill="#F0F0F0"/>
<path d="M174.497 247.087C199.632 247.087 220.008 235.323 220.008 220.811C220.008 206.299 199.632 194.535 174.497 194.535C149.362 194.535 128.986 206.299 128.986 220.811C128.986 235.323 149.362 247.087 174.497 247.087Z" fill="#E0E0E0"/>
<path d="M235.593 16.3178L240.434 19.1129C240.409 18.8995 240.395 18.685 240.393 18.4701V17.0726C240.393 14.5724 242.162 13.564 244.302 14.8082C245.242 15.3777 246.047 16.1442 246.661 17.0549C247.015 13.9178 249.48 12.7444 252.469 14.4721C255.701 16.3414 258.325 20.8819 258.325 24.6145V26.7138C258.345 27.5512 258.174 28.3822 257.824 29.1432L261.845 31.4666C262.478 31.877 263.004 32.4313 263.381 33.0841C263.758 33.737 263.976 34.4699 264.015 35.2228C264.015 36.6085 263.048 37.1687 261.845 36.4788L235.593 21.3536C234.961 20.9429 234.435 20.3885 234.057 19.7357C233.68 19.0829 233.463 18.3502 233.423 17.5974C233.423 16.1881 234.39 15.6279 235.593 16.3178Z" fill="#EBEBEB"/>
<path d="M214.872 30.4228L218.528 32.5339C218.509 32.3733 218.499 32.2119 218.498 32.0503V30.9889C218.498 29.1079 219.819 28.3413 221.447 29.2848C222.152 29.714 222.756 30.2915 223.216 30.9771C223.487 28.6184 225.344 27.728 227.597 29.0312C228.885 29.8708 229.957 31.0026 230.726 32.3347C231.494 33.6667 231.938 35.1613 232.019 36.697V38.2773C232.036 38.9094 231.907 39.5369 231.642 40.1112L234.679 41.8802C235.155 42.1928 235.552 42.6128 235.836 43.1064C236.121 43.6 236.286 44.1535 236.318 44.7225C236.318 45.7662 235.581 46.1908 234.679 45.6659L214.872 34.2086C214.397 33.8975 214.002 33.4794 213.718 32.9878C213.434 32.4961 213.27 31.9448 213.238 31.3781C213.238 30.3226 213.969 29.898 214.872 30.4228Z" fill="#EBEBEB"/>
<path d="M34.095 164.238L39.0424 161.407C39.0424 161.407 41.4011 148.322 39.6321 137.077C37.1319 121.268 26.3644 115.814 22.4549 117.382C18.5453 118.951 17.649 123.639 24.7251 132.802C28.8528 138.168 34.2248 149.561 34.095 164.238Z" fill="#37474F"/>
<path d="M35.8876 157.958H35.8405C35.7946 157.952 35.7503 157.937 35.7103 157.914C35.6702 157.891 35.6352 157.86 35.6072 157.823C35.5792 157.787 35.5588 157.745 35.5472 157.7C35.5356 157.655 35.5331 157.608 35.5397 157.563C37.58 142.756 31.6302 126.54 24.9256 120C24.8591 119.935 24.8211 119.847 24.82 119.754C24.8189 119.661 24.8548 119.572 24.9197 119.505C24.9846 119.439 25.0732 119.401 25.1661 119.399C25.259 119.398 25.3485 119.434 25.415 119.499C32.2434 126.145 38.2876 142.632 36.2355 157.651C36.2242 157.736 36.1827 157.813 36.1188 157.869C36.0549 157.926 35.9728 157.957 35.8876 157.958Z" fill="white"/>
<path d="M20.3615 172.169C19.5773 172.617 17.9674 171.638 17.3483 171.22C16.289 170.5 15.4338 169.519 14.8658 168.371C14.2272 167.071 14.0107 165.603 14.2466 164.173C14.3704 163.416 14.5477 162.67 14.7773 161.938L15.367 159.768C15.621 159.068 15.7294 158.324 15.6854 157.58C15.4967 156.1 14.1817 155.062 12.9847 154.166C11.6638 153.175 10.284 151.866 10.2899 150.08C10.4013 148.699 10.9651 147.393 11.8938 146.365C12.7488 145.286 13.7572 144.33 14.5296 143.186C15.1366 142.392 15.4548 141.414 15.4318 140.415C15.353 139.803 15.1525 139.214 14.8422 138.681C14.2112 137.502 13.3798 136.452 12.9493 135.208C12.5188 133.964 12.5719 132.401 13.539 131.511C14.335 130.774 15.5262 130.673 16.6112 130.744C17.6245 130.869 18.5984 131.213 19.4652 131.753C22.3016 133.327 23.9173 136.682 26.9246 137.897C28.1179 138.269 29.3329 138.566 30.5629 138.787C31.7422 139.106 33.01 139.725 33.5702 140.839C34.6729 143.045 32.6209 145.763 33.3992 148.104C34.0833 150.18 36.0999 150.97 37.2262 152.822C37.6895 153.643 37.8756 154.592 37.7569 155.528C37.6579 157.114 37.2702 158.669 36.613 160.116C35.8779 161.552 35.0383 162.931 34.1009 164.244C34.0479 164.279 20.4795 172.098 20.3615 172.169Z" fill="#455A64"/>
<path d="M28.3928 167.888C28.3461 167.887 28.3 167.877 28.2573 167.858C28.2146 167.839 28.1761 167.812 28.1442 167.778C28.1122 167.744 28.0875 167.703 28.0715 167.659C28.0554 167.616 28.0484 167.569 28.0508 167.522C28.6405 153.512 22.0302 138.039 17.2302 133.545C17.1918 133.515 17.1601 133.477 17.1371 133.433C17.1142 133.39 17.1005 133.342 17.0969 133.293C17.0934 133.245 17.1 133.195 17.1164 133.149C17.1329 133.103 17.1587 133.061 17.1923 133.025C17.226 132.989 17.2667 132.961 17.3118 132.942C17.357 132.923 17.4056 132.913 17.4546 132.914C17.5036 132.915 17.552 132.925 17.5966 132.946C17.6412 132.966 17.6811 132.996 17.7138 133.032C22.6081 137.614 29.3422 153.341 28.7525 167.552C28.7479 167.643 28.7078 167.73 28.6407 167.793C28.5736 167.855 28.4847 167.889 28.3928 167.888Z" fill="white"/>
<path d="M26.2936 151.336C26.2605 151.342 26.2265 151.342 26.1933 151.336C22.8726 150.42 19.4617 149.871 16.0215 149.696C15.9752 149.695 15.9298 149.684 15.8878 149.665C15.8457 149.646 15.808 149.618 15.7767 149.584C15.7454 149.55 15.7212 149.51 15.7055 149.467C15.6898 149.423 15.683 149.377 15.6853 149.331C15.6852 149.284 15.6948 149.237 15.7134 149.194C15.7321 149.151 15.7594 149.112 15.7937 149.08C15.828 149.048 15.8685 149.023 15.9128 149.008C15.9571 148.992 16.0041 148.986 16.0509 148.989C19.5509 149.171 23.0208 149.733 26.3997 150.663C26.4793 150.69 26.5471 150.743 26.5909 150.815C26.6347 150.886 26.6518 150.971 26.639 151.053C26.6263 151.136 26.5846 151.212 26.5213 151.267C26.4581 151.322 26.3774 151.352 26.2936 151.353V151.336Z" fill="white"/>
<path d="M52.6226 25.5108L31.642 13.3989C31.5663 13.3419 31.4742 13.3112 31.3796 13.3112C31.2849 13.3112 31.1928 13.3419 31.1172 13.3989C30.9933 13.505 30.2386 13.8883 30.1088 13.9885C30.0265 14.0613 29.9631 14.153 29.924 14.2557C29.885 14.3585 29.8715 14.4691 29.8847 14.5782V33.4478C29.8963 33.7159 29.9686 33.9779 30.0963 34.2139C30.224 34.4498 30.4037 34.6537 30.6218 34.81L34.3073 36.9328L53.1179 26.071C53.0073 25.8424 52.8359 25.6486 52.6226 25.5108Z" fill="#018CCA"/>
<path opacity="0.5" d="M52.6226 25.5108L31.642 13.3989C31.5663 13.3419 31.4742 13.3112 31.3796 13.3112C31.2849 13.3112 31.1928 13.3419 31.1172 13.3989C30.9933 13.505 30.2386 13.8883 30.1088 13.9885C30.0265 14.0613 29.9631 14.153 29.924 14.2557C29.885 14.3585 29.8715 14.4691 29.8847 14.5782V33.4478C29.8963 33.7159 29.9686 33.9779 30.0963 34.2139C30.224 34.4498 30.4037 34.6537 30.6218 34.81L34.3073 36.9328L53.1179 26.071C53.0073 25.8424 52.8359 25.6486 52.6226 25.5108Z" fill="white"/>
<path d="M52.0801 46.9455C52.2275 46.8571 52.9882 46.4325 53.118 46.3558C53.2026 46.2847 53.268 46.1934 53.3082 46.0903C53.3484 45.9873 53.362 45.8759 53.3479 45.7662V26.8966C53.3411 26.6047 53.262 26.319 53.118 26.0651L34.2955 36.9328L51.5907 46.9219C51.6612 46.973 51.745 47.0023 51.8319 47.0065C51.9188 47.0107 52.0051 46.9895 52.0801 46.9455Z" fill="#018CCA"/>
<path opacity="0.2" d="M52.0801 46.9455C52.2275 46.8571 52.9882 46.4325 53.118 46.3558C53.2026 46.2847 53.268 46.1934 53.3082 46.0903C53.3484 45.9873 53.362 45.8759 53.3479 45.7662V26.8966C53.3411 26.6047 53.262 26.319 53.118 26.0651L34.2955 36.9328L51.5907 46.9219C51.6612 46.973 51.745 47.0023 51.8319 47.0065C51.9188 47.0107 52.0051 46.9895 52.0801 46.9455Z" fill="black"/>
<path d="M51.5906 46.9219L30.6218 34.81C30.4028 34.6501 30.2234 34.4419 30.0977 34.2017C29.9719 33.9614 29.9031 33.6954 29.8965 33.4243V14.5547C29.8965 14.024 30.2208 13.7763 30.6218 14.0122L51.6024 26.1241C51.823 26.2812 52.0035 26.4879 52.1295 26.7276C52.2555 26.9673 52.3234 27.2332 52.3277 27.5039V46.3735C52.3159 46.9043 51.9916 47.1519 51.5906 46.9219Z" fill="#018CCA"/>
<path opacity="0.2" d="M52.3159 46.3735V46.002L43.6418 31.6257L52.2039 26.9083C52.2039 26.8552 52.1626 26.8022 52.139 26.7491L41.4718 31.1717C41.2477 31.266 40.9529 31.1009 40.7288 30.7471L30.0734 14.0062L30.0085 14.077L38.5588 28.695L29.8847 33.0527V33.4242C29.8914 33.7221 29.966 34.0146 30.1029 34.2793L39.0011 29.4498L40.263 31.6021C40.7583 32.4513 41.4423 32.8463 41.9436 32.5692L43.1996 31.8734L52.0801 46.9455C52.1623 46.876 52.2267 46.7878 52.2677 46.6882C52.3088 46.5887 52.3253 46.4807 52.3159 46.3735Z" fill="black"/>
<path d="M99.6728 54.9297L55.6771 28.1054V30.9182L99.6728 54.9297Z" fill="#E0E0E0"/>
<path d="M83.6631 63.1203L55.683 45.5009L55.6771 45.5068V48.2959L83.6631 63.1203Z" fill="#E0E0E0"/>
<path d="M55.683 36.8031L55.6771 36.809V39.61L91.1461 58.798L55.683 36.8031Z" fill="#E0E0E0"/>
<path d="M99.0242 12.2019L78.0671 0.0899525C77.991 0.0316139 77.8977 0 77.8018 0C77.7058 0 77.6126 0.0316139 77.5364 0.0899525C77.4185 0.190197 76.6578 0.573486 76.5281 0.679627C76.446 0.752368 76.3831 0.844249 76.3451 0.947114C76.307 1.04998 76.2949 1.16065 76.3099 1.2693V20.1389C76.3133 20.4107 76.3807 20.6778 76.5068 20.9185C76.6328 21.1593 76.8138 21.367 77.0352 21.5246L80.7442 23.6239L99.5667 12.7503C99.4389 12.5217 99.2514 12.3321 99.0242 12.2019Z" fill="#018CCA"/>
<path opacity="0.5" d="M99.0242 12.2019L78.0671 0.0899525C77.991 0.0316139 77.8977 0 77.8018 0C77.7058 0 77.6126 0.0316139 77.5364 0.0899525C77.4185 0.190197 76.6578 0.573486 76.5281 0.679627C76.446 0.752368 76.3831 0.844249 76.3451 0.947114C76.307 1.04998 76.2949 1.16065 76.3099 1.2693V20.1389C76.3133 20.4107 76.3807 20.6778 76.5068 20.9185C76.6328 21.1593 76.8138 21.367 77.0352 21.5246L80.7442 23.6239L99.5667 12.7503C99.4389 12.5217 99.2514 12.3321 99.0242 12.2019Z" fill="white"/>
<path d="M98.5052 33.6365C98.6467 33.5422 99.4074 33.1235 99.5371 33.0468C99.6218 32.9756 99.6872 32.8844 99.7274 32.7813C99.7675 32.6783 99.7812 32.5668 99.7671 32.4571V13.5875C99.7602 13.2957 99.6812 13.01 99.5371 12.7561L80.7442 23.6238L98.0394 33.607C98.1073 33.653 98.1864 33.6801 98.2683 33.6852C98.3502 33.6904 98.432 33.6736 98.5052 33.6365Z" fill="#018CCA"/>
<path opacity="0.2" d="M98.5052 33.6365C98.6467 33.5422 99.4074 33.1235 99.5371 33.0468C99.6218 32.9756 99.6872 32.8844 99.7274 32.7813C99.7675 32.6783 99.7812 32.5668 99.7671 32.4571V13.5875C99.7602 13.2957 99.6812 13.01 99.5371 12.7561L80.7442 23.6238L98.0394 33.607C98.1073 33.653 98.1864 33.6801 98.2683 33.6852C98.3502 33.6904 98.432 33.6736 98.5052 33.6365Z" fill="black"/>
<path d="M98.0099 33.6071L77.0351 21.4952C76.8138 21.3375 76.6327 21.1299 76.5067 20.8891C76.3807 20.6483 76.3132 20.3812 76.3098 20.1095V1.23985C76.3098 0.703247 76.6341 0.461481 77.0351 0.691454L98.0099 12.8034C98.2312 12.961 98.4123 13.1687 98.5383 13.4095C98.6643 13.6503 98.7318 13.9174 98.7351 14.1891V33.0587C98.7351 33.5953 98.4344 33.8371 98.0099 33.6071Z" fill="#018CCA"/>
<path opacity="0.2" d="M98.7352 33.0587V32.6872L90.061 18.3168L98.6231 13.5994C98.6231 13.5464 98.5818 13.4933 98.5641 13.4461L87.891 17.8923C87.667 17.9866 87.378 17.8156 87.148 17.4618L76.4985 0.715027C76.4739 0.735709 76.4521 0.759494 76.4337 0.785787L84.9839 15.4038L76.3098 19.7615V20.133C76.3128 20.4314 76.3876 20.7247 76.528 20.9881L85.4203 16.1586L86.6822 18.3109C87.1834 19.166 87.8615 19.561 88.3628 19.2839L89.6247 18.5822L98.5052 33.6602C98.5895 33.5862 98.6546 33.4927 98.6946 33.3879C98.7347 33.2831 98.7486 33.1701 98.7352 33.0587Z" fill="black"/>
<path d="M146.098 41.6208L102.102 14.7906V17.6033L146.098 41.6208Z" fill="#E0E0E0"/>
<path d="M130.088 49.8055L102.102 32.1919V34.9811L130.088 49.8055Z" fill="#E0E0E0"/>
<path d="M102.102 23.4941V26.2951L137.565 45.489L102.102 23.4941Z" fill="#E0E0E0"/>
<path d="M60.2236 67.6136L39.2429 55.5017C39.1673 55.4447 39.0752 55.4139 38.9805 55.4139C38.8859 55.4139 38.7938 55.4447 38.7181 55.5017C38.5943 55.6078 37.8395 55.9852 37.7098 56.0913C37.6274 56.1641 37.564 56.2558 37.525 56.3585C37.486 56.4613 37.4725 56.5719 37.4857 56.681V75.5506C37.4923 75.8217 37.5611 76.0877 37.6869 76.328C37.8126 76.5683 37.992 76.7764 38.211 76.9363L41.8965 79.0592L60.6953 68.162C60.5885 67.9413 60.4258 67.7522 60.2236 67.6136Z" fill="#018CCA"/>
<path opacity="0.5" d="M60.2236 67.6136L39.2429 55.5017C39.1673 55.4447 39.0752 55.4139 38.9805 55.4139C38.8859 55.4139 38.7938 55.4447 38.7181 55.5017C38.5943 55.6078 37.8395 55.9852 37.7098 56.0913C37.6274 56.1641 37.564 56.2558 37.525 56.3585C37.486 56.4613 37.4725 56.5719 37.4857 56.681V75.5506C37.4923 75.8217 37.5611 76.0877 37.6869 76.328C37.8126 76.5683 37.992 76.7764 38.211 76.9363L41.8965 79.0592L60.6953 68.162C60.5885 67.9413 60.4258 67.7522 60.2236 67.6136Z" fill="white"/>
<path d="M59.681 89.0483C59.8225 88.954 60.5891 88.5353 60.7188 88.4587C60.8035 88.3875 60.8689 88.2962 60.9091 88.1932C60.9493 88.0901 60.9629 87.9787 60.9488 87.869V68.9994C60.9415 68.7057 60.8625 68.4183 60.7188 68.162L41.8964 79.0357L59.1916 89.0247C59.2621 89.0758 59.3459 89.1052 59.4328 89.1093C59.5197 89.1135 59.606 89.0923 59.681 89.0483Z" fill="#018CCA"/>
<path opacity="0.2" d="M59.681 89.0483C59.8225 88.954 60.5891 88.5353 60.7188 88.4587C60.8035 88.3875 60.8689 88.2962 60.9091 88.1932C60.9493 88.0901 60.9629 87.9787 60.9488 87.869V68.9994C60.9415 68.7057 60.8625 68.4183 60.7188 68.162L41.8964 79.0357L59.1916 89.0247C59.2621 89.0758 59.3459 89.1052 59.4328 89.1093C59.5197 89.1135 59.606 89.0923 59.681 89.0483Z" fill="black"/>
<path d="M59.1915 89.0248L38.2109 76.9129C37.9919 76.7529 37.8125 76.5448 37.6868 76.3045C37.561 76.0642 37.4922 75.7982 37.4856 75.5271V56.6575C37.4856 56.1268 37.8099 55.8791 38.2109 56.1091L59.1915 68.2269C59.4121 68.384 59.5927 68.5907 59.7186 68.8304C59.8446 69.0701 59.9125 69.336 59.9168 69.6068V88.4764C59.9168 89.0071 59.5925 89.2547 59.1915 89.0248Z" fill="#018CCA"/>
<path opacity="0.2" d="M59.9169 88.4763V88.1048L51.2604 73.7286L59.8225 69.0112C59.8225 68.9581 59.7812 68.905 59.7577 68.8519L49.0904 73.2981C48.8664 73.3924 48.5715 73.2273 48.3474 72.8676L37.6979 56.1091C37.672 56.1283 37.65 56.1523 37.633 56.1798L46.1833 70.7979L37.5092 75.1556V75.5271C37.5158 75.8231 37.5904 76.1137 37.7274 76.3762L46.6256 71.5468L47.8816 73.6991C48.3828 74.5541 49.061 74.9492 49.5622 74.672L50.8241 73.9762L59.7046 89.0483C59.7826 88.9765 59.8425 88.8872 59.8793 88.7878C59.9162 88.6884 59.9291 88.5817 59.9169 88.4763Z" fill="black"/>
<path d="M107.274 97.0325L63.278 70.2082V73.0209L107.274 97.0325Z" fill="#E0E0E0"/>
<path d="M91.264 105.223L63.278 87.6036V87.6095V90.3928L91.264 105.223Z" fill="#E0E0E0"/>
<path d="M63.2839 78.9059L63.278 78.9118V81.7128L98.747 100.901L63.2839 78.9059Z" fill="#E0E0E0"/>
<path d="M207.165 226.407C207.206 228.176 206.958 230.104 205.455 231.378C202.341 234.032 196.409 232.823 193.543 231.296C190.07 229.45 188.519 226.608 185.877 224.986C184.3 224.127 182.658 223.394 180.965 222.792C179.639 222.244 178.229 221.755 177.952 220.121C177.887 219.632 177.887 219.136 177.952 218.647C177.961 218.446 177.999 218.248 178.064 218.057C178.182 217.806 178.36 217.587 178.583 217.421C179.627 216.577 181.048 216.4 182.381 216.241C183.297 216.113 184.225 216.093 185.146 216.182C186.171 216.347 187.166 216.668 188.095 217.132L191.456 218.759L198.178 222.026L207.165 226.407Z" fill="#37474F"/>
<path d="M180.246 207.367C181.036 206.187 182.817 206.677 184.091 206.777C185.795 206.931 187.485 207.219 189.144 207.638C190.129 207.891 191.432 208.304 191.933 209.265C192.523 210.445 192.853 211.742 193.449 212.915C194.421 214.626 195.77 216.092 197.394 217.202C198.968 218.382 200.655 219.39 202.141 220.664C203.023 221.413 203.831 222.246 204.552 223.152C205.316 224.042 205.889 225.08 206.233 226.201C206.557 227.38 206.498 229.061 205.572 229.957C204.565 230.813 203.311 231.325 201.993 231.419C199.49 231.556 196.994 231.044 194.746 229.933C192.676 228.907 191.078 227.203 189.486 225.576C188.805 224.784 188.031 224.077 187.181 223.471C186.278 222.938 185.333 222.481 184.356 222.103C182.552 221.336 180.7 220.593 179.149 219.366C178.804 219.12 178.517 218.802 178.306 218.435C178.116 217.972 178.045 217.469 178.1 216.972C178.26 215.416 178.623 213.888 179.179 212.426C179.426 211.672 179.598 210.896 179.692 210.109C179.706 209.31 179.825 208.517 180.045 207.75C180.099 207.615 180.166 207.487 180.246 207.367Z" fill="#018CCA"/>
<path d="M194.734 230.163C194.068 229.899 193.465 229.497 192.965 228.984C192.965 226.938 193.231 225.263 194.445 223.5C195.925 221.354 198.39 220.221 200.997 219.773C202.766 220.168 203.573 220.334 204.977 221.601C206.196 222.691 207.045 224.134 207.406 225.729C207.559 226.563 207.471 227.424 207.151 228.209C206.831 228.995 206.294 229.673 205.602 230.163C204.486 230.971 203.184 231.482 201.816 231.649C199.228 231.868 197.535 231.467 194.734 230.163Z" fill="#FAFAFA"/>
<path d="M180.989 214.225C180.989 214.225 179.473 213.759 177.816 209.991C177.216 208.552 176.958 206.994 177.062 205.438C177.125 203.615 176.771 201.802 176.027 200.136C175.283 198.47 174.169 196.997 172.769 195.827C167.965 191.757 163.868 186.919 160.645 181.509C156.47 174.669 155.798 186.722 166.371 198.504C166.371 198.504 165.363 198.386 162.509 196.481C160.852 195.379 159.271 193.828 157.791 192.743C154.766 190.525 157.166 200.137 166.695 205.839C166.695 205.839 162.98 205.427 160.645 204.377C158.31 203.327 159.336 207.272 164.903 210.215C167.972 211.765 171.217 212.941 174.567 213.717C176.229 214.112 177.774 214.896 179.072 216.005L180.287 217.043L180.989 214.225Z" fill="#018CCA"/>
<path opacity="0.6" d="M180.989 214.225C180.989 214.225 179.473 213.759 177.816 209.991C177.216 208.552 176.958 206.994 177.062 205.438C177.125 203.615 176.771 201.802 176.027 200.136C175.283 198.47 174.169 196.997 172.769 195.827C167.965 191.757 163.868 186.919 160.645 181.509C156.47 174.669 155.798 186.722 166.371 198.504C166.371 198.504 165.363 198.386 162.509 196.481C160.852 195.379 159.271 193.828 157.791 192.743C154.766 190.525 157.166 200.137 166.695 205.839C166.695 205.839 162.98 205.427 160.645 204.377C158.31 203.327 159.336 207.272 164.903 210.215C167.972 211.765 171.217 212.941 174.567 213.717C176.229 214.112 177.774 214.896 179.072 216.005L180.287 217.043L180.989 214.225Z" fill="white"/>
<path opacity="0.1" d="M166.371 198.504C160.132 190.514 158.056 179.905 159.259 179.788C156.476 177.688 157.119 188.196 166.371 198.504Z" fill="black"/>
<path opacity="0.1" d="M157.791 192.743C154.766 190.525 157.166 200.137 166.695 205.839C159.537 200.485 157.001 193.073 157.791 192.743Z" fill="black"/>
<path opacity="0.1" d="M172.963 213.299C170.274 211.984 166.937 210.551 164.555 208.941C161.535 206.901 159.784 204.766 159.943 204.224C159.914 204.22 159.884 204.22 159.855 204.224C159.808 204.23 159.762 204.244 159.719 204.265L159.643 204.324C159.614 204.349 159.588 204.376 159.566 204.406C159.549 204.436 159.535 204.468 159.525 204.501L159.489 204.619C159.486 204.66 159.486 204.701 159.489 204.743C159.489 204.796 159.489 204.849 159.489 204.908C159.489 204.967 159.489 204.996 159.489 205.049C159.504 205.119 159.524 205.188 159.548 205.256L159.601 205.409C159.638 205.5 159.679 205.588 159.725 205.674L159.796 205.822C159.878 205.963 159.967 206.117 160.073 206.27L160.114 206.323C160.214 206.474 160.323 206.62 160.439 206.759L160.586 206.93L160.887 207.272L161.087 207.479C161.193 207.585 161.306 207.697 161.429 207.809L161.671 208.027C161.795 208.139 161.925 208.245 162.06 208.357L162.337 208.581L162.792 208.923C162.892 208.994 162.986 209.065 163.092 209.13C163.198 209.195 163.464 209.377 163.682 209.501L163.959 209.678C164.254 209.855 164.549 210.038 164.897 210.209C167.466 211.526 170.171 212.562 172.963 213.299Z" fill="black"/>
<path d="M168.995 108.166L187.057 108.755C187.057 108.755 196.704 147.037 196.008 160.145C195.277 173.826 190.76 209.041 190.76 209.041C190.648 211.129 180.735 210.604 180.865 208.522C180.865 208.522 180.275 202.856 180.081 200.326C179.302 190.543 178.683 187.276 177.893 178.944C176.843 167.894 177.893 164.828 178.094 160.541C178.094 160.541 168.099 136.004 164 122.377C161.594 114.399 167.538 111.09 168.995 108.166Z" fill="#FFA8A7"/>
<path d="M180.741 213.434C181.353 213.831 181.862 214.367 182.227 214.999C182.591 215.63 182.802 216.339 182.84 217.067C182.84 218.399 181.903 218.942 180.741 218.276C180.131 217.877 179.624 217.341 179.26 216.71C178.897 216.078 178.687 215.371 178.648 214.643C178.63 213.311 179.585 212.768 180.741 213.434Z" fill="#455A64"/>
<path d="M180.741 214.767C181.009 214.942 181.232 215.178 181.392 215.456C181.552 215.734 181.644 216.045 181.661 216.365C181.661 216.955 181.248 217.19 180.741 216.896C180.473 216.72 180.25 216.484 180.09 216.207C179.931 215.929 179.838 215.618 179.821 215.298C179.81 214.767 180.234 214.502 180.741 214.767Z" fill="#37474F"/>
<path d="M77.9078 171.939C77.0328 171.769 76.2363 171.32 75.6376 170.659C74.9005 169.887 74.7767 165.624 77.7191 161.384C79.9923 158.199 83.0714 155.675 86.6409 154.072C88.8581 152.999 90.1436 151.212 91.5765 149.101C93.0094 146.99 95.8104 144.784 97.2138 144.861C98.6172 144.938 100.581 146.63 100.581 146.63L77.9078 171.939Z" fill="#37474F"/>
<path d="M104.125 161.732L104.089 161.985C104.06 162.263 103.97 162.531 103.824 162.769C103.627 162.979 103.388 163.146 103.123 163.259C102.858 163.371 102.573 163.428 102.285 163.424C99.7848 163.725 97.432 164.014 95.1499 165.128C93.0448 166.194 91.1444 167.623 89.5362 169.35C88.9079 170.057 88.2426 170.73 87.5431 171.367C86.7589 172.027 85.892 172.246 85.0252 172.735C84.4102 173.065 83.7478 173.298 83.0616 173.425C82.4944 173.548 81.913 173.591 81.3339 173.555C80.024 173.485 78.793 172.907 77.9019 171.945C77.4197 171.422 77.1396 170.745 77.1118 170.034C77.0292 167.799 78.5034 162.746 82.7491 158.789C85.0606 156.631 88.4394 156.649 91.4645 152.757C92.9976 150.787 96.518 146.335 99.1302 145.84C100.31 145.616 102.279 147.503 102.981 148.275C104.036 149.455 105.127 150.888 106.389 151.813C106.834 152.087 107.246 152.412 107.616 152.78C108.795 154.184 106.383 154.998 105.664 155.841C104.331 157.421 104.396 159.792 104.125 161.732Z" fill="#018CCA"/>
<path d="M106.879 153.441C116.992 151.306 130.784 146.088 141.033 148.34C143.981 132.372 147.578 116.916 152.484 102.068C159.13 100.594 165.722 99.2379 172.427 97.7755C174.786 107.452 176.189 115.253 172.627 125.248C168.806 135.951 162.951 148.659 158.157 158.907C154.524 166.673 149.86 165.842 141.369 165.576C131.421 165.264 113.129 163.577 104.555 162.982C99.8674 163.306 101.684 154.084 106.879 153.441Z" fill="#FFA8A7"/>
<path opacity="0.2" d="M141.015 148.317C136.18 147.255 130.554 147.857 124.899 149.012C131.385 148.252 138.768 148.641 139.299 151.312C140.107 155.399 142.247 156.796 142.247 156.796C140.042 154.095 140.891 148.971 141.015 148.317Z" fill="black"/>
<path d="M81.098 160.517C81.098 160.517 83.7869 161.148 86.9535 163.86C87.8517 164.56 88.5372 165.496 88.933 166.564C89.3288 167.632 89.4193 168.788 89.1942 169.905C89.1942 169.905 86.8355 174.18 82.2007 173.832C78.4268 173.549 77.1118 171.703 77.1118 171.703C77.1118 171.703 76.1211 169.492 77.5128 166.048C78.3378 163.989 79.5555 162.111 81.098 160.517Z" fill="#FAFAFA"/>
<path d="M99.2364 155.552C99.2364 155.552 99.5489 153.995 103.134 151.978C104.509 151.247 106.035 150.843 107.592 150.799C109.413 150.681 111.182 150.149 112.766 149.244C114.35 148.338 115.707 147.083 116.732 145.575C120.31 140.4 124.722 135.855 129.787 132.124C136.18 127.289 124.121 127.808 113.436 139.495C113.436 139.495 113.436 138.481 115.069 135.45C116.001 133.681 117.392 131.965 118.324 130.39C120.229 127.159 110.906 130.497 106.171 140.545C106.171 140.545 106.218 136.806 107.026 134.377C107.834 131.947 104.019 133.356 101.642 139.188C100.4 142.396 99.5503 145.742 99.1126 149.154C98.8802 150.85 98.2497 152.466 97.2728 153.871L96.3647 155.174L99.2364 155.552Z" fill="#018CCA"/>
<path opacity="0.6" d="M99.2364 155.552C99.2364 155.552 99.5489 153.995 103.134 151.978C104.509 151.247 106.035 150.843 107.592 150.799C109.413 150.681 111.182 150.149 112.766 149.244C114.35 148.338 115.707 147.083 116.732 145.575C120.31 140.4 124.722 135.855 129.787 132.124C136.18 127.289 124.121 127.808 113.436 139.495C113.436 139.495 113.436 138.481 115.069 135.45C116.001 133.681 117.392 131.965 118.324 130.39C120.229 127.159 110.906 130.497 106.171 140.545C106.171 140.545 106.218 136.806 107.026 134.377C107.834 131.947 104.019 133.356 101.642 139.188C100.4 142.396 99.5503 145.742 99.1126 149.154C98.8802 150.85 98.2497 152.466 97.2728 153.871L96.3647 155.174L99.2364 155.552Z" fill="white"/>
<path opacity="0.1" d="M113.436 139.477C120.771 132.478 131.126 129.37 131.362 130.55C133.178 127.578 122.782 129.264 113.436 139.477Z" fill="black"/>
<path opacity="0.1" d="M118.324 130.373C120.229 127.141 110.906 130.479 106.171 140.527C110.818 132.873 117.894 129.618 118.324 130.373Z" fill="black"/>
<path opacity="0.1" d="M99.3661 147.497C100.41 144.696 101.507 141.229 102.875 138.699C104.608 135.491 106.56 133.545 107.126 133.64C107.12 133.613 107.11 133.587 107.097 133.563C107.087 133.515 107.069 133.469 107.044 133.427C107.027 133.401 107.005 133.379 106.979 133.362C106.954 133.334 106.924 133.31 106.89 133.292C106.858 133.276 106.825 133.265 106.79 133.256C106.749 133.25 106.707 133.25 106.666 133.256H106.542L106.383 133.286L106.242 133.321L106.047 133.404L105.894 133.474L105.646 133.622L105.505 133.704C105.369 133.799 105.233 133.905 105.086 134.023C105.069 134.037 105.053 134.053 105.039 134.07C104.909 134.182 104.773 134.3 104.638 134.436L104.479 134.595C104.378 134.707 104.272 134.813 104.166 134.937C104.06 135.061 104.048 135.078 103.989 135.155L103.688 135.527L103.494 135.786L103.205 136.205L103.01 136.505C102.91 136.659 102.816 136.824 102.715 136.995L102.539 137.307C102.432 137.502 102.326 137.702 102.226 137.897C102.173 137.997 102.126 138.092 102.079 138.192C101.925 138.504 101.778 138.835 101.642 139.177C100.588 141.861 99.8245 144.65 99.3661 147.497Z" fill="black"/>
<path d="M95.9342 154.532C96.3005 153.897 96.8123 153.359 97.4274 152.961C98.0426 152.563 98.7434 152.318 99.4723 152.244C100.811 152.173 101.401 153.081 100.793 154.272C100.426 154.906 99.9141 155.444 99.2991 155.841C98.6841 156.239 97.9836 156.485 97.2551 156.56C95.9165 156.631 95.3268 155.723 95.9342 154.532Z" fill="#455A64"/>
<path d="M97.2846 154.455C97.4473 154.18 97.6714 153.946 97.9394 153.772C98.2075 153.599 98.5121 153.489 98.8295 153.453C99.4192 153.453 99.6787 153.824 99.4192 154.343C99.2596 154.62 99.0371 154.855 98.7698 155.031C98.5025 155.206 98.1978 155.316 97.8802 155.351C97.2551 155.381 97.0192 154.98 97.2846 154.455Z" fill="#37474F"/>
<path d="M149.147 106.809C147.163 112.636 145.509 118.57 144.193 124.582C142.289 133.634 140.03 145.327 140.03 145.327C140.03 145.327 144.577 154.343 160.958 154.137L169.455 138.87L175.806 155.652C175.806 155.652 188.643 157.126 196.043 149.466C195.925 148.499 189.805 117.123 187.564 108.313L149.147 106.809Z" fill="#018CCA"/>
<path opacity="0.15" d="M169.455 138.87L174.898 128.845C177.063 128.402 179.128 127.563 180.989 126.369C180.989 126.369 179.939 128.763 176.419 130.662C176.1 131.198 171.914 139.566 171.914 139.566L175.829 155.652L169.455 138.87Z" fill="#263238"/>
<path d="M147 90.9648C147 90.9648 157.349 85.2921 161.53 79.1418L164.855 82.7919C164.855 82.7919 156.995 92.0852 148.38 95.405L147 90.9648Z" fill="#018CCA"/>
<path opacity="0.3" d="M147 90.9648C147 90.9648 157.349 85.2921 161.53 79.1418L164.855 82.7919C164.855 82.7919 156.995 92.0852 148.38 95.405L147 90.9648Z" fill="black"/>
<path d="M97.0369 111.485C97.5558 107.947 99.9853 106.178 107.061 99.1907C114.138 92.2031 119.739 87.639 126.332 87.5505C132.925 87.4621 145.992 88.7771 147 90.9647C148.008 93.1524 126.332 114.929 126.332 114.929L97.0369 111.485Z" fill="#018CCA"/>
<path opacity="0.2" d="M97.0369 111.485C97.5558 107.947 99.9853 106.178 107.061 99.1907C114.138 92.2031 119.739 87.639 126.332 87.5505C132.925 87.4621 145.992 88.7771 147 90.9647C148.008 93.1524 126.332 114.929 126.332 114.929L97.0369 111.485Z" fill="black"/>
<path d="M126.332 114.929L148.362 95.3755L147 90.9648L124.693 111.167L126.332 114.929Z" fill="#018CCA"/>
<path opacity="0.4" d="M126.332 114.929L148.362 95.3755L147 90.9648L124.693 111.167L126.332 114.929Z" fill="black"/>
<path d="M148.362 95.3755C148.551 95.2045 148.675 93.5063 148.734 93.2114C149.044 91.7059 149.096 90.1585 148.887 88.6356C148.675 87.0245 147.969 85.5189 146.865 84.3264C145.761 83.1339 144.315 82.3134 142.725 81.9781C142.288 81.84 141.826 81.7991 141.372 81.8582C140.918 81.9172 140.482 82.0749 140.095 82.3201C139.222 83.0042 139.128 84.2602 138.868 85.3393C138.19 88.1343 136.009 90.3338 133.603 91.9024C131.197 93.4709 128.502 94.55 126.037 96.0301C124.516 96.9596 123.065 98.0002 121.697 99.1436C121.044 99.6178 120.495 100.22 120.081 100.913C119.878 101.259 119.775 101.656 119.784 102.057C119.792 102.459 119.911 102.851 120.129 103.189C120.453 103.543 120.839 103.837 121.267 104.056C123.578 105.494 125.831 108.431 124.693 111.179L126.332 114.941L148.362 95.3755Z" fill="#018CCA"/>
<path opacity="0.4" d="M148.362 95.3755C148.551 95.2045 148.675 93.5063 148.734 93.2114C149.044 91.7059 149.096 90.1585 148.887 88.6356C148.675 87.0245 147.969 85.5189 146.865 84.3264C145.761 83.1339 144.315 82.3134 142.725 81.9781C142.288 81.84 141.826 81.7991 141.372 81.8582C140.918 81.9172 140.482 82.0749 140.095 82.3201C139.222 83.0042 139.128 84.2602 138.868 85.3393C138.19 88.1343 136.009 90.3338 133.603 91.9024C131.197 93.4709 128.502 94.55 126.037 96.0301C124.516 96.9596 123.065 98.0002 121.697 99.1436C121.044 99.6178 120.495 100.22 120.081 100.913C119.878 101.259 119.775 101.656 119.784 102.057C119.792 102.459 119.911 102.851 120.129 103.189C120.453 103.543 120.839 103.837 121.267 104.056C123.578 105.494 125.831 108.431 124.693 111.179L126.332 114.941L148.362 95.3755Z" fill="black"/>
<path d="M126.332 114.929C120.736 118.149 114.491 123.031 109.231 122.117C103.971 121.203 94 112.128 97.8624 110.454C101.725 108.779 124.669 111.167 124.669 111.167L126.332 114.929Z" fill="#018CCA"/>
<path opacity="0.4" d="M126.332 114.929C120.736 118.149 114.491 123.031 109.231 122.117C103.971 121.203 94 112.128 97.8624 110.454C101.725 108.779 124.669 111.167 124.669 111.167L126.332 114.929Z" fill="black"/>
<path d="M196.91 103.997C200.271 104.993 205.266 106.178 209.034 106.945C218.433 108.897 222.596 108.561 225.049 105.264C228.994 99.9986 226.96 98.6246 221.806 98.7779C219.649 98.8701 217.489 98.6597 215.391 98.1529C216.429 97.8552 217.421 97.4146 218.339 96.8438C219.766 95.8178 219.607 94.4851 219.282 93.9249C219.029 93.5062 218.032 94.2138 216.063 94.432C213.545 94.7092 212.035 94.1077 209.47 95.0748C208.515 95.4286 206.669 95.8472 203.408 95.0217C199.593 94.0487 186.202 87.1672 186.202 87.1672L181.59 99.5504C181.59 99.5504 191.874 102.499 196.91 103.997Z" fill="#FFA8A7"/>
<path d="M180.989 55.8261C185.364 55.5607 191.131 57.7897 192.558 63.0024C194.198 68.9817 189.356 83.6941 189.356 83.6941L180.989 55.8261Z" fill="#FFA8A7"/>
<path d="M182.876 55.8024C184.306 55.6428 185.753 55.8121 187.107 56.2976C188.461 56.7831 189.686 57.5718 190.689 58.6034C194.369 62.1768 193.119 67.7198 192.871 70.8156C192.623 73.9114 189.663 84.3132 189.663 84.3132L182.876 55.8024Z" fill="#E0E0E0"/>
<path d="M156.223 55.655C153.687 56.4805 151.075 59.022 151.6 68.2032C152.154 77.9624 152.337 94.3907 152.337 94.3907C152.213 97.3922 150.603 101.207 149.152 106.809C154.082 113.402 181.231 114.705 187.57 108.313C187.57 108.313 191.367 85.2095 190.701 71.3993C190.288 63.0082 188.932 56.8166 180.971 55.826L167.031 54.9061C167.031 54.9061 158.788 54.8235 156.223 55.655Z" fill="#F0F0F0"/>
<path d="M163.299 38.0001C163.299 38.0001 164.926 46.4502 165.616 47.8477C166.079 48.7111 166.856 49.3635 167.786 49.6698V43.773L163.299 38.0001Z" fill="#263238"/>
<path d="M165.781 25.9885C165.157 25.9016 164.52 25.959 163.921 26.1563C163.322 26.3536 162.776 26.6855 162.326 27.1266C160.822 28.6067 161.53 33.3418 163.299 38.0002L166.666 38.4542L165.781 25.9885Z" fill="#263238"/>
<path d="M167.68 38.4542C166.996 38.8434 166.058 37.5226 165.239 36.638C164.419 35.7535 161.701 34.5034 160.309 37.3398C158.917 40.1761 161.376 44.1328 163.505 44.8522C167.179 46.0787 167.78 43.72 167.78 43.72V57.0585C169.343 58.8688 175.523 65.1901 178.394 65.0957C181.266 65.0014 180.818 58.4855 179.821 56.9346L179.886 52.8777C179.886 52.8777 183.224 53.4674 184.863 53.2315C187.587 52.8659 189.339 50.7549 190.223 47.8242C191.638 43.1068 192.216 39.3211 191.273 30.0042C190.235 19.7969 178.388 19.4608 171.914 23.3645C165.439 27.2681 167.68 38.4542 167.68 38.4542Z" fill="#FFA8A7"/>
<path d="M167.662 39.6336C167.32 39.6336 166.064 37.4577 165.239 36.6852C164.101 35.6061 165.758 26.1595 165.781 26.0121C165.805 25.8647 165.598 25.3104 165.598 25.045C165.603 24.5209 165.701 24.0017 165.887 23.5119C166.271 22.5092 166.922 21.6305 167.768 20.9704C169.233 19.9275 170.921 19.2428 172.698 18.9714C174.573 18.6216 176.467 18.3834 178.371 18.2578C180.755 17.9852 183.165 18.0348 185.535 18.4053C186.288 18.5367 187.021 18.7625 187.717 19.0775C188.397 19.4155 189.034 19.8332 189.616 20.3217C190.761 21.2581 191.567 22.5446 191.91 23.9836C192.293 25.3752 191.131 26.0357 189.923 26.4013C189.923 26.4013 188.655 27.4863 184.315 27.9285C179.975 28.3708 173.246 27.6101 172.327 27.4686C171.076 27.274 170.782 28.4828 170.045 31.7968C169.39 34.6803 168.806 39.6336 167.662 39.6336Z" fill="#263238"/>
<path d="M179.904 52.9013C179.904 52.9013 173.86 51.5627 171.761 50.3952C170.528 49.7224 169.526 48.6954 168.883 47.4468C169.181 48.6943 169.726 49.8694 170.487 50.9023C171.996 52.919 179.886 54.0099 179.886 54.0099L179.904 52.9013Z" fill="#F28F8F"/>
<path d="M178.748 37.1746C178.749 37.3372 178.717 37.4983 178.655 37.6485C178.593 37.7988 178.502 37.9353 178.387 38.0499C178.272 38.1646 178.135 38.2552 177.984 38.3165C177.834 38.3778 177.672 38.4086 177.51 38.407C177.183 38.3902 176.876 38.2452 176.655 38.0035C176.434 37.7618 176.318 37.4428 176.33 37.1157C176.334 36.9561 176.37 36.7989 176.434 36.653C176.499 36.5071 176.592 36.3754 176.707 36.2653C176.823 36.1553 176.959 36.0691 177.108 36.0116C177.256 35.9541 177.415 35.9265 177.575 35.9304C177.734 35.9343 177.891 35.9695 178.037 36.0342C178.183 36.0988 178.315 36.1915 178.425 36.307C178.535 36.4226 178.621 36.5587 178.679 36.7075C178.736 36.8564 178.764 37.0151 178.76 37.1746H178.748Z" fill="#263238"/>
<path d="M176.49 33.1471L173.86 34.5329C173.689 34.1754 173.661 33.7666 173.78 33.3889C173.899 33.0113 174.158 32.693 174.503 32.4985C174.675 32.4059 174.864 32.3493 175.058 32.3319C175.253 32.3146 175.449 32.3369 175.635 32.3975C175.821 32.4582 175.992 32.5559 176.139 32.6847C176.286 32.8136 176.405 32.9709 176.49 33.1471Z" fill="#263238"/>
<path d="M179.497 45.5892L182.251 46.686C182.187 46.8715 182.087 47.0421 181.955 47.1876C181.824 47.3331 181.664 47.4504 181.486 47.5325C181.308 47.6147 181.116 47.6598 180.92 47.6654C180.724 47.6709 180.529 47.6366 180.346 47.5646C179.977 47.409 179.682 47.1163 179.524 46.748C179.365 46.3797 179.356 45.9644 179.497 45.5892Z" fill="#F28F8F"/>
<path d="M190.382 34.5447L188.024 32.6695C188.139 32.5118 188.284 32.379 188.452 32.2792C188.62 32.1794 188.806 32.1145 188.999 32.0886C189.193 32.0627 189.389 32.0763 189.578 32.1285C189.766 32.1807 189.941 32.2704 190.094 32.3923C190.408 32.6462 190.612 33.0107 190.666 33.411C190.72 33.8113 190.618 34.2169 190.382 34.5447Z" fill="#263238"/>
<path d="M188.867 37.0213C188.852 37.2592 188.767 37.4873 188.623 37.6774C188.479 37.8674 188.283 38.0109 188.058 38.09C187.833 38.1692 187.59 38.1804 187.359 38.1223C187.128 38.0642 186.919 37.9393 186.758 37.7633C186.597 37.5873 186.492 37.3679 186.455 37.1324C186.418 36.8969 186.451 36.6558 186.55 36.439C186.649 36.2222 186.81 36.0394 187.012 35.9133C187.215 35.7872 187.449 35.7234 187.688 35.7299C188.015 35.7452 188.323 35.8897 188.544 36.1318C188.765 36.3739 188.881 36.6937 188.867 37.0213Z" fill="#263238"/>
<path d="M182.876 35.9304V43.3073L187.257 42.4286L182.876 35.9304Z" fill="#F28F8F"/>
<path d="M180.553 55.7965C180.553 55.7965 188.578 66.163 180.022 85.6872C171.466 105.211 144.748 111.633 124.693 111.167L126.332 114.929C126.332 114.929 158.045 116.197 174.096 101.243C187.658 88.6296 192.641 69.5301 185.111 56.2742C185.117 56.2742 183.43 55.2599 180.553 55.7965Z" fill="#018CCA"/>
<path opacity="0.3" d="M180.553 55.7965C180.553 55.7965 188.578 66.163 180.022 85.6872C171.466 105.211 144.748 111.633 124.693 111.167L126.332 114.929C126.332 114.929 158.045 116.197 174.096 101.243C187.658 88.6296 192.641 69.5301 185.111 56.2742C185.117 56.2742 183.43 55.2599 180.553 55.7965Z" fill="black"/>
<path d="M143.191 113.538C141.709 111.967 140.453 110.199 139.458 108.284C140.361 108.869 141.342 109.325 142.371 109.64C144.075 110.047 144.995 109.05 145.19 108.46C145.343 107.995 144.158 107.712 142.701 106.361C140.838 104.639 140.632 103.259 138.656 101.355C137.919 100.641 136.928 100.117 136.698 99.12C135.378 93.4178 134.835 86.4302 134.228 80.2504L151.871 74.2593C151.871 74.2593 155.739 73.1389 159.383 69.0583C163.446 64.512 164.855 58.9867 160.899 55.0477C159.083 54.6831 157.202 54.8072 155.45 55.4074C151.759 56.7695 148.828 58.1081 142.996 60.8501C137.913 63.2442 123.961 69.2706 121.355 73.0563C120.288 74.619 120.736 78.2986 122.617 86.271C123.472 90.1923 124.557 94.5854 125.689 99.3146C126.584 103.03 127.706 106.687 129.05 110.265C132.712 119.11 136.309 120.525 140.425 120.236C146.988 119.765 146.693 117.323 143.191 113.538Z" fill="#FFA8A7"/>
<path d="M163.299 54.9062C163.299 54.9062 157.602 53.9981 153.433 55.8025C146.811 58.6742 132.547 65.2845 132.547 65.2845C132.547 65.2845 131.733 68.6456 133.361 73.4161C134.988 78.1865 137.2 80.0204 137.2 80.0204C137.2 80.0204 152.531 75.0318 155.828 73.4161C159.124 71.8004 166.312 64.3999 163.299 54.9062Z" fill="#E0E0E0"/>
<path d="M170.575 31.3781C170.575 31.3781 179.42 36.9505 189.091 34.0906C199.304 31.0597 191.715 25.4106 191.715 25.4106L170.575 31.3781Z" fill="#37474F"/>
<path d="M194.87 18.2165C191.78 14.9851 180.659 12.1724 170.858 15.333C161.058 18.4937 159.065 22.6155 159.065 22.6155C163.284 24.7453 168.055 25.5276 172.733 24.8563C180.653 23.7418 194.87 18.2165 194.87 18.2165Z" fill="#018CCA"/>
<path opacity="0.4" d="M194.87 18.2165C191.78 14.9851 180.659 12.1724 170.858 15.333C161.058 18.4937 159.065 22.6155 159.065 22.6155C163.284 24.7453 168.055 25.5276 172.733 24.8563C180.653 23.7418 194.87 18.2165 194.87 18.2165Z" fill="white"/>
<path d="M160.58 25.6465C159.924 24.7188 159.413 23.6969 159.065 22.6155C159.065 22.6155 160.339 23.6534 167.014 22.0259C173.353 20.4986 179.727 16.1999 186.827 15.2859C193.926 14.3719 194.87 18.1989 194.87 18.1989C194.87 18.1989 195.088 20.988 192.269 23.8892C192.269 23.8892 189.474 28.4651 181.136 29.385C172.798 30.3049 160.58 25.6465 160.58 25.6465Z" fill="#018CCA"/>
<path d="M183.796 22.132C183.961 24.078 185.406 25.3281 187.021 24.9271C188.637 24.5261 189.81 22.6274 189.645 20.6814C189.48 18.7355 188.036 17.4854 186.42 17.8864C184.804 18.2873 183.631 20.1743 183.796 22.132Z" fill="#F5F5F5"/>
<path d="M160.58 25.6465L160.787 26.9792C160.911 27.7988 161.04 28.4887 161.494 28.8779C167.679 31.4587 174.457 32.2751 181.077 31.2366C186.974 30.2931 189.769 28.8779 190.954 27.8165C192.14 26.7551 192.293 26.0121 192.287 25.1925V23.9011C192.287 23.9011 190.17 26.3069 180.494 27.9462C170.817 29.5855 160.58 25.6465 160.58 25.6465Z" fill="#455A64"/>
<path d="M164.03 28.6892C164.03 28.6892 163.098 28.6892 161.471 26.9202C160.869 26.2428 160.431 25.4356 160.191 24.5615C159.879 23.5395 159.339 22.602 158.61 21.8203C157.881 21.0386 156.984 20.4334 155.987 20.0505C152.551 18.7066 149.363 16.8016 146.552 14.4132C142.943 11.4176 144.854 18.2225 152.95 22.7453C152.95 22.7453 152.36 22.8691 150.42 22.3561C149.294 22.0613 148.126 21.4952 147.1 21.1768C145.007 20.5222 148.156 25.3929 154.518 26.7433C153.326 27.0073 152.106 27.1222 150.886 27.0853C149.4 26.9438 150.709 28.9369 154.353 29.5089C156.347 29.7841 158.366 29.8197 160.368 29.615C161.37 29.5175 162.38 29.659 163.316 30.0278L164.189 30.3757L164.03 28.6892Z" fill="#018CCA"/>
<path opacity="0.6" d="M164.03 28.6892C164.03 28.6892 163.098 28.6892 161.471 26.9202C160.869 26.2428 160.431 25.4356 160.191 24.5615C159.879 23.5395 159.339 22.602 158.61 21.8203C157.881 21.0386 156.984 20.4334 155.987 20.0505C152.551 18.7066 149.363 16.8016 146.552 14.4132C142.943 11.4176 144.854 18.2225 152.95 22.7453C152.95 22.7453 152.36 22.8691 150.42 22.3561C149.294 22.0613 148.126 21.4952 147.1 21.1768C145.007 20.5222 148.156 25.3929 154.518 26.7433C153.326 27.0073 152.106 27.1222 150.886 27.0853C149.4 26.9438 150.709 28.9369 154.353 29.5089C156.347 29.7841 158.366 29.8197 160.368 29.615C161.37 29.5175 162.38 29.659 163.316 30.0278L164.189 30.3757L164.03 28.6892Z" fill="white"/>
<path opacity="0.1" d="M152.968 22.7512C147.991 19.508 144.83 14.024 145.473 13.7291C143.533 13.0982 145.886 18.7945 152.968 22.7512Z" fill="black"/>
<path opacity="0.1" d="M147.118 21.1826C145.025 20.5281 148.174 25.3988 154.536 26.7492C149.553 25.1393 146.741 21.5187 147.118 21.1826Z" fill="black"/>
<path opacity="0.1" d="M159.425 29.6975C157.579 29.5376 155.746 29.2619 153.935 28.872C151.877 28.3177 150.503 27.4627 150.485 27.103H150.438L150.373 27.1501C150.357 27.1609 150.344 27.1759 150.335 27.1936C150.327 27.2113 150.324 27.231 150.326 27.2504C150.324 27.27 150.324 27.2898 150.326 27.3094C150.323 27.3289 150.323 27.3488 150.326 27.3683C150.323 27.3938 150.323 27.4195 150.326 27.445V27.5157C150.34 27.5444 150.352 27.5739 150.361 27.6042L150.403 27.675L150.473 27.7811L150.538 27.8577L150.656 27.9757L150.721 28.0464C150.796 28.1156 150.875 28.1806 150.957 28.241H150.992C151.069 28.3 151.157 28.359 151.252 28.4179L151.364 28.4887L151.6 28.6184L151.747 28.6951L152.001 28.813L152.177 28.8897L152.455 29.0017L152.649 29.0666L152.968 29.1727L153.174 29.2317L153.557 29.3319L153.746 29.3732C153.941 29.4204 154.147 29.4558 154.365 29.4912C156.04 29.7391 157.736 29.8083 159.425 29.6975Z" fill="black"/>
<path d="M164.572 27.1029C165.183 27.5001 165.691 28.0354 166.055 28.6654C166.42 29.2955 166.631 30.0026 166.672 30.7294C166.672 32.068 165.734 32.6105 164.572 31.9442C163.963 31.5455 163.456 31.0089 163.092 30.3778C162.729 29.7468 162.518 29.039 162.479 28.3118C162.479 26.9732 163.417 26.4366 164.572 27.1029Z" fill="#018CCA"/>
<path opacity="0.3" d="M164.572 27.1029C165.183 27.5001 165.691 28.0354 166.055 28.6654C166.42 29.2955 166.631 30.0026 166.672 30.7294C166.672 32.068 165.734 32.6105 164.572 31.9442C163.963 31.5455 163.456 31.0089 163.092 30.3778C162.729 29.7468 162.518 29.039 162.479 28.3118C162.479 26.9732 163.417 26.4366 164.572 27.1029Z" fill="black"/>
<path d="M164.572 28.4592C164.84 28.6341 165.062 28.8692 165.222 29.1458C165.382 29.4223 165.474 29.7325 165.492 30.0513C165.492 30.641 165.079 30.8769 164.572 30.582C164.308 30.4111 164.087 30.1809 163.927 29.9096C163.768 29.6383 163.674 29.3335 163.652 29.0194C163.652 28.4297 164.065 28.1644 164.572 28.4592Z" fill="#263238"/>
</svg>
