<svg width="272" height="263" viewBox="0 0 272 263" fill="none" xmlns="http://www.w3.org/2000/svg">
<path d="M39.7913 243.973C92.9282 269.342 179.035 269.342 232.172 243.973C285.309 218.604 285.243 177.511 232.172 152.142C179.102 126.773 92.9548 126.779 39.8444 152.142C-13.266 177.504 -13.2793 218.618 39.7913 243.973Z" fill="#EBEBEB"/>
<path d="M210.997 55.4184L213.438 53.5375V48.154C213.438 43.8937 216.828 38.9422 220.517 36.8088C224.205 34.6753 227.197 36.4033 227.197 40.6703V41.4479C227.973 40.1865 229.031 39.1237 230.288 38.3441C232.942 36.8088 235.098 38.0516 235.098 41.1222V41.4811L239.98 38.6564C241.725 37.6462 243.145 38.4637 243.145 40.4842C243.085 41.5839 242.767 42.654 242.217 43.6078C241.667 44.5616 240.901 45.3722 239.98 45.974L210.997 62.7359C209.253 63.7461 207.833 62.9287 207.833 60.9082C207.893 59.8084 208.211 58.7383 208.76 57.7845C209.31 56.8308 210.076 56.0201 210.997 55.4184Z" fill="#EBEBEB"/>
<path d="M35.8707 201.73C35.5257 201.67 35.1609 201.563 34.7496 201.457C33.3634 201.085 31.9972 200.641 30.6565 200.128C27.9824 199.156 25.4604 197.806 23.1669 196.12C21.9091 195.224 20.833 194.096 19.996 192.797C19.1594 191.482 18.8623 189.894 19.1667 188.364C19.3353 187.609 19.7159 186.918 20.2636 186.373C20.8114 185.828 21.5035 185.451 22.2581 185.287C22.9679 185.174 23.7043 185.287 24.4141 185.16C24.7775 185.131 25.1222 184.987 25.3978 184.748C25.6735 184.508 25.8657 184.187 25.9465 183.831C25.9493 183.424 25.8391 183.023 25.6281 182.675C24.3392 180.309 23.2304 177.85 22.3112 175.317C21.5417 173.057 21.4953 170.613 22.1785 168.325C22.7586 166.049 24.0009 163.997 25.7475 162.43C26.5435 161.766 27.6448 161.194 28.6067 161.613C28.9125 161.769 29.1811 161.989 29.3941 162.258C29.607 162.528 29.7593 162.841 29.8405 163.175C29.989 163.842 30.0647 164.524 30.0661 165.208C30.1608 166.68 30.4417 168.134 30.902 169.535C31.1079 170.41 31.6094 171.188 32.3216 171.735C33.5555 172.506 35.2537 171.901 36.5672 172.526C37.8807 173.151 38.3318 174.586 38.3915 175.942C38.4512 177.298 38.1793 178.667 38.3318 180.016C38.3586 180.442 38.4933 180.854 38.7232 181.213C39.0884 181.605 39.5112 181.939 39.977 182.203C40.589 182.71 41.0795 183.348 41.4125 184.071C41.7454 184.793 41.9123 185.581 41.9008 186.377C41.8606 187.966 41.558 189.538 41.0053 191.029C40.3963 193.113 39.9526 195.242 39.6785 197.396C39.4622 198.716 38.9041 199.956 38.0599 200.992C37.8094 201.319 37.4675 201.564 37.0775 201.695C36.6876 201.827 36.2675 201.839 35.8707 201.73Z" fill="#018CCA"/>
<path d="M38.0731 200.626C38.034 200.626 37.9957 200.615 37.962 200.595C37.9283 200.576 37.9003 200.547 37.8807 200.513C30.139 187.434 27.6912 178.222 26.9946 172.792C26.2317 166.877 27.3064 164.105 27.3528 163.992C27.3637 163.964 27.38 163.939 27.4007 163.917C27.4215 163.895 27.4462 163.878 27.4737 163.866C27.5011 163.854 27.5306 163.847 27.5605 163.847C27.5904 163.846 27.6202 163.852 27.648 163.862C27.6759 163.873 27.7014 163.89 27.723 163.91C27.7446 163.931 27.7618 163.956 27.7739 163.984C27.7859 164.011 27.7924 164.041 27.793 164.071C27.7936 164.1 27.7883 164.13 27.7774 164.158C27.7774 164.205 26.7027 166.99 27.4523 172.798C28.1157 178.175 30.5968 187.307 38.2721 200.287C38.2876 200.313 38.2979 200.342 38.3023 200.371C38.3067 200.401 38.3051 200.431 38.2977 200.46C38.2903 200.489 38.2772 200.517 38.2591 200.541C38.241 200.565 38.2184 200.585 38.1925 200.6C38.1552 200.618 38.1144 200.627 38.0731 200.626Z" fill="white"/>
<path d="M33.9336 193.043C24.5003 192.006 21.8335 188.902 21.7207 188.769C21.6786 188.727 21.655 188.67 21.655 188.61C21.655 188.55 21.6786 188.493 21.7207 188.45C21.7412 188.429 21.7659 188.411 21.7933 188.399C21.8206 188.388 21.8501 188.382 21.8799 188.382C21.9098 188.382 21.9393 188.388 21.9666 188.399C21.994 188.411 22.0187 188.429 22.0392 188.45C22.0392 188.484 24.7325 191.548 33.9469 192.564C34.0009 192.574 34.0499 192.602 34.0852 192.644C34.1206 192.686 34.1399 192.739 34.1399 192.794C34.1399 192.849 34.1206 192.902 34.0852 192.944C34.0499 192.986 34.0009 193.014 33.9469 193.023L33.9336 193.043Z" fill="white"/>
<path d="M31.2734 187.154C31.2232 187.154 31.1743 187.138 31.1341 187.108C31.1104 187.09 31.0906 187.067 31.0758 187.041C31.061 187.015 31.0514 186.986 31.0477 186.957C31.044 186.927 31.0462 186.897 31.0542 186.868C31.0622 186.839 31.0758 186.812 31.0943 186.789C34.0862 182.848 34.2785 176.387 34.2852 176.321C34.2851 176.291 34.2912 176.261 34.303 176.234C34.3148 176.206 34.3322 176.181 34.3539 176.161C34.3757 176.14 34.4014 176.124 34.4295 176.114C34.4576 176.104 34.4875 176.1 34.5174 176.102C34.5473 176.101 34.5769 176.108 34.6043 176.119C34.6318 176.131 34.6565 176.149 34.677 176.17C34.6976 176.192 34.7134 176.218 34.7236 176.246C34.7338 176.274 34.7381 176.304 34.7363 176.334C34.7363 176.607 34.5373 182.98 31.4592 187.061C31.4375 187.09 31.4095 187.114 31.3773 187.13C31.345 187.146 31.3095 187.154 31.2734 187.154Z" fill="white"/>
<path d="M224.609 161.334C225.525 155.152 225.538 147.609 221.007 136.589C216.476 125.57 217.883 119.794 222.739 118.219C227.595 116.644 238.355 125.012 237.957 139.082C237.565 152.667 228.404 163.886 228.404 163.886L224.609 161.334Z" fill="#018CCA"/>
<path opacity="0.1" d="M224.609 161.334C225.525 155.152 225.538 147.609 221.007 136.589C216.476 125.57 217.883 119.794 222.739 118.219C227.595 116.644 238.355 125.012 237.957 139.082C237.565 152.667 228.404 163.886 228.404 163.886L224.609 161.334Z" fill="black"/>
<path d="M226.978 163.155C226.949 163.161 226.92 163.161 226.892 163.155C226.863 163.144 226.838 163.127 226.816 163.106C226.795 163.085 226.778 163.059 226.767 163.031C226.755 163.003 226.75 162.973 226.751 162.943C226.752 162.913 226.759 162.883 226.772 162.856C226.819 162.743 231.781 151.131 231.416 140.59C231.005 128.461 224.298 121.788 224.232 121.722C224.21 121.701 224.193 121.676 224.181 121.648C224.17 121.621 224.164 121.591 224.163 121.561C224.163 121.531 224.168 121.502 224.18 121.474C224.191 121.446 224.207 121.421 224.228 121.399C224.249 121.378 224.274 121.361 224.301 121.349C224.329 121.337 224.359 121.331 224.388 121.331C224.418 121.331 224.448 121.336 224.476 121.347C224.503 121.359 224.529 121.375 224.55 121.396C224.616 121.462 231.449 128.248 231.847 140.577C232.212 151.211 227.203 162.922 227.164 163.035C227.145 163.069 227.118 163.097 227.086 163.118C227.053 163.139 227.016 163.152 226.978 163.155Z" fill="white"/>
<path d="M224.875 166.817C224.875 166.817 227.435 151.876 236.524 143.289C245.612 134.702 260.764 133.067 265.514 137.653C270.263 142.239 267.218 146.698 260.525 148.247C252.962 149.995 248.325 153.052 252.962 155.392C257.268 157.559 256.783 162.257 252.299 164.511C245.134 168.113 232.198 164.683 229.081 171.768L224.875 166.817Z" fill="#018CCA"/>
<path d="M226.799 169.98H226.726C226.669 169.959 226.623 169.917 226.597 169.863C226.571 169.808 226.567 169.745 226.586 169.688C228.681 163.846 231.91 158.476 236.086 153.89C239.359 150.343 243.191 147.359 247.43 145.057C251.641 142.728 256.225 141.154 260.976 140.404C261.037 140.399 261.097 140.417 261.144 140.456C261.191 140.494 261.222 140.55 261.228 140.611C261.232 140.64 261.23 140.67 261.222 140.699C261.214 140.728 261.2 140.755 261.181 140.778C261.163 140.802 261.14 140.822 261.114 140.836C261.088 140.851 261.059 140.86 261.029 140.863C256.326 141.62 251.791 143.194 247.629 145.515C240.995 149.124 231.993 156.282 226.998 169.874C226.976 169.907 226.946 169.934 226.912 169.952C226.877 169.971 226.838 169.98 226.799 169.98Z" fill="white"/>
<path d="M231.409 160.583C231.362 160.583 231.315 160.568 231.276 160.541C231.237 160.513 231.207 160.475 231.19 160.43C231.171 160.372 231.175 160.31 231.201 160.255C231.227 160.201 231.273 160.158 231.33 160.137C239.085 157.426 250.203 158.848 250.316 158.861C250.345 158.865 250.374 158.875 250.4 158.89C250.426 158.905 250.448 158.925 250.466 158.948C250.485 158.972 250.498 158.999 250.506 159.028C250.513 159.057 250.515 159.087 250.511 159.117C250.507 159.147 250.498 159.175 250.483 159.201C250.468 159.227 250.448 159.25 250.424 159.268C250.401 159.286 250.373 159.3 250.345 159.307C250.316 159.315 250.286 159.317 250.256 159.313C250.15 159.313 239.131 157.891 231.482 160.569C231.46 160.58 231.434 160.584 231.409 160.583Z" fill="white"/>
<path d="M45.397 7.36573C45.3416 6.33925 45.0454 5.34032 44.5324 4.45C44.0195 3.55968 43.3044 2.80303 42.445 2.24144L40.0369 0.845722C39.1221 0.380435 38.1107 0.137939 37.0848 0.137939C36.0589 0.137939 35.0475 0.380435 34.1328 0.845722L15.0871 11.8586C14.1801 12.4296 13.4388 13.2296 12.9377 14.1782C12.5063 14.9318 12.2352 15.7669 12.1417 16.6306C12.1417 16.7503 12.1417 16.8699 12.1417 16.9895V39.0153C12.1979 40.0424 12.4951 41.0417 13.0092 41.9321C13.5232 42.8224 14.2397 43.5788 15.1003 44.1396L17.5018 45.5353L17.8069 45.6948L17.9197 45.7414L18.1254 45.8278L18.2846 45.8876L18.4571 45.9474L18.6494 46.0006L18.7954 46.0404L19.0209 46.0936H19.1337L19.4057 46.1401H19.4588C20.8188 46.3635 22.2144 46.1421 23.4391 45.5087L42.445 34.5224C43.3057 33.9601 44.0222 33.2026 44.5362 32.3111C45.0503 31.4197 45.3474 30.4195 45.4036 29.3915L45.397 7.36573Z" fill="#018CCA"/>
<path opacity="0.4" d="M21.3095 18.8837C20.9684 19.4497 20.7135 20.0635 20.5532 20.7048C20.9493 19.0437 21.9684 17.599 23.3991 16.6705L42.4448 5.65763C44.0768 4.71386 45.4035 5.47818 45.4035 7.36573C45.3473 6.33866 45.0501 5.33936 44.536 4.44899C44.0219 3.55862 43.3055 2.80229 42.4448 2.24144L40.0368 0.845722C39.122 0.380435 38.1106 0.137939 37.0847 0.137939C36.0588 0.137939 35.0474 0.380435 34.1327 0.845722L15.087 11.8586C14.1799 12.4296 13.4387 13.2296 12.9376 14.1782L12.9973 14.0718L21.3095 18.8837Z" fill="white"/>
<path opacity="0.1" d="M22.7889 45.8145L22.6496 45.8543L22.4108 45.9009H22.1852H21.953C21.6787 45.8806 21.4161 45.7814 21.1968 45.6151L21.0906 45.5154L21.0309 45.4622L20.9513 45.3625L20.885 45.2761L20.8187 45.1698L20.759 45.0634C20.759 45.0634 20.759 44.9903 20.7125 44.9504C20.692 44.9096 20.6743 44.8674 20.6594 44.8242L20.5533 44.7178V44.5849C20.5533 44.545 20.5533 44.5051 20.5533 44.4653C20.5496 44.4011 20.5496 44.3367 20.5533 44.2725C20.5497 44.2372 20.5497 44.2015 20.5533 44.1662C20.5533 44.0665 20.5533 43.9601 20.5533 43.8472V21.8014C20.5537 21.5631 20.5737 21.3253 20.613 21.0903C20.613 21.0039 20.613 20.9108 20.6661 20.8244V20.7181C20.818 20.0782 21.064 19.4645 21.3958 18.897L12.9974 14.0718L12.9377 14.1782C12.5062 14.9318 12.2352 15.7669 12.1416 16.6306C12.1416 16.7503 12.1416 16.8699 12.1416 16.9895V39.0153C12.1978 40.0424 12.495 41.0417 13.0091 41.932C13.5232 42.8224 14.2397 43.5787 15.1003 44.1396L17.5017 45.5353L17.8069 45.6948L17.9197 45.7413L18.1253 45.8277L18.2845 45.8876L18.457 45.9474L18.6494 46.0006L18.7953 46.0404L19.0209 46.0936H19.1337L19.4057 46.1401H19.4587C20.5785 46.3106 21.7231 46.1987 22.7889 45.8145Z" fill="black"/>
<path d="M37.078 27.5638C38.3501 24.7168 39.0014 21.6307 38.9885 18.5115C39.61 17.5455 40.1324 16.519 40.5475 15.4476C40.0119 16.0767 39.4091 16.6451 38.7497 17.1424C39.4188 16.2054 39.8864 15.1394 40.1229 14.012C39.5488 14.8117 38.8806 15.5392 38.1328 16.1787C37.802 15.9321 37.4007 15.799 36.9884 15.799C36.5762 15.799 36.1749 15.9321 35.8441 16.1787C33.8539 17.3484 32.3414 20.7247 32.7992 23.0775C30.1987 24.4068 27.8901 24.0745 26.3511 22.4129C25.5285 24.7657 25.9265 26.9988 27.3196 27.4308C26.8933 27.6873 26.3933 27.7927 25.9 27.7299C25.9 29.7238 26.9017 30.9002 28.4076 30.4283C28.0084 30.8266 27.5257 31.1308 26.9946 31.3189C27.3926 32.7479 28.5469 33.3128 29.9201 32.5352C28.8511 34.4395 27.2324 35.9756 25.2764 36.9417C26.6562 37.3271 28.3014 37.0679 30.0727 36.0444C33.164 34.2566 35.5389 31.0198 37.0581 27.5172" fill="white"/>
<path d="M45.397 87.5664C45.3375 86.5446 45.0393 85.551 44.5266 84.6656C44.0139 83.7802 43.3009 83.0277 42.445 82.4688L40.0369 81.073C39.1221 80.6077 38.1107 80.3652 37.0848 80.3652C36.0589 80.3652 35.0475 80.6077 34.1328 81.073L15.0937 92.0859C14.1867 92.657 13.4454 93.4569 12.9443 94.4055C12.5129 95.1592 12.2418 95.9942 12.1483 96.8579C12.1483 96.9776 12.1483 97.0972 12.1483 97.2169V119.243C12.2063 120.263 12.5024 121.256 13.0128 122.141C13.5232 123.027 14.2336 123.78 15.0871 124.34L17.4885 125.736L17.7937 125.889L17.9064 125.942L18.1121 126.028L18.2713 126.088L18.4438 126.148L18.6362 126.201L18.7821 126.241L19.0077 126.294H19.1204L19.3924 126.341H19.4455C20.8091 126.554 22.2049 126.321 23.4258 125.676L42.445 114.723C43.3057 114.161 44.0222 113.403 44.5362 112.512C45.0502 111.62 45.3474 110.62 45.4036 109.592L45.397 87.5664Z" fill="#018CCA"/>
<path opacity="0.4" d="M21.3097 99.0845C20.9778 99.652 20.7319 100.266 20.5799 100.906C20.9694 99.2487 21.9786 97.8047 23.3993 96.8712L42.445 85.8584C44.0769 84.9146 45.4037 85.6789 45.4037 87.5664C45.3434 86.544 45.0443 85.55 44.5304 84.6645C44.0165 83.7791 43.3022 83.027 42.445 82.4688L40.0369 81.073C39.1222 80.6077 38.1108 80.3652 37.0849 80.3652C36.059 80.3652 35.0476 80.6077 34.1328 81.073L15.0938 92.0859C14.1867 92.657 13.4455 93.4569 12.9444 94.4055L13.0041 94.2991L21.3097 99.0845Z" fill="white"/>
<path opacity="0.1" d="M22.7892 126.015L22.6499 126.055C22.5718 126.079 22.492 126.097 22.4111 126.108H22.1855H21.9534C21.679 126.088 21.4164 125.989 21.1971 125.822L21.091 125.723L21.0313 125.67L20.9517 125.563L20.8853 125.483L20.819 125.377L20.7593 125.271C20.7593 125.231 20.7593 125.198 20.7128 125.158C20.6912 125.115 20.6734 125.071 20.6598 125.025L20.62 124.912L20.5802 124.752C20.5802 124.752 20.5802 124.679 20.5802 124.639C20.5765 124.575 20.5765 124.511 20.5802 124.447C20.5765 124.411 20.5765 124.376 20.5802 124.34C20.5802 124.241 20.5802 124.128 20.5802 124.015V102.002C20.5805 101.764 20.6005 101.526 20.6399 101.291C20.6399 101.198 20.6399 101.112 20.6929 101.025V100.919C20.8449 100.279 21.0908 99.6652 21.4227 99.0977L13.1105 94.2858L13.0508 94.3921C12.6193 95.1458 12.3483 95.9808 12.2547 96.8446C12.2547 96.9643 12.2547 97.0839 12.2547 97.2035V119.229C12.2988 120.243 12.5777 121.232 13.0693 122.12C13.5609 123.007 14.2518 123.767 15.0874 124.34L17.4888 125.736L17.794 125.889L17.9067 125.942L18.1124 126.028L18.2716 126.088L18.4441 126.148L18.6365 126.201L18.7824 126.241L19.0079 126.294H19.1207L19.3927 126.341H19.4458C20.5699 126.514 21.7193 126.402 22.7892 126.015Z" fill="black"/>
<path d="M32.9188 97.7552C34.8691 96.6253 35.1013 96.5057 35.8709 96.1069C36.2759 95.8633 36.7283 95.7092 37.1976 95.6549C37.4976 95.6244 37.7976 95.7127 38.0335 95.9009C38.2987 96.1025 38.4918 96.3846 38.5841 96.7051C38.755 97.2444 38.8401 97.8074 38.8362 98.3733C38.8693 99.3769 38.876 99.7025 38.876 102.288C38.876 104.873 38.876 105.199 38.8362 106.276C38.8245 106.934 38.74 107.59 38.5841 108.23C38.4641 108.73 38.2789 109.213 38.0335 109.665C37.8134 110.108 37.532 110.518 37.1976 110.882C36.8076 111.312 36.3613 111.688 35.8709 111.998C35.1013 112.49 34.8691 112.663 32.9188 113.759C30.9685 114.856 30.7429 115.016 29.9734 115.414C29.5678 115.656 29.1154 115.807 28.6466 115.86C28.3446 115.891 28.0424 115.802 27.8041 115.614C27.5428 115.41 27.3524 115.128 27.2602 114.81C27.0896 114.272 27.0045 113.712 27.0081 113.148C27.0081 112.138 26.9616 111.819 26.9616 109.233C26.9616 106.648 26.9616 106.316 27.0081 105.246C27.0179 104.574 27.1025 103.905 27.2602 103.252C27.382 102.753 27.5647 102.27 27.8041 101.816C28.0298 101.375 28.3131 100.966 28.6466 100.6C29.0352 100.168 29.4817 99.7921 29.9734 99.4832C30.7429 98.9914 30.9751 98.8186 32.9188 97.7219V97.7552ZM32.9188 95.9673C30.9287 97.1105 30.6898 97.2966 29.9137 97.7618C29.2584 98.1723 28.6624 98.671 28.1425 99.2439C27.6154 99.8015 27.1689 100.43 26.8157 101.112C26.4458 101.812 26.1628 102.555 25.9732 103.325C25.7667 104.165 25.6533 105.025 25.6349 105.89C25.6349 106.947 25.5884 107.286 25.5884 109.931C25.5884 112.576 25.5884 112.909 25.6349 113.919C25.635 114.657 25.7491 115.39 25.9732 116.092C26.1202 116.581 26.4144 117.013 26.8157 117.328C27.192 117.623 27.6679 117.758 28.1425 117.707C28.7668 117.645 29.3706 117.45 29.9137 117.136C30.6898 116.73 30.9353 116.597 32.9188 115.454C34.9023 114.311 35.1478 114.125 35.9306 113.653C37.2346 112.845 38.2941 111.696 38.9954 110.33C39.3644 109.63 39.6451 108.886 39.8312 108.117C40.0403 107.279 40.156 106.421 40.1762 105.558C40.1762 104.495 40.216 104.156 40.216 101.51C40.216 98.8651 40.216 98.5394 40.1762 97.5226C40.1753 96.7867 40.0589 96.0555 39.8312 95.3559C39.6853 94.866 39.3937 94.4325 38.9954 94.113C38.6187 93.82 38.1424 93.6864 37.6686 93.7408C37.0436 93.7995 36.4391 93.9946 35.8974 94.3124C35.1146 94.7112 34.8691 94.8441 32.8856 95.9939L32.9188 95.9673ZM32.8856 100.733C30.8159 101.929 29.1375 105.139 29.1375 107.904C29.1375 110.669 30.8159 111.938 32.8856 110.742C34.9554 109.546 36.6337 106.336 36.6337 103.571C36.6337 100.806 34.9554 99.5364 32.8856 100.733ZM32.8856 108.987C31.5589 109.765 30.4577 108.941 30.4577 107.146C30.4577 105.352 31.5456 103.265 32.8856 102.494C34.2257 101.723 35.3202 102.541 35.3202 104.342C35.3202 106.143 34.2323 108.216 32.8856 108.994V108.987ZM37.6554 97.7818C37.6554 97.1171 37.264 96.838 36.7797 97.1171C36.5123 97.309 36.2937 97.5611 36.1416 97.8532C35.9895 98.1453 35.9081 98.4692 35.904 98.7986C35.904 99.4633 36.2954 99.7358 36.7797 99.4633C37.0462 99.2721 37.2642 99.021 37.4163 98.7301C37.5684 98.4393 37.6502 98.1167 37.6554 97.7884" fill="white"/>
<path d="M78.5395 36.2837C78.4875 35.2595 78.1956 34.2619 77.6874 33.3716C77.1791 32.4814 76.4688 31.7236 75.614 31.1594L73.2059 29.7637C72.29 29.2984 71.2775 29.0558 70.2505 29.0558C69.2236 29.0558 68.2111 29.2984 67.2952 29.7637L48.2561 40.7766C47.4509 41.3118 46.7712 42.0155 46.2639 42.8394C45.7565 43.6633 45.4336 44.5876 45.3173 45.5486C45.3173 45.6683 45.3173 45.7879 45.3173 45.9075V67.9333C45.3723 68.9599 45.6682 69.959 46.1812 70.8494C46.6941 71.7398 47.4096 72.4964 48.2694 73.0576L50.6775 74.4533L50.9826 74.6128L51.0954 74.6593L51.301 74.7457L51.4536 74.8055L51.6327 74.8654L51.8185 74.9185L51.971 74.9584L52.1966 75.0116H52.3094L52.5814 75.0581H52.6344C53.9944 75.281 55.39 75.0596 56.6147 74.4267L75.614 63.4404C76.4739 62.8778 77.1893 62.12 77.7022 61.2285C78.2151 60.337 78.5111 59.337 78.566 58.3095L78.5395 36.2837Z" fill="#018CCA"/>
<path opacity="0.4" d="M54.4586 47.8017C54.1277 48.3704 53.8798 48.9837 53.7223 49.6228C54.1134 47.9649 55.125 46.5207 56.5483 45.5885L75.6139 34.5756C77.2458 33.6318 78.566 34.3962 78.566 36.2837C78.511 35.2571 78.215 34.258 77.7021 33.3676C77.1891 32.4772 76.4737 31.7206 75.6139 31.1594L73.2058 29.7637C72.2899 29.2984 71.2774 29.0558 70.2505 29.0558C69.2235 29.0558 68.211 29.2984 67.2951 29.7637L48.256 40.7766C47.3524 41.3497 46.6138 42.1493 46.1133 43.0961L46.1664 42.9898L54.4586 47.8017Z" fill="white"/>
<path opacity="0.1" d="M55.938 74.7324L55.792 74.7723C55.7162 74.7963 55.6386 74.8141 55.5599 74.8255H55.3409H55.0491C54.777 74.8044 54.5167 74.7052 54.2994 74.5397L54.1933 74.44L54.1336 74.3868L54.0474 74.2805L53.9876 74.2007C53.9617 74.1678 53.9395 74.1322 53.9213 74.0944L53.8616 73.9881C53.8616 73.9548 53.8616 73.915 53.8085 73.8751L53.7621 73.7488L53.7223 73.6292C53.7223 73.5804 53.709 73.5273 53.6825 73.4697C53.6787 73.4321 53.6787 73.3942 53.6825 73.3567C53.6788 73.2925 53.6788 73.2281 53.6825 73.1639C53.6789 73.1286 53.6789 73.0929 53.6825 73.0576C53.6757 72.9513 53.6757 72.8448 53.6825 72.7386V50.7194C53.6862 50.4813 53.7061 50.2437 53.7422 50.0083C53.7422 49.9152 53.7422 49.8288 53.7886 49.7424C53.7912 49.707 53.7912 49.6715 53.7886 49.6361C53.9461 48.997 54.1941 48.3837 54.525 47.815L46.2062 43.0031L46.1531 43.1094C45.7188 43.8618 45.4475 44.6975 45.357 45.5619C45.357 45.6815 45.357 45.8012 45.357 45.9208V67.9466C45.412 68.9732 45.708 69.9723 46.2209 70.8627C46.7339 71.7531 47.4493 72.5097 48.3091 73.0709L50.7172 74.4666L51.0223 74.6261L51.1351 74.6726L51.3408 74.759L51.4933 74.8189L51.6724 74.8787L51.8582 74.9318L52.0108 74.9717L52.2363 75.0249H52.3491L52.6211 75.0714H52.6741C53.7734 75.2265 54.8938 75.1102 55.938 74.7324Z" fill="black"/>
<path d="M64.0115 66.7303L67.1891 64.8893V54.2552L69.4048 52.9725L69.6369 49.2772L67.1891 50.6928V48.6657C67.1891 47.8283 67.3151 47.4229 67.9188 47.0773L69.6369 46.0803V42.385L67.4411 43.6611C66.3547 44.2348 65.4547 45.1077 64.847 46.1769C64.2394 47.2461 63.9495 48.4671 64.0115 49.6959V52.5604L62.3464 53.4976V57.0998L63.9982 56.1494L64.0115 66.7303Z" fill="white"/>
<path d="M35.5193 205.425L111.629 249.437C112.523 249.892 113.512 250.129 114.515 250.129C115.518 250.129 116.507 249.892 117.401 249.437L236.093 180.787C237.685 179.863 237.685 178.375 236.093 177.464L159.983 133.426C159.09 132.971 158.103 132.733 157.101 132.733C156.099 132.733 155.111 132.971 154.218 133.426L35.5193 202.102C33.9272 203.006 33.9272 204.494 35.5193 205.425Z" fill="#E0E0E0"/>
<path d="M37.914 194.791L111.868 237.573C112.772 238.032 113.77 238.271 114.783 238.271C115.797 238.271 116.795 238.032 117.699 237.573L234.952 169.761C236.564 168.831 236.564 167.322 234.952 166.391L160.991 123.609C160.088 123.15 159.089 122.911 158.076 122.911C157.063 122.911 156.064 123.15 155.16 123.609L37.914 191.468C36.302 192.365 36.302 193.874 37.914 194.791Z" fill="#37474F"/>
<path d="M111.868 237.586L37.9142 194.791C36.4747 193.96 36.3221 192.664 37.4565 191.734C36.7357 192.306 36.1438 193.025 35.7197 193.843C35.2955 194.661 35.0487 195.559 34.9953 196.479V199.224C35.0506 200.239 35.3436 201.226 35.8507 202.106C36.3579 202.986 37.0648 203.733 37.9142 204.288L111.868 247.064C112.766 247.542 113.771 247.782 114.787 247.762V238.284C113.771 238.304 112.766 238.064 111.868 237.586Z" fill="#455A64"/>
<path d="M234.952 179.252C235.8 178.698 236.506 177.951 237.012 177.072C237.518 176.193 237.81 175.207 237.864 174.194V171.449C237.811 170.529 237.564 169.631 237.14 168.813C236.716 167.995 236.124 167.276 235.403 166.704C236.537 167.634 236.391 168.93 234.952 169.761L117.699 237.586C116.803 238.063 115.801 238.303 114.787 238.284V247.775C115.801 247.794 116.803 247.554 117.699 247.077L234.952 179.252Z" fill="#263238"/>
<path d="M77.6042 214.55C78.8589 215.189 80.2466 215.523 81.6541 215.523C83.0617 215.523 84.4494 215.189 85.7041 214.55C87.9397 213.221 87.9397 211.161 85.7041 209.865C84.4483 209.229 83.0611 208.898 81.6541 208.898C80.2472 208.898 78.86 209.229 77.6042 209.865C75.3951 211.161 75.3951 213.261 77.6042 214.55Z" fill="#263238"/>
<path d="M123.378 228.508L52.5881 187.533C51.6262 186.975 51.6262 186.064 52.5881 185.506L144.798 132.15C145.34 131.875 145.939 131.731 146.546 131.731C147.154 131.731 147.752 131.875 148.294 132.15L219.084 173.124C220.052 173.682 220.052 174.586 219.084 175.118L126.874 228.481C126.334 228.76 125.736 228.908 125.129 228.913C124.521 228.917 123.922 228.778 123.378 228.508Z" fill="white"/>
<path d="M192.621 148.008C192.939 148.168 193.29 148.252 193.646 148.252C194.002 148.252 194.353 148.168 194.671 148.008C194.781 147.953 194.874 147.868 194.939 147.763C195.004 147.658 195.039 147.536 195.039 147.413C195.039 147.289 195.004 147.168 194.939 147.063C194.874 146.958 194.781 146.873 194.671 146.818C194.353 146.657 194.002 146.574 193.646 146.574C193.29 146.574 192.939 146.657 192.621 146.818C192.051 147.144 192.051 147.675 192.621 148.008Z" fill="#263238"/>
<path d="M195.898 157.326C196.534 157.647 197.236 157.815 197.948 157.815C198.66 157.815 199.362 157.647 199.998 157.326C201.132 156.661 201.132 155.604 199.998 154.953C199.363 154.629 198.661 154.46 197.948 154.46C197.236 154.46 196.533 154.629 195.898 154.953C194.764 155.578 194.764 156.668 195.898 157.326Z" fill="#263238"/>
<path d="M193.033 153.192C193.789 152.76 193.749 152.029 192.94 151.564L179.447 143.754C179.013 143.523 178.531 143.398 178.04 143.389C177.549 143.38 177.063 143.487 176.621 143.701C175.864 144.14 175.904 144.871 176.713 145.336L190.207 153.145C190.641 153.375 191.123 153.499 191.614 153.507C192.105 153.515 192.591 153.407 193.033 153.192Z" fill="#263238"/>
<path d="M143.604 143.169C142.636 143.728 142.636 144.631 143.604 145.163L197.537 176.367C198.08 176.643 198.68 176.786 199.289 176.786C199.897 176.786 200.497 176.643 201.04 176.367L212.981 169.475L155.545 136.244L143.604 143.169Z" fill="#EBEBEB"/>
<path d="M144.002 148.586L139.697 146.1C139.517 146.009 139.318 145.961 139.116 145.961C138.915 145.961 138.716 146.009 138.536 146.1L135.823 147.669C135.498 147.855 135.498 148.154 135.823 148.333L136.194 148.553L134.821 149.284C134.662 149.37 134.675 149.423 134.861 149.41L137.275 149.177L140.128 150.826C140.31 150.915 140.509 150.961 140.712 150.961C140.914 150.961 141.114 150.915 141.296 150.826L144.002 149.257C144.07 149.231 144.129 149.186 144.17 149.126C144.211 149.066 144.233 148.994 144.233 148.922C144.233 148.849 144.211 148.778 144.17 148.718C144.129 148.658 144.07 148.612 144.002 148.586Z" fill="#EBEBEB"/>
<path d="M145.269 155.073L144.951 154.408C144.54 153.537 144.288 152.354 145.482 151.67C145.934 151.44 146.434 151.321 146.941 151.321C147.448 151.321 147.948 151.44 148.401 151.67C149.024 152.029 149.163 152.567 148.819 152.999C149.593 152.787 150.419 152.872 151.134 153.238C151.311 153.296 151.465 153.408 151.575 153.56C151.685 153.711 151.744 153.892 151.744 154.079C151.744 154.266 151.685 154.448 151.575 154.599C151.465 154.75 151.311 154.862 151.134 154.92C149.966 155.585 147.923 155.465 146.417 155.232L145.269 155.073Z" fill="#EBEBEB"/>
<path d="M86.1616 178.414L140.101 209.619C140.644 209.894 141.244 210.037 141.853 210.037C142.461 210.037 143.061 209.894 143.604 209.619L185.609 185.313C186.571 184.755 186.571 183.851 185.609 183.319L131.67 152.089C131.127 151.813 130.527 151.67 129.918 151.67C129.31 151.67 128.71 151.813 128.167 152.089L86.1616 176.394C85.1931 176.952 85.1931 177.856 86.1616 178.414Z" fill="#EBEBEB"/>
<path d="M86.5732 181.811L82.248 179.318C82.0662 179.229 81.8666 179.183 81.6642 179.183C81.4618 179.183 81.2621 179.229 81.0804 179.318L78.3672 180.887C78.3013 180.914 78.2449 180.96 78.2052 181.019C78.1655 181.078 78.1443 181.148 78.1443 181.219C78.1443 181.291 78.1655 181.36 78.2052 181.42C78.2449 181.479 78.3013 181.525 78.3672 181.552L78.7453 181.771L77.3721 182.495C77.2063 182.582 77.2262 182.642 77.3721 182.622L79.7868 182.396L82.6394 184.044C82.8211 184.133 83.0208 184.18 83.2231 184.18C83.4255 184.18 83.6252 184.133 83.8069 184.044L86.5202 182.469C86.5891 182.449 86.6505 182.409 86.696 182.353C86.7415 182.298 86.7689 182.23 86.7747 182.158C86.7805 182.087 86.7643 182.015 86.7283 181.953C86.6923 181.891 86.6382 181.841 86.5732 181.811Z" fill="#EBEBEB"/>
<path d="M87.8069 188.291L87.4951 187.626C87.0772 186.756 86.8317 185.573 88.0258 184.881C88.477 184.652 88.9759 184.532 89.4819 184.532C89.9879 184.532 90.4868 184.652 90.938 184.881C91.6014 185.247 91.7076 185.785 91.356 186.211C92.1333 186.006 92.9584 186.091 93.6778 186.45C93.8542 186.509 94.0075 186.623 94.1162 186.774C94.2248 186.926 94.2832 187.107 94.2832 187.294C94.2832 187.48 94.2248 187.662 94.1162 187.814C94.0075 187.965 93.8542 188.078 93.6778 188.138C92.5103 188.803 90.467 188.683 88.9545 188.45L87.8069 188.291Z" fill="#EBEBEB"/>
<path d="M70.7381 185.313C71.2811 185.038 71.881 184.895 72.4895 184.895C73.0979 184.895 73.6978 185.038 74.2408 185.313L128.174 216.511C129.142 217.069 129.142 217.98 128.174 218.538L117.168 224.905L59.7459 191.674L70.7381 185.313Z" fill="#EBEBEB"/>
<path d="M130.675 178.129L99.9734 186.39L140.115 209.612C140.658 209.887 141.258 210.031 141.866 210.031C142.474 210.031 143.074 209.887 143.617 209.612L144.486 209.107L161.807 183.645L125.023 190.876L130.675 178.129Z" fill="#E0E0E0"/>
<path d="M145.793 160.263L131.67 152.089C131.127 151.813 130.527 151.67 129.918 151.67C129.31 151.67 128.71 151.813 128.167 152.089L112.379 161.227C113.102 162.603 114.594 163.886 116.856 164.996C123.49 168.173 134.29 168.173 140.944 164.996C143.73 163.666 145.342 161.991 145.793 160.263Z" fill="#E0E0E0"/>
<path opacity="0.2" d="M213.903 157.386L143.107 116.418C142.565 116.143 141.966 116 141.359 116C140.751 116 140.152 116.143 139.611 116.418L47.4004 169.775C46.4385 170.333 46.4385 171.237 47.4004 171.769L62.3663 180.409L118.216 212.73C118.758 213.005 119.357 213.148 119.964 213.148C120.572 213.148 121.171 213.005 121.713 212.73L204.715 164.684L213.896 159.367C214.871 158.855 214.871 157.944 213.903 157.386Z" fill="white"/>
<path d="M214.075 157.093L155.538 123.197L143.279 116.126C142.686 115.821 142.029 115.662 141.362 115.662C140.695 115.662 140.038 115.821 139.445 116.126L47.2346 169.482C46.9718 169.583 46.7458 169.762 46.5864 169.994C46.427 170.227 46.3416 170.502 46.3416 170.785C46.3416 171.067 46.427 171.342 46.5864 171.575C46.7458 171.807 46.9718 171.986 47.2346 172.087L62.2005 180.727L118.071 213.068C118.664 213.374 119.321 213.533 119.988 213.533C120.655 213.533 121.312 213.374 121.905 213.068L204.901 165.022L214.088 159.705C214.351 159.602 214.576 159.423 214.735 159.19C214.893 158.957 214.978 158.681 214.978 158.399C214.978 158.117 214.893 157.842 214.735 157.609C214.576 157.376 214.351 157.196 214.088 157.093H214.075ZM213.737 159.12L204.549 164.437L121.553 212.483C121.062 212.729 120.52 212.857 119.971 212.857C119.422 212.857 118.88 212.729 118.389 212.483L62.5388 180.169L47.5795 171.529C47.4197 171.488 47.2781 171.395 47.1769 171.264C47.0758 171.134 47.0209 170.973 47.0209 170.808C47.0209 170.643 47.0758 170.482 47.1769 170.351C47.2781 170.221 47.4197 170.128 47.5795 170.087L139.79 116.73C140.281 116.486 140.823 116.359 141.372 116.359C141.921 116.359 142.462 116.486 142.954 116.73L155.22 123.809L213.757 157.705C213.917 157.746 214.058 157.839 214.159 157.969C214.261 158.1 214.315 158.261 214.315 158.426C214.315 158.591 214.261 158.752 214.159 158.882C214.058 159.013 213.917 159.106 213.757 159.147L213.737 159.12Z" fill="white"/>
<path d="M175.632 92.1058C175.571 92.9518 175.312 93.7714 174.875 94.4979C174.438 95.2244 173.836 95.8372 173.118 96.2863L145.156 112.463C143.77 113.261 142.642 112.696 142.642 111.187C142.705 110.342 142.965 109.523 143.402 108.797C143.839 108.071 144.44 107.458 145.156 107.007L173.131 90.8364C174.511 90.0322 175.632 90.6038 175.632 92.1058Z" fill="white"/>
<path d="M170.478 108.263C170.415 109.109 170.155 109.928 169.719 110.654C169.282 111.38 168.681 111.993 167.964 112.443L144.739 125.896C143.352 126.7 142.231 126.128 142.231 124.619C142.292 123.775 142.551 122.957 142.987 122.232C143.422 121.507 144.022 120.895 144.739 120.446L167.99 106.993C169.377 106.189 170.478 106.761 170.478 108.263Z" fill="white"/>
<path d="M128.585 131.246L128.525 130.461C127.258 133.665 125.348 135.965 123.218 137.194C119.457 139.374 116.093 137.44 116.093 131.671C116.093 126.234 118.747 120.273 122.88 117.9C125.593 116.331 127.444 117.488 127.749 118.172V116.843C127.749 116.105 128.499 115.075 129.414 114.544C130.33 114.012 131.086 114.497 131.086 115.634V127.962C131.086 129.531 131.67 129.85 132.499 129.365C134.011 128.494 135.404 124.766 135.404 120.519C135.404 112.317 131.112 108.495 124.266 112.457C117.851 116.165 112.763 125.537 112.763 133.725C112.763 141.76 117.573 144.824 123.868 141.189C125.676 140.063 127.278 138.636 128.605 136.968C129.321 136.091 130.104 135.825 130.449 136.45C130.794 137.075 130.582 138.364 129.872 139.241C128.193 141.351 126.176 143.166 123.901 144.611C116.067 149.138 110.143 145.19 110.143 135.26C110.143 125.118 116.345 113.746 124.299 109.14C132.253 104.534 138.084 108.628 138.084 118.89C138.084 125.111 135.65 130.561 132.194 132.555C130.283 133.605 128.923 133.359 128.585 131.246ZM119.702 129.378C119.702 132.555 121.241 134.296 123.59 132.941C125.938 131.585 127.57 128.102 127.57 124.892C127.57 121.801 125.998 120.239 123.556 121.648C121.241 122.964 119.702 126.334 119.702 129.378Z" fill="white"/>
<path d="M142.324 33.2862C156.062 25.3107 167.194 31.7842 167.194 47.6754C167.194 63.5667 156.062 82.9007 142.324 90.8364C128.585 98.772 117.453 92.3384 117.453 76.4472C117.453 60.5559 128.585 41.2618 142.324 33.2862Z" fill="white"/>
<path d="M142.324 33.2862C156.062 25.3107 167.194 31.7842 167.194 47.6754C167.194 63.5667 156.062 82.9007 142.324 90.8364C128.585 98.772 117.453 92.3384 117.453 76.4472C117.453 60.5559 128.585 41.2618 142.324 33.2862Z" fill="#F5F5F5"/>
<path d="M133.255 54.3882C132.116 54.5855 131.097 55.2196 130.416 56.1561C129.195 57.7313 129.448 59.9777 130.416 65.0355L134.191 64.4573L133.255 54.3882Z" fill="#263238"/>
<path d="M155.253 46.9443C156.101 46.7174 156.901 46.3392 157.615 45.8277C158.775 44.8507 159.074 46.0936 158.437 47.4095C158.015 48.3477 157.411 49.1925 156.661 49.8953C155.91 50.598 155.028 51.1447 154.065 51.5037C154.026 51.3441 152.978 48.8451 152.978 48.8451L155.253 46.9443Z" fill="#263238"/>
<path d="M135.424 80.4748C135.424 80.4748 128.392 85.0208 126.867 86.6226C125.341 88.2244 124.711 93.2157 124.147 99.3236C124.147 99.3236 132.154 102.707 144.712 96.479C157.27 90.2515 158.404 85.3266 158.404 85.3266C158.404 85.3266 156.779 77.9293 156.175 75.8756C155.412 73.2769 153.939 71.4026 145.375 75.2973L135.424 80.4748Z" fill="#263238"/>
<path d="M135.027 64.238C134.463 64.7232 133.667 63.8591 132.977 63.3208C132.287 62.7824 130.031 62.397 128.904 65.0754C127.776 67.7539 130.363 70.3193 131.889 70.9773C132.411 71.1973 132.986 71.2603 133.543 71.1588C134.1 71.0573 134.615 70.7957 135.027 70.4057L135.425 80.4748C135.425 80.4748 137.415 83.9243 142.855 83.2065C148.294 82.4887 147.16 77.0121 145.382 75.2974V73.2238C145.382 73.2238 148.188 73.0377 149.508 72.3332C150.218 71.9543 151.903 69.4553 152.991 66.8765C155.234 62.1263 155.746 56.7388 154.437 51.6499C152.494 43.8871 143.611 46.0205 138.317 50.7793C133.023 55.538 135.027 64.238 135.027 64.238Z" fill="#FFA8A7"/>
<path d="M156.786 39.1549C156.308 37.5864 156.016 37.8655 152.175 40.5705C149.242 42.6399 145.968 44.1764 142.503 45.1099C139.797 45.9341 136.095 46.5854 134.191 49.0977C133.372 50.1782 132.955 51.5107 133.01 52.8662C132.849 52.7162 132.653 52.6089 132.44 52.5538C131.504 52.3012 130.357 52.9858 129.872 54.0891L133.189 54.973C132.931 56.8872 132.188 62.7957 132.997 63.3141C133.693 63.7594 134.761 65.2548 135.047 65.1751C135.995 64.9026 136.373 60.6888 136.891 58.1367C137.455 55.2322 137.674 54.1489 138.715 54.0293C142.098 53.495 145.427 52.6655 148.666 51.5502C152.248 50.1478 153.276 48.9581 153.276 48.9581L155.187 47.7419C156.04 46.503 156.623 45.0982 156.898 43.6188C157.174 42.1394 157.135 40.6185 156.786 39.1549Z" fill="#263238"/>
<path d="M145.369 73.2237C145.369 73.2237 140.347 73.5627 138.596 73.0974C137.587 72.8567 136.714 72.2259 136.168 71.3428C136.416 72.2669 136.89 73.1144 137.547 73.8086C138.828 75.1379 145.369 74.5663 145.369 74.5663V73.2237Z" fill="#F28F8F"/>
<path d="M144.088 67.3816L146.384 67.6275C146.289 67.9687 146.085 68.2692 145.804 68.483C145.522 68.6967 145.178 68.8118 144.825 68.8106C144.188 68.7441 143.863 68.1061 144.088 67.3816Z" fill="#F28F8F"/>
<path d="M147.405 58.4092L147.737 64.3842L150.901 62.4634L147.405 58.4092Z" fill="#F28F8F"/>
<path d="M144.161 60.536C144.155 60.8349 144.055 61.1242 143.875 61.3629C143.695 61.6015 143.445 61.7773 143.159 61.8652C143.04 61.9062 142.913 61.9169 142.788 61.8964C142.664 61.8759 142.547 61.8249 142.447 61.7479C142.347 61.6709 142.268 61.5702 142.216 61.455C142.164 61.3398 142.142 61.2136 142.151 61.0876C142.159 60.7881 142.26 60.4986 142.441 60.2601C142.622 60.0216 142.874 59.846 143.159 59.7584C143.278 59.717 143.406 59.706 143.53 59.7264C143.654 59.7469 143.771 59.798 143.871 59.8752C143.97 59.9524 144.049 60.0533 144.1 60.1687C144.15 60.2841 144.171 60.4103 144.161 60.536Z" fill="#263238"/>
<path d="M143.093 57.0068L140.944 58.7747C140.805 58.4542 140.779 58.0959 140.87 57.7587C140.962 57.4216 141.166 57.1258 141.448 56.9204C141.554 56.803 141.684 56.7108 141.83 56.6505C141.976 56.5901 142.133 56.5631 142.291 56.5713C142.449 56.5796 142.602 56.623 142.741 56.6983C142.88 56.7736 143 56.879 143.093 57.0068Z" fill="#263238"/>
<path d="M153.137 55.1458L151.147 54.1622C151.296 53.8546 151.552 53.6117 151.867 53.4785C152.181 53.3453 152.534 53.3308 152.858 53.4377C152.994 53.5272 153.109 53.6438 153.198 53.7803C153.286 53.9167 153.345 54.0701 153.371 54.2306C153.397 54.3911 153.39 54.5553 153.35 54.7128C153.309 54.8704 153.237 55.0178 153.137 55.1458Z" fill="#263238"/>
<path d="M152.566 57.9905C152.558 58.2889 152.457 58.5773 152.278 58.8156C152.098 59.0538 151.849 59.23 151.565 59.3198C151.445 59.3607 151.318 59.3714 151.193 59.351C151.069 59.3305 150.952 59.2794 150.852 59.2024C150.752 59.1254 150.673 59.0248 150.621 58.9096C150.57 58.7943 150.547 58.6681 150.556 58.5421C150.564 58.2426 150.666 57.9532 150.846 57.7146C151.027 57.4761 151.279 57.3006 151.565 57.2129C151.683 57.1715 151.811 57.1606 151.935 57.181C152.059 57.2014 152.176 57.2525 152.276 57.3298C152.375 57.407 152.454 57.5078 152.505 57.6232C152.555 57.7386 152.577 57.8648 152.566 57.9905Z" fill="#263238"/>
</svg>
