<svg width="125" height="361" viewBox="0 0 125 361" fill="none" xmlns="http://www.w3.org/2000/svg">
<g clip-path="url(#clip0)">
<path opacity="0.2" fill-rule="evenodd" clip-rule="evenodd" d="M-5.34905 7.09951C-7.52626 6.01956 -10.4287 7.27207 -9.21792 10.127C-7.92097 13.1843 -3.12579 13.222 -0.417681 13.1614C-0.688732 13.1472 -1.56156 10.3437 -1.86037 9.92006C-2.74161 8.67034 -4.01056 7.76464 -5.34905 7.09951ZM19.7198 62.8047C20.4888 63.4624 19.7824 62.8663 19.7198 62.8047V62.8047ZM-7.87951 21.2939C-9.18137 22.2795 -9.2426 24.0208 -8.17813 25.2001C-6.91059 26.6039 -4.59745 26.554 -2.87081 26.4181C-2.08977 26.3566 2.08063 26.0279 1.09173 25.3513C1.16779 25.3797 1.32664 25.4489 1.49664 25.5428C1.58827 25.874 1.68448 26.2039 1.78473 26.5324C1.76021 26.5466 1.73932 26.5618 1.71311 26.576C1.7415 26.5636 1.76143 26.5503 1.78643 26.5378C2.79105 29.8211 4.22025 32.9476 6.09109 35.8728C5.39155 35.5996 4.66703 35.3927 3.93226 35.3004C1.75636 35.0267 -2.81986 36.6994 -0.384637 39.5706C1.95039 42.3231 5.58191 39.3732 8.23014 38.9675C10.8009 42.5207 13.635 45.9261 16.6049 49.2178C16.4231 49.2741 16.2635 49.3916 16.1721 49.5746C14.981 48.9755 13.7397 48.1187 12.6375 47.8864C11.0471 47.5516 7.78602 47.3474 6.58479 48.757C5.10732 50.4902 6.69272 51.8995 8.4395 52.2329C10.9724 52.7165 14.287 51.4923 16.7235 50.6653C17.0023 50.7143 17.3066 50.6336 17.4883 50.4129C17.5421 50.3954 17.5959 50.3782 17.6483 50.3616C20.6559 53.6372 23.7784 56.8049 26.8819 59.9031C26.8489 59.9014 26.8159 59.8994 26.7814 59.8976C25.972 59.3714 25.1039 58.9396 24.163 58.7132C21.9865 58.1866 19.426 58.1827 17.6607 59.7418C15.9023 61.2942 15.2805 64.0105 17.1014 65.7556C20.746 69.2488 26.1092 61.291 27.9466 60.9596C31.1004 64.0751 34.4351 66.9861 37.822 69.8385C37.4375 69.7223 37.0432 69.6369 36.6356 69.5984C33.3156 69.2818 25.5254 73.31 29.6017 77.2791C33.1539 80.7379 37.2599 74.0862 40.1199 71.7607C43.3115 74.4192 46.5205 77.0596 49.6395 79.8027C47.939 79.3546 46.2957 79.2879 44.4732 79.8326C42.5874 80.3971 39.5446 81.8064 40.7382 84.3298C41.9522 86.896 45.6063 85.7304 47.5094 84.9168C48.5474 84.4731 50.6282 82.9748 52.4555 82.3442C57.4327 86.9997 61.7444 92.1268 65.0097 98.1657C67.0482 101.936 68.5958 105.964 69.6857 110.104C70.3815 112.746 71.7519 117.184 71.4797 120.623C72.7817 113.74 70.4169 105.473 67.8709 99.3192C65.5299 93.6607 62.0282 88.6926 57.9273 84.2201C58.9543 81.156 67.6091 76.7402 62.4323 73.8902C59.6833 72.3834 56.8698 74.88 56.2704 77.5254C55.8587 79.3432 56.4885 81.6279 57.1566 83.3928C55.8666 82.0294 54.5256 80.7098 53.1438 79.434C51.2341 77.6707 49.2788 75.9585 47.3048 74.2679C50.5547 71.2434 53.6275 62.594 49.2672 61.1769C42.8285 59.0903 45.9342 70.8922 46.3844 73.1041C46.512 73.1116 46.6113 73.0735 46.6844 72.9917C46.6483 73.1942 46.6064 73.4108 46.5556 73.6292C42.7774 70.4103 38.9433 67.2546 35.2353 63.9588C35.5691 63.7145 36.0995 62.7805 36.5165 62.2834C37.4574 61.1628 38.3577 59.9923 39.0154 58.6812C40.0544 56.6093 41.0557 53.3042 38.2982 52.0838C35.2993 50.7542 33.8765 54.4922 33.8567 56.7225C33.8433 58.2651 34.2681 59.7306 34.4897 61.2426C34.559 61.7142 34.2942 63.8396 34.9422 62.9256C34.9118 63.2627 34.9075 63.5069 34.9227 63.68C34.257 63.0854 33.5965 62.4842 32.9401 61.8788C32.9704 61.8024 32.9929 61.7191 32.998 61.6225C33.0328 60.9576 32.3573 60.7012 31.8838 60.8957C31.0176 60.0802 30.1599 59.2545 29.3175 58.4124C27.5321 56.6283 25.7208 54.7933 23.922 52.9193C24.3119 52.5875 24.1565 52.1277 24.5211 51.7755C24.8851 51.424 25.6024 51.2299 26.0304 50.9035C27.1072 50.082 27.9998 48.8849 28.6452 47.7066C29.7107 45.7597 31.0869 41.6752 27.9708 40.7455C24.7589 39.7856 23.1309 43.7173 22.9257 46.1758C22.8857 46.6521 23.2479 50.944 23.5243 52.5026C20.1959 49.0197 16.9221 45.4063 13.9558 41.7302C14.8546 41.7224 17.4019 39.8994 17.9168 39.4018C19.1732 38.1883 21.1699 35.5064 18.9655 34.0855C17.0055 32.8253 14.5912 34.6479 13.7543 36.4201C13.6167 36.7119 13.1325 39.4284 13.0952 40.6473C11.8675 39.0884 10.6963 37.5203 9.60661 35.9473C8.8799 34.9015 8.20078 33.8281 7.56531 32.7319C7.71812 32.6461 7.86182 32.4965 7.99752 32.3105C11.2652 31.7627 15.429 26.7136 11.5896 24.9542C9.76162 24.1175 7.78052 25.8416 6.886 27.2534C6.70273 27.5423 6.40642 28.9948 6.16525 30.1405C4.33679 26.5091 2.93897 22.6649 1.87457 18.7236C2.15901 18.6537 2.39983 18.4386 2.4314 18.0683C4.01753 17.173 5.27002 16.4275 6.37669 14.7049C7.06423 13.635 8.30214 11.1904 6.28008 10.5953C3.64866 9.82102 1.998 13.8013 1.78376 15.7621C1.75881 15.9897 1.76006 16.6517 1.76904 17.2584C1.6777 17.246 1.58536 17.2474 1.49481 17.2632C0.889284 14.8227 0.405693 12.3509 0.0208265 9.87494C1.45663 9.41778 1.70116 1.94647 0.744455 0.882134C-1.39395 -1.50103 -2.89999 1.93923 -2.78497 3.75794C-2.64908 5.90238 -1.66723 7.85354 -0.498392 9.58531C-0.372981 9.7687 -0.408742 9.75979 -0.376401 9.50442C-0.358392 9.63066 -0.315723 9.72384 -0.252465 9.79135C-0.312165 10.9201 -0.429029 12.0757 -0.372102 13.0745C-0.208913 15.935 0.128886 18.8122 0.618658 21.6361C0.737782 22.3228 0.874189 23.004 1.02704 23.6793C-0.127683 22.7046 -1.68436 21.8383 -2.29343 21.5673C-3.87425 20.8647 -6.31031 20.1057 -7.87951 21.2939ZM71.7383 120.351C71.662 121.27 71.4354 122.109 70.9893 122.797C71.3168 122.011 71.5624 121.193 71.7383 120.351Z" fill="#C1DEE2"/>
<g opacity="0.5">
<path opacity="0.5" fill-rule="evenodd" clip-rule="evenodd" d="M14.489 100.76C11.8832 97.0436 7.04771 87.6044 3.38017 86.2763C1.01794 85.4209 1.70668 94.2695 1.67751 95.9567C1.5639 102.484 2.19918 108.971 2.9837 115.443C4.39709 127.117 9.01873 137.513 15.3577 147.449C18.6195 152.561 22.4455 157.736 27.7446 160.926C30.1837 162.395 33.1187 162.641 35.5275 163.906C38.333 165.38 36.8051 164.189 38.0694 167.113C39.8252 171.173 40.3868 176.411 41.1992 180.743C44.9292 200.631 53.9594 305.761 52.3939 325.991C52.2549 327.784 54.7542 328.212 54.879 326.023C55.5422 314.417 49.8036 234.044 46.9084 207.759C44.0132 181.475 41.0834 158.254 38.1457 149.16C34.5819 138.127 28.1453 124.86 22.7873 114.572C20.2985 109.792 17.5858 105.177 14.489 100.76Z" fill="#69A1AC"/>
<path opacity="0.5" fill-rule="evenodd" clip-rule="evenodd" d="M-4.85178 229.674C-11.6323 224.694 -18.9717 234.092 -12.836 239.073C-9.44406 241.826 -5.898 240.846 -3.90166 238.552C-2.60571 240.132 -1.39275 241.785 -0.227249 243.18C3.32373 247.433 6.67993 251.787 9.88749 256.243C16.5507 265.499 22.261 275.278 28.2314 284.879C34.1235 294.354 39.9685 303.878 45.309 313.593C49.8331 321.824 55.8633 331.507 57.4122 340.531C55.062 321.393 46.1443 302.998 35.5249 286.127C24.9919 269.394 12.904 251.12 -3.40508 237.915C-1.74522 235.473 -1.69914 231.988 -4.85178 229.674Z" fill="#C1DEE2"/>
<path opacity="0.5" fill-rule="evenodd" clip-rule="evenodd" d="M123.814 183C120.019 183.742 113.819 192.329 110.692 195.6C106.975 199.488 103.602 203.632 100.424 207.973C93.5803 217.318 87.4602 227.254 82.256 237.615C73.7719 254.506 66.975 271.845 62.0422 290.238C59.0226 301.497 57.0676 313.166 55.9089 324.754C55.6901 326.94 53.3996 343.789 56.7001 344.243C59.6686 344.652 58.7517 331.449 58.8949 329.653C60.5137 309.392 65.3632 289.678 72.1088 270.58C73.5781 266.42 74.9431 261.324 77.2928 257.581C78.985 254.884 77.305 255.824 80.2787 254.804C82.8321 253.927 85.7413 254.141 88.3561 253.068C94.0363 250.738 98.5846 246.214 102.571 241.664C110.319 232.821 116.459 223.254 119.66 211.923C121.435 205.641 123.066 199.322 123.972 192.845C124.206 191.171 126.258 182.522 123.814 183Z" fill="#69A1AC"/>
<path opacity="0.5" fill-rule="evenodd" clip-rule="evenodd" d="M108.84 40.1417C94.5475 64.9368 82.8024 92.1736 75.2185 119.76C70.6236 136.475 67.4102 153.626 64.2175 170.654C59.2741 197.019 54.5982 223.382 53.2682 250.216C51.93 277.205 49.284 308.333 58.1186 334.328C53.7056 307.937 57.907 279.845 58.6509 253.289C59.0064 240.612 60.0366 228.059 61.3879 215.456C62.6993 203.23 64.8417 191.063 66.8367 178.933C67.8085 173.026 68.8292 167.127 69.8683 161.232C70.1785 159.473 70.3096 154.254 71.4249 153.053C72.5475 151.843 78.2749 151.35 80.0731 150.463C83.694 148.675 87.0999 146.136 90.1142 143.454C95.8927 138.311 100.92 131.592 104.887 124.968C114.068 109.642 117.738 90.9385 117.552 73.1888C117.517 69.7426 111.976 32.6326 114.202 32.1216C114.068 31.9647 113.941 31.8026 113.821 31.634C112.137 34.4555 110.484 37.2961 108.84 40.1417Z" fill="#89C5CC"/>
<path opacity="0.5" fill-rule="evenodd" clip-rule="evenodd" d="M-45.4243 129.568C-45.6449 129.249 -47.0802 127.036 -46.3574 127.178C-47.829 126.89 -44.3333 129.618 -48 127.944C-46.259 129.589 -47.2638 131.726 -47.287 133.939C-47.325 137.533 -46.7238 141.098 -46.0471 144.615C-44.9779 150.174 -43.3849 155.579 -41.0728 160.75C-36.0335 172.018 -27.4765 182.866 -17.3178 189.911C-12.3027 193.389 -7.38773 194.573 -1.66803 196.174C1.94478 197.186 2.23129 199.056 4.14898 202.562C8.14146 209.867 12.0628 217.145 15.5838 224.695C19.7882 233.712 23.8696 242.738 27.7195 251.913C40.6892 282.819 51.2454 314.838 56.7891 347.974C56.9249 328.447 52.4091 308.336 46.7128 289.723C42.5634 276.162 37.1617 263.09 31.4002 250.15C30.0041 247.016 27.8884 242.983 27.2955 239.522C26.8804 237.097 28.1496 234.765 28.7307 232.211C30.9962 222.263 30.8341 211.118 28.8446 201.118C26.6511 190.09 20.3076 184.971 9.57668 183.409C5.65217 182.838 0.664028 183.048 -2.93455 181.374C-6.85515 179.551 -8.47246 173.559 -10.7019 169.713C-16.6899 159.382 -23.8046 149.473 -31.9743 140.768C-34.2364 138.358 -36.669 136.134 -39.2498 134.072C-40.8773 132.772 -44.3152 131.17 -45.4243 129.568Z" fill="#89C5CC"/>
<path opacity="0.5" fill-rule="evenodd" clip-rule="evenodd" d="M74.9035 326.885H36.8205C35.1082 326.885 33.7201 328.273 33.7201 329.986C33.7201 330.138 33.7312 330.289 33.7533 330.439L36.6968 350.404C37.5941 356.491 42.8152 361 48.9655 361H62.7585C68.9088 361 74.1299 356.491 75.0272 350.404L77.9707 330.439C78.2205 328.744 77.0498 327.168 75.3558 326.918C75.2061 326.896 75.0549 326.885 74.9035 326.885Z" fill="#C1DEE2"/>
</g>
</g>
<defs>
<clipPath id="clip0">
<rect width="173" height="361" fill="white" transform="matrix(-1 0 0 1 125 0)"/>
</clipPath>
</defs>
</svg>
