<svg width="111" height="361" viewBox="0 0 111 361" fill="none" xmlns="http://www.w3.org/2000/svg">
<g clip-path="url(#clip0)">
<path opacity="0.2" fill-rule="evenodd" clip-rule="evenodd" d="M130.349 7.09951C132.526 6.01956 135.429 7.27207 134.218 10.127C132.921 13.1843 128.126 13.222 125.418 13.1614C125.689 13.1472 126.562 10.3437 126.86 9.92006C127.742 8.67034 129.011 7.76464 130.349 7.09951ZM105.28 62.8047C104.511 63.4624 105.218 62.8663 105.28 62.8047V62.8047ZM132.88 21.2939C134.181 22.2795 134.243 24.0208 133.178 25.2001C131.911 26.6039 129.597 26.554 127.871 26.4181C127.09 26.3566 122.919 26.0279 123.908 25.3513C123.832 25.3797 123.673 25.4489 123.503 25.5428C123.412 25.874 123.316 26.2039 123.215 26.5324C123.24 26.5466 123.261 26.5618 123.287 26.576C123.259 26.5636 123.239 26.5503 123.214 26.5378C122.209 29.8211 120.78 32.9476 118.909 35.8728C119.608 35.5996 120.333 35.3927 121.068 35.3004C123.244 35.0267 127.82 36.6994 125.385 39.5706C123.05 42.3231 119.418 39.3732 116.77 38.9675C114.199 42.5207 111.365 45.9261 108.395 49.2178C108.577 49.2741 108.736 49.3916 108.828 49.5746C110.019 48.9755 111.26 48.1187 112.362 47.8864C113.953 47.5516 117.214 47.3474 118.415 48.757C119.893 50.4902 118.307 51.8995 116.561 52.2329C114.028 52.7165 110.713 51.4923 108.276 50.6653C107.998 50.7143 107.693 50.6336 107.512 50.4129C107.458 50.3954 107.404 50.3782 107.352 50.3616C104.344 53.6372 101.222 56.8049 98.1181 59.9031C98.1511 59.9014 98.1841 59.8994 98.2186 59.8976C99.028 59.3714 99.8961 58.9396 100.837 58.7132C103.013 58.1866 105.574 58.1827 107.339 59.7418C109.098 61.2942 109.719 64.0105 107.899 65.7556C104.254 69.2488 98.8908 61.291 97.0534 60.9596C93.8996 64.0751 90.5649 66.9861 87.178 69.8385C87.5625 69.7223 87.9568 69.6369 88.3644 69.5984C91.6844 69.2818 99.4746 73.31 95.3983 77.2791C91.8461 80.7379 87.7401 74.0862 84.8801 71.7607C81.6885 74.4192 78.4795 77.0596 75.3605 79.8027C77.061 79.3546 78.7043 79.2879 80.5268 79.8326C82.4126 80.3971 85.4554 81.8064 84.2618 84.3298C83.0478 86.896 79.3937 85.7304 77.4906 84.9168C76.4526 84.4731 74.3718 82.9748 72.5445 82.3442C67.5673 86.9997 63.2556 92.1268 59.9903 98.1657C57.9518 101.936 56.4042 105.964 55.3143 110.104C54.6185 112.746 53.2481 117.184 53.5203 120.623C52.2183 113.74 54.5831 105.473 57.1291 99.3192C59.4701 93.6607 62.9718 88.6926 67.0727 84.2201C66.0457 81.156 57.3909 76.7402 62.5677 73.8902C65.3167 72.3834 68.1302 74.88 68.7296 77.5254C69.1413 79.3432 68.5115 81.6279 67.8434 83.3928C69.1334 82.0294 70.4744 80.7098 71.8562 79.434C73.7659 77.6707 75.7212 75.9585 77.6952 74.2679C74.4453 71.2434 71.3725 62.594 75.7328 61.1769C82.1715 59.0903 79.0658 70.8922 78.6156 73.1041C78.488 73.1116 78.3887 73.0735 78.3156 72.9917C78.3517 73.1942 78.3936 73.4108 78.4444 73.6292C82.2226 70.4103 86.0567 67.2546 89.7647 63.9588C89.4309 63.7145 88.9005 62.7805 88.4835 62.2834C87.5426 61.1628 86.6423 59.9923 85.9846 58.6812C84.9456 56.6093 83.9443 53.3042 86.7018 52.0838C89.7007 50.7542 91.1235 54.4922 91.1433 56.7225C91.1567 58.2651 90.7319 59.7306 90.5103 61.2426C90.441 61.7142 90.7058 63.8396 90.0578 62.9256C90.0882 63.2627 90.0925 63.5069 90.0773 63.68C90.743 63.0854 91.4035 62.4842 92.0599 61.8788C92.0296 61.8024 92.0071 61.7191 92.002 61.6225C91.9672 60.9576 92.6427 60.7012 93.1162 60.8957C93.9824 60.0802 94.8401 59.2545 95.6825 58.4124C97.4679 56.6283 99.2792 54.7933 101.078 52.9193C100.688 52.5875 100.844 52.1277 100.479 51.7755C100.115 51.424 99.3976 51.2299 98.9696 50.9035C97.8928 50.082 97.0002 48.8849 96.3548 47.7066C95.2893 45.7597 93.9131 41.6752 97.0292 40.7455C100.241 39.7856 101.869 43.7173 102.074 46.1758C102.114 46.6521 101.752 50.944 101.476 52.5026C104.804 49.0197 108.078 45.4063 111.044 41.7302C110.145 41.7224 107.598 39.8994 107.083 39.4018C105.827 38.1883 103.83 35.5064 106.034 34.0855C107.995 32.8253 110.409 34.6479 111.246 36.4201C111.383 36.7119 111.868 39.4284 111.905 40.6473C113.133 39.0884 114.304 37.5203 115.393 35.9473C116.12 34.9015 116.799 33.8281 117.435 32.7319C117.282 32.6461 117.138 32.4965 117.002 32.3105C113.735 31.7627 109.571 26.7136 113.41 24.9542C115.238 24.1175 117.219 25.8416 118.114 27.2534C118.297 27.5423 118.594 28.9948 118.835 30.1405C120.663 26.5091 122.061 22.6649 123.125 18.7236C122.841 18.6537 122.6 18.4386 122.569 18.0683C120.982 17.173 119.73 16.4275 118.623 14.7049C117.936 13.635 116.698 11.1904 118.72 10.5953C121.351 9.82102 123.002 13.8013 123.216 15.7621C123.241 15.9897 123.24 16.6517 123.231 17.2584C123.322 17.246 123.415 17.2474 123.505 17.2632C124.111 14.8227 124.594 12.3509 124.979 9.87494C123.543 9.41778 123.299 1.94647 124.256 0.882134C126.394 -1.50103 127.9 1.93923 127.785 3.75794C127.649 5.90238 126.667 7.85354 125.498 9.58531C125.373 9.7687 125.409 9.75979 125.376 9.50442C125.358 9.63066 125.316 9.72384 125.252 9.79135C125.312 10.9201 125.429 12.0757 125.372 13.0745C125.209 15.935 124.871 18.8122 124.381 21.6361C124.262 22.3228 124.126 23.004 123.973 23.6793C125.128 22.7046 126.684 21.8383 127.293 21.5673C128.874 20.8647 131.31 20.1057 132.88 21.2939ZM53.2617 120.351C53.338 121.27 53.5646 122.109 54.0107 122.797C53.6832 122.011 53.4376 121.193 53.2617 120.351Z" fill="#C1DEE2"/>
<g opacity="0.5">
<path opacity="0.5" fill-rule="evenodd" clip-rule="evenodd" d="M110.511 100.76C113.117 97.0436 117.952 87.6044 121.62 86.2763C123.982 85.4209 123.293 94.2695 123.322 95.9567C123.436 102.484 122.801 108.971 122.016 115.443C120.603 127.117 115.981 137.513 109.642 147.449C106.38 152.561 102.555 157.736 97.2554 160.926C94.8163 162.395 91.8813 162.641 89.4725 163.906C86.667 165.38 88.1949 164.189 86.9306 167.113C85.1748 171.173 84.6132 176.411 83.8008 180.743C80.0708 200.631 71.0406 305.761 72.6061 325.991C72.7451 327.784 70.2458 328.212 70.121 326.023C69.4578 314.417 75.1964 234.044 78.0916 207.759C80.9868 181.475 83.9166 158.254 86.8543 149.16C90.4181 138.127 96.8547 124.86 102.213 114.572C104.701 109.792 107.414 105.177 110.511 100.76Z" fill="#69A1AC"/>
<path opacity="0.5" fill-rule="evenodd" clip-rule="evenodd" d="M129.852 229.674C136.632 224.694 143.972 234.092 137.836 239.073C134.444 241.826 130.898 240.846 128.902 238.552C127.606 240.132 126.393 241.785 125.227 243.18C121.676 247.433 118.32 251.787 115.113 256.243C108.449 265.499 102.739 275.278 96.7686 284.879C90.8765 294.354 85.0315 303.878 79.691 313.593C75.1669 321.824 69.1367 331.507 67.5878 340.531C69.938 321.393 78.8557 302.998 89.4751 286.127C100.008 269.394 112.096 251.12 128.405 237.915C126.745 235.473 126.699 231.988 129.852 229.674Z" fill="#C1DEE2"/>
<path opacity="0.5" fill-rule="evenodd" clip-rule="evenodd" d="M1.18632 183C4.98069 183.742 11.1806 192.329 14.3083 195.6C18.0254 199.488 21.3977 203.632 24.5765 207.973C31.4197 217.318 37.5398 227.254 42.744 237.615C51.2281 254.506 58.025 271.845 62.9578 290.238C65.9774 301.497 67.9324 313.166 69.0911 324.754C69.3099 326.94 71.6004 343.789 68.2999 344.243C65.3314 344.652 66.2483 331.449 66.1051 329.653C64.4863 309.392 59.6368 289.678 52.8912 270.58C51.4219 266.42 50.0569 261.324 47.7072 257.581C46.015 254.884 47.695 255.824 44.7213 254.804C42.1679 253.927 39.2587 254.141 36.6439 253.068C30.9637 250.738 26.4154 246.214 22.4285 241.664C14.6807 232.821 8.54087 223.254 5.34045 211.923C3.56508 205.641 1.93361 199.322 1.02824 192.845C0.794036 191.171 -1.25761 182.522 1.18632 183Z" fill="#69A1AC"/>
<path opacity="0.5" fill-rule="evenodd" clip-rule="evenodd" d="M16.1599 40.1417C30.4525 64.9368 42.1976 92.1736 49.7815 119.76C54.3764 136.475 57.5898 153.626 60.7825 170.654C65.7259 197.019 70.4018 223.382 71.7318 250.216C73.07 277.205 75.716 308.333 66.8815 334.328C71.2944 307.937 67.093 279.845 66.3491 253.289C65.9936 240.612 64.9634 228.059 63.6121 215.456C62.3007 203.23 60.1583 191.063 58.1633 178.933C57.1915 173.026 56.1708 167.127 55.1317 161.232C54.8215 159.473 54.6904 154.254 53.5751 153.053C52.4525 151.843 46.7251 151.35 44.9269 150.463C41.306 148.675 37.9001 146.136 34.8858 143.454C29.1073 138.311 24.0803 131.592 20.1126 124.968C10.9323 109.642 7.26202 90.9385 7.44753 73.1888C7.48318 69.7426 13.0236 32.6326 10.7985 32.1216C10.9325 31.9647 11.0592 31.8026 11.1787 31.634C12.8633 34.4555 14.5164 37.2961 16.1599 40.1417Z" fill="#89C5CC"/>
<path opacity="0.5" fill-rule="evenodd" clip-rule="evenodd" d="M170.424 129.568C170.645 129.249 172.08 127.036 171.357 127.178C172.829 126.89 169.333 129.618 173 127.944C171.259 129.589 172.264 131.726 172.287 133.939C172.325 137.533 171.724 141.098 171.047 144.615C169.978 150.174 168.385 155.579 166.073 160.75C161.034 172.018 152.477 182.866 142.318 189.911C137.303 193.389 132.388 194.573 126.668 196.174C123.055 197.186 122.769 199.056 120.851 202.562C116.859 209.867 112.937 217.145 109.416 224.695C105.212 233.712 101.13 242.738 97.2805 251.913C84.3108 282.819 73.7546 314.838 68.2109 347.974C68.0751 328.447 72.5909 308.336 78.2872 289.723C82.4366 276.162 87.8383 263.09 93.5998 250.15C94.9959 247.016 97.1116 242.983 97.7045 239.522C98.1196 237.097 96.8504 234.765 96.2693 232.211C94.0038 222.263 94.1659 211.118 96.1554 201.118C98.3489 190.09 104.692 184.971 115.423 183.409C119.348 182.838 124.336 183.048 127.935 181.374C131.855 179.551 133.472 173.559 135.702 169.713C141.69 159.382 148.805 149.473 156.974 140.768C159.236 138.358 161.669 136.134 164.25 134.072C165.877 132.772 169.315 131.17 170.424 129.568Z" fill="#89C5CC"/>
<path opacity="0.5" fill-rule="evenodd" clip-rule="evenodd" d="M50.0965 326.885H88.1795C89.8918 326.885 91.2799 328.273 91.2799 329.986C91.2799 330.138 91.2688 330.289 91.2467 330.439L88.3032 350.404C87.4059 356.491 82.1848 361 76.0345 361H62.2415C56.0912 361 50.8701 356.491 49.9728 350.404L47.0293 330.439C46.7795 328.744 47.9502 327.168 49.6442 326.918C49.7939 326.896 49.9451 326.885 50.0965 326.885Z" fill="#C1DEE2"/>
</g>
</g>
<defs>
<clipPath id="clip0">
<rect width="173" height="361" fill="white"/>
</clipPath>
</defs>
</svg>
