<?xml version="1.0" encoding="UTF-8"?>
<svg width="35px" height="35px" viewBox="0 0 35 35" version="1.1" xmlns="http://www.w3.org/2000/svg" xmlns:xlink="http://www.w3.org/1999/xlink">
    <!-- Generator: Sketch 55.2 (78181) - https://sketchapp.com -->
    <title>account</title>
    <desc>Created with Sketch.</desc>
    <g id="mobile" stroke="none" stroke-width="1" fill="none" fill-rule="evenodd">
        <g id="Ulang-Tahun---no-data" transform="translate(-79.000000, -227.000000)" fill-rule="nonzero">
            <g id="account" transform="translate(79.000000, 227.000000)">
                <path d="M17.5,34.999733 C7.82821655,34.999733 0,27.1619034 0,17.5 C0,7.82794954 7.82688143,0 17.5,0 C27.1720505,0 34.999733,7.82688143 34.999733,17.5 C34.999733,27.1712494 27.1611023,34.999733 17.5,34.999733 Z" id="Path" fill="#66A9DF"></path>
                <path d="M17.5,0 L17.5,34.999733 C27.1611023,34.999733 34.999733,27.1712494 34.999733,17.5 C34.999733,7.82714844 27.1720505,0 17.5,0 Z" id="Path" fill="#4F84CF"></path>
                <path d="M17.5,21.6015625 C12.4080277,21.6015625 7.55290983,23.8275146 4.00463103,28.6404419 C11.0704803,37.1813583 24.1492843,37.1084595 31.1198044,28.4879684 C29.3985367,26.7757797 25.5215454,21.6015625 17.5,21.6015625 Z" id="Path" fill="#D6F3FE"></path>
                <path d="M31.1198044,28.4879684 C27.8289413,32.5572205 22.8913117,34.999733 17.5,34.999733 L17.5,21.6015625 C25.5218124,21.6015625 29.3985367,26.7763138 31.1198044,28.4879684 L31.1198044,28.4879684 Z" id="Path" fill="#BDECFC"></path>
                <path d="M17.5,18.5253906 C14.107399,18.5253906 11.3476562,15.7653809 11.3476562,12.3730469 L11.3476562,10.3222656 C11.3476562,6.92993164 14.107399,4.16992188 17.5,4.16992188 C20.892334,4.16992188 23.6523438,6.92993164 23.6523438,10.3222656 L23.6523438,12.3730469 C23.6523438,15.7653809 20.892334,18.5253906 17.5,18.5253906 Z" id="Path" fill="#D6F3FE"></path>
                <path d="M17.5,4.16992188 L17.5,18.5253906 C20.892601,18.5253906 23.6523438,15.7656479 23.6523438,12.3730469 L23.6523438,10.3222656 C23.6523438,6.92966463 20.892601,4.16992188 17.5,4.16992188 Z" id="Path" fill="#BDECFC"></path>
            </g>
        </g>
    </g>
</svg>