<svg width="40" height="40" viewBox="0 0 40 40" fill="none" xmlns="http://www.w3.org/2000/svg">
<path fill-rule="evenodd" clip-rule="evenodd" d="M32.0963 9.44001H28.1999V6.95766H31.381C32.1952 6.95766 32.8516 6.14354 32.8516 5.14354V1.81648C32.8516 0.811777 32.1952 0.00236511 31.381 0.00236511H22.6963C21.8822 0.00236511 21.2281 0.81413 21.2281 1.81648V5.14354C21.2281 6.14589 21.8822 6.95766 22.6963 6.95766H25.9387V9.44001H10.2422C9.37162 9.44001 8.66574 10.1459 8.66574 11.0118L4.73633 31.32V37.6471H37.6728V31.32L33.6752 11.0118C33.6739 10.5941 33.5069 10.1939 33.2109 9.89925C32.9149 9.60456 32.514 9.43939 32.0963 9.44001ZM14.1552 28.273H11.7293V25.8094H14.1552V28.273ZM11.7269 23.5671V21.1035H14.1528V23.5671H11.7269ZM18.861 28.3082H16.4352V25.8094H18.861V28.3082ZM18.861 23.5294H16.3975V21.1388H18.861V23.5294ZM23.5669 28.3035H21.1034V25.8071H23.5669V28.3035ZM21.1034 23.5294V21.1035H23.5669V23.5294H21.1034ZM23.5669 18.8235H11.7293V14.1177H23.5669V18.8235ZM30.5881 18.8235H25.8399V16.4235H30.5881V18.8235Z" fill="#030000"/>
</svg>
