<svg width="131" height="211" viewBox="0 0 131 211" fill="none" xmlns="http://www.w3.org/2000/svg">
<g clip-path="url(#clip0)">
<path fill-rule="evenodd" clip-rule="evenodd" d="M4.73611 7.53536C2.45381 6.39748 -0.588733 7.71716 0.680479 10.7252C2.04002 13.9464 7.06666 13.9862 9.90548 13.9224C9.62135 13.9074 8.70638 10.9535 8.39315 10.5072C7.46938 9.19043 6.13921 8.23616 4.73611 7.53536ZM31.0323 65.2881C31.6081 65.7831 31.0792 65.3345 31.0323 65.2881V65.2881ZM2.5375 22.1049C1.20192 23.1314 1.13822 24.9438 2.22922 26.1706C3.52834 27.631 5.90052 27.5779 7.67127 27.4356C8.47227 27.3711 12.7492 27.0268 11.7354 26.3231C11.8134 26.3527 11.9763 26.4246 12.1506 26.5222C12.2444 26.8668 12.3429 27.2102 12.4455 27.552C12.4204 27.5668 12.3989 27.5827 12.372 27.5974C12.4011 27.5846 12.4216 27.5707 12.4472 27.5577C13.4757 30.9744 14.9398 34.2276 16.8568 37.2712C16.1395 36.9872 15.3967 36.7722 14.6432 36.6766C12.412 36.3928 7.71812 38.1362 10.214 41.1232C12.6071 43.9867 16.3328 40.9146 19.0488 40.491C21.6832 44.1878 24.5878 47.7305 27.6318 51.155C27.4453 51.2137 27.2816 51.3361 27.1877 51.5266C25.9666 50.9037 24.6941 50.0126 23.5639 49.7713C21.9331 49.4237 18.5889 49.2129 17.3563 50.6806C15.8403 52.4854 17.4654 53.9513 19.2565 54.2974C21.8537 54.7994 25.2536 53.5235 27.7526 52.6615C28.0385 52.7123 28.3506 52.6282 28.537 52.3983C28.5922 52.3801 28.6474 52.3622 28.7012 52.3448C31.7838 55.7525 34.9843 59.0478 38.1653 62.2707C38.1314 62.269 38.0976 62.2669 38.0623 62.265C37.2325 61.7178 36.3424 61.2689 35.3777 61.0337C33.1459 60.4868 30.5201 60.4841 28.709 62.1077C26.9049 63.7244 26.2658 66.5518 28.1322 68.3671C31.868 72.0009 37.3722 63.7156 39.2566 63.3697C42.4892 66.6107 45.9074 69.6387 49.3792 72.6056C48.985 72.4849 48.5806 72.3962 48.1627 72.3563C44.7582 72.0286 36.7671 76.2252 40.9453 80.3541C44.5863 83.9521 48.8005 77.0269 51.7347 74.605C55.0063 77.3703 58.2958 80.1166 61.4929 82.9701C59.7492 82.5045 58.064 82.436 56.1947 83.0039C54.2605 83.5924 51.1395 85.0608 52.3622 87.6865C53.6058 90.3567 57.3537 89.1417 59.3058 88.2939C60.3705 87.8316 62.5051 86.271 64.3793 85.6137C69.481 90.4565 73.9 95.7905 77.2454 102.074C79.334 105.997 80.9189 110.189 82.0345 114.497C82.7466 117.247 84.1496 121.865 83.8687 125.444C85.2075 118.28 82.7868 109.676 80.179 103.273C77.7813 97.385 74.1928 92.216 69.9897 87.5633C71.0445 84.3736 79.9224 79.7731 74.6151 76.8097C71.7967 75.2428 68.9101 77.8427 68.2941 80.5963C67.8709 82.4885 68.5156 84.8661 69.1998 86.7026C67.8776 85.2843 66.5031 83.9116 65.0867 82.5845C63.1293 80.7503 61.125 78.9693 59.1015 77.2107C62.4359 74.0611 65.5916 65.0572 61.1208 63.5847C54.519 61.4163 57.6978 73.6981 58.1583 75.9999C58.2891 76.0077 58.391 75.9679 58.466 75.8828C58.4289 76.0936 58.3858 76.319 58.3336 76.5463C54.4607 73.1981 50.5304 69.9157 46.7296 66.4875C47.0721 66.233 47.6165 65.2606 48.0443 64.743C49.0099 63.5763 49.9337 62.3575 50.6089 60.9926C51.6754 58.8356 52.704 55.3952 49.8769 54.1265C46.8022 52.7442 45.3411 56.6354 45.3196 58.9567C45.305 60.5622 45.7399 62.0873 45.9664 63.6609C46.0372 64.1517 45.7646 66.3639 46.4295 65.4123C46.3982 65.7632 46.3937 66.0173 46.4092 66.1974C45.7268 65.5789 45.0497 64.9536 44.3769 64.3238C44.4081 64.2443 44.4312 64.1576 44.4364 64.0571C44.4725 63.365 43.7799 63.0985 43.2942 63.3012C42.4064 62.4529 41.5272 61.5939 40.6638 60.7179C38.8338 58.862 36.9772 56.9531 35.1335 55.0036C35.5335 54.6581 35.3744 54.1796 35.7485 53.8128C36.122 53.4468 36.8576 53.2444 37.2968 52.9044C38.4014 52.0489 39.3174 50.8025 39.9799 49.5758C41.0736 47.5489 42.487 43.2971 39.292 42.331C35.9987 41.3337 34.3271 45.4266 34.1154 47.9855C34.0742 48.4813 34.4433 52.9481 34.726 54.5701C31.3144 50.9469 27.959 47.1879 24.919 43.3633C25.8408 43.3548 28.454 41.456 28.9823 40.9379C30.2713 39.6742 32.3204 36.8818 30.0605 35.4042C28.0512 34.0936 25.5744 35.9919 24.7151 37.8368C24.5739 38.1405 24.0759 40.968 24.037 42.2367C22.7788 40.6149 21.5786 38.9835 20.4619 37.3469C19.7172 36.2588 19.0214 35.1419 18.3703 34.0013C18.527 33.912 18.6745 33.7563 18.8137 33.5626C22.165 32.9907 26.4376 27.7334 22.5012 25.9042C20.6271 25.0344 18.5946 26.8298 17.6765 28.2998C17.4884 28.6005 17.1838 30.1124 16.9358 31.305C15.0627 27.5264 13.6312 23.5261 12.5417 19.4246C12.8335 19.3518 13.0805 19.1277 13.1131 18.7423C14.7401 17.8097 16.025 17.0331 17.1608 15.2397C17.8664 14.1257 19.1372 11.5807 17.0639 10.9624C14.3657 10.158 12.6709 14.3015 12.4501 16.3424C12.4244 16.5793 12.4254 17.2683 12.4343 17.8997C12.3406 17.8869 12.2459 17.8884 12.153 17.9049C11.5334 15.3651 11.0387 12.7927 10.6453 10.216C12.118 9.73945 12.3727 1.96323 11.3921 0.855987C9.20044 -1.62326 7.6542 1.95813 7.77121 3.85097C7.90943 6.08281 8.91529 8.11304 10.113 9.91483C10.2415 10.1056 10.2049 10.0964 10.2382 9.83058C10.2566 9.96196 10.3003 10.0589 10.3651 10.1292C10.3033 11.304 10.1829 12.5068 10.2407 13.5463C10.4066 16.5234 10.7515 19.5178 11.2523 22.4566C11.3741 23.1713 11.5136 23.8802 11.67 24.583C10.4863 23.5691 8.89039 22.6682 8.26592 22.3865C6.64515 21.6561 4.14735 20.8675 2.5375 22.1049ZM84.0588 125.454C83.9836 126.492 83.7973 127.442 83.4493 128.226C83.7102 127.334 83.9104 126.406 84.0588 125.454Z" fill="#F2F2F2"/>
<g opacity="0.7">
<path opacity="0.7" fill-rule="evenodd" clip-rule="evenodd" d="M49.1317 77.8506C55.4703 77.5199 63.3094 81.24 63.9857 88.1675C64.4769 93.201 64.3248 98.22 65.085 103.246C65.6929 107.263 66.9786 111.119 68.7321 114.778C70.4182 118.296 73.9158 121.291 74.8255 125.05C75.4053 127.445 75.0807 130.814 74.2812 133.157C73.3088 136.005 73.8256 135.78 75.7631 138.17C79.5598 142.853 82.9785 147.656 85.396 153.25C88.8784 161.308 91.1614 170.726 89.869 179.545C89.7045 180.665 89.5096 184.684 87.9757 184.965C86.2626 185.279 87.0637 182.981 87.1551 182.238C87.738 177.5 88.2559 173.359 87.5528 168.547C84.8398 149.982 71.5933 137.75 62.968 121.993C62.4939 121.18 61.4929 119.245 60.7969 117.969C59.6981 115.954 58.5934 112.119 57.106 110.624C54.3045 107.809 56.88 113.469 57.4259 114.549C58.1161 115.916 58.8754 117.369 59.5826 118.566C62.8187 124.117 66.4308 130.177 69.773 135.899C55.3183 139.211 45.1383 121.738 41.2593 110.251C38.0633 100.787 34.2394 78.6603 49.1317 77.8506Z" fill="#D0DCDE"/>
<path opacity="0.7" fill-rule="evenodd" clip-rule="evenodd" d="M134.088 60.2756C123.492 61.1209 116.689 68.151 113.523 77.9839C111.816 83.2829 111.62 88.7265 110.672 94.1721C109.245 102.365 106.175 108.574 100.176 114.411C98.3177 116.219 96.9484 118.075 95.975 120.06C94.0426 122.043 92.3605 124.287 91.1247 127.03C89.5461 130.533 89.0994 134.736 90.9221 138.228C91.4121 139.167 92.6346 141.052 93.9017 141.908C89.158 152.066 86.5497 163.191 86.8437 174.302C87.0214 181.009 87.347 187.719 87.7269 194.417C87.8292 196.216 88.4118 199.186 89.2868 196.17C90.0877 193.411 89.0834 189.079 88.9905 186.197C88.5383 172.154 88.1518 159.387 93.9009 146.267C94.5037 144.892 95.1429 143.528 95.8087 142.175C95.8477 142.152 95.884 142.125 95.9207 142.098C95.9461 142.118 95.9691 142.139 95.9945 142.158C96.0371 142.082 96.0953 141.991 96.1632 141.89C96.3541 141.692 96.5209 141.441 96.6794 141.162C97.1893 140.452 97.7664 139.617 97.7695 139.16C97.7695 139.156 97.7676 139.151 97.7676 139.147C101.327 133.306 105.403 127.786 109.567 122.375C109.536 122.414 114.083 116.189 113.38 119.632C113.041 121.291 109.696 124.45 108.345 126.208C105.357 130.118 101.847 135.072 98.9308 139.862C98.5384 140.089 97.9839 141.202 97.5829 142.031C97.3615 142.451 97.155 142.875 96.9519 143.244C107.285 146.677 115.324 139.762 120.805 131.72C120.812 131.71 120.818 131.701 120.824 131.691C122.492 129.469 124.2 127.262 126.335 125.506C129.896 122.574 133.71 122.057 137.909 120.614C149.36 116.681 154.229 101.759 155.775 90.6879C157.52 78.1973 148.986 59.044 134.088 60.2756Z" fill="#E8D8D8"/>
<path opacity="0.7" fill-rule="evenodd" clip-rule="evenodd" d="M113.157 25.2969C102.282 36.6773 97.0274 52.4621 92.8671 67.3014C88.2205 83.8754 85.1514 100.705 85.0336 117.937C84.9564 129.258 84.65 140.651 85.3073 151.959C85.5404 155.975 85.9386 159.998 86.5717 163.971C86.6238 164.298 88.0403 173.168 89.3956 171.101C90.1664 169.926 87.9437 161.899 87.7757 160.562C86.8309 153.032 86.6114 145.447 86.6575 137.862C86.7332 125.375 86.367 112.951 87.6258 100.51C87.8135 98.6519 87.962 96.7009 88.4009 94.8836C88.8668 92.9517 88.2733 93.795 89.7911 93.0302C91.2658 92.2866 93.0882 92.3928 94.6183 91.46C100.688 87.7596 103.793 78.2546 106.209 72.018C108.973 64.8861 110.653 57.281 111.994 49.7757C112.98 44.2613 113.684 38.7806 114.083 33.1952C114.208 31.4349 114.216 29.5941 114.56 27.8633C114.652 27.3964 115.117 26.5704 115.101 26.157C115.065 25.2819 114.539 24.7672 114.496 24.0319C114.041 24.4439 113.594 24.8658 113.157 25.2969Z" fill="#E8D8D8"/>
<path opacity="0.7" fill-rule="evenodd" clip-rule="evenodd" d="M53.8569 176.923C53.8569 195.743 69.0313 211 87.7498 211C106.468 211 121.643 195.743 121.643 176.923" fill="#E8D8D8"/>
<path opacity="0.7" fill-rule="evenodd" clip-rule="evenodd" d="M90.4696 177.031H88.6787C88.803 174.772 88.9671 172.517 89.3427 170.283C90.7794 161.739 95.2715 149.19 105.124 147.803C105.487 147.751 106.824 147.743 108.444 147.838C109.211 147.407 110.071 147.146 110.977 147.086C119.365 146.464 128.733 153.268 132.779 160.349C136.041 166.058 135.492 173.555 133.477 179.62C132.128 183.68 129.183 189.47 124.273 189.526C118.13 189.597 117.833 181.962 117.715 177.499C117.557 171.566 116.811 166.397 112.161 162.353C111.077 161.411 109.893 160.582 108.798 159.653C107.084 158.198 105.189 156.71 104.969 154.304C104.664 150.984 106.527 150.387 109.372 151.004C109.858 151.109 114.743 153.313 114.02 151.571C113.799 151.038 112.992 150.617 111.974 150.301C109.34 150.013 106.198 149.679 105.294 149.878C95.5463 152.028 91.751 165.605 90.7431 174.23C90.6343 175.161 90.5463 176.096 90.4696 177.031Z" fill="#D0DCDE"/>
</g>
<g clip-path="url(#clip1)">
<path fill-rule="evenodd" clip-rule="evenodd" d="M4.73611 7.53536C2.45381 6.39748 -0.588733 7.71716 0.680479 10.7252C2.04002 13.9464 7.06666 13.9862 9.90548 13.9224C9.62135 13.9074 8.70638 10.9535 8.39315 10.5072C7.46938 9.19043 6.13921 8.23616 4.73611 7.53536ZM31.0323 65.2881C31.6081 65.7831 31.0792 65.3345 31.0323 65.2881V65.2881ZM2.5375 22.1049C1.20192 23.1314 1.13822 24.9438 2.22922 26.1706C3.52834 27.631 5.90052 27.5779 7.67127 27.4356C8.47227 27.3711 12.7492 27.0268 11.7354 26.3231C11.8134 26.3527 11.9763 26.4246 12.1506 26.5222C12.2444 26.8668 12.3429 27.2102 12.4455 27.552C12.4204 27.5668 12.3989 27.5827 12.372 27.5974C12.4011 27.5846 12.4216 27.5707 12.4472 27.5577C13.4757 30.9744 14.9398 34.2276 16.8568 37.2712C16.1395 36.9872 15.3967 36.7722 14.6432 36.6766C12.412 36.3928 7.71812 38.1362 10.214 41.1232C12.6071 43.9867 16.3328 40.9146 19.0488 40.491C21.6832 44.1878 24.5878 47.7305 27.6318 51.155C27.4453 51.2137 27.2816 51.3361 27.1877 51.5266C25.9666 50.9037 24.6941 50.0126 23.5639 49.7713C21.9331 49.4237 18.5889 49.2129 17.3563 50.6806C15.8403 52.4854 17.4654 53.9513 19.2565 54.2974C21.8537 54.7994 25.2536 53.5235 27.7526 52.6615C28.0385 52.7123 28.3506 52.6282 28.537 52.3983C28.5922 52.3801 28.6474 52.3622 28.7012 52.3448C31.7838 55.7525 34.9843 59.0478 38.1653 62.2707C38.1314 62.269 38.0976 62.2669 38.0623 62.265C37.2325 61.7178 36.3424 61.2689 35.3777 61.0337C33.1459 60.4868 30.5201 60.4841 28.709 62.1077C26.9049 63.7244 26.2658 66.5518 28.1322 68.3671C31.868 72.0009 37.3722 63.7156 39.2566 63.3697C42.4892 66.6107 45.9074 69.6387 49.3792 72.6056C48.985 72.4849 48.5806 72.3962 48.1627 72.3563C44.7582 72.0286 36.7671 76.2252 40.9453 80.3541C44.5863 83.9521 48.8005 77.0269 51.7347 74.605C55.0063 77.3703 58.2958 80.1166 61.4929 82.9701C59.7492 82.5045 58.064 82.436 56.1947 83.0039C54.2605 83.5924 51.1395 85.0608 52.3622 87.6865C53.6058 90.3567 57.3537 89.1417 59.3058 88.2939C60.3705 87.8316 62.5051 86.271 64.3793 85.6137C69.481 90.4565 73.9 95.7905 77.2454 102.074C79.334 105.997 80.9189 110.189 82.0345 114.497C82.7466 117.247 84.1496 121.865 83.8687 125.444C85.2075 118.28 82.7868 109.676 80.179 103.273C77.7813 97.385 74.1928 92.216 69.9897 87.5633C71.0445 84.3736 79.9224 79.7731 74.6151 76.8097C71.7967 75.2428 68.9101 77.8427 68.2941 80.5963C67.8709 82.4885 68.5156 84.8661 69.1998 86.7026C67.8776 85.2843 66.5031 83.9116 65.0867 82.5845C63.1293 80.7503 61.125 78.9693 59.1015 77.2107C62.4359 74.0611 65.5916 65.0572 61.1208 63.5847C54.519 61.4163 57.6978 73.6981 58.1583 75.9999C58.2891 76.0077 58.391 75.9679 58.466 75.8828C58.4289 76.0936 58.3858 76.319 58.3336 76.5463C54.4607 73.1981 50.5304 69.9157 46.7296 66.4875C47.0721 66.233 47.6165 65.2606 48.0443 64.743C49.0099 63.5763 49.9337 62.3575 50.6089 60.9926C51.6754 58.8356 52.704 55.3952 49.8769 54.1265C46.8022 52.7442 45.3411 56.6354 45.3196 58.9567C45.305 60.5622 45.7399 62.0873 45.9664 63.6609C46.0372 64.1517 45.7646 66.3639 46.4295 65.4123C46.3982 65.7632 46.3937 66.0173 46.4092 66.1974C45.7268 65.5789 45.0497 64.9536 44.3769 64.3238C44.4081 64.2443 44.4312 64.1576 44.4364 64.0571C44.4725 63.365 43.7799 63.0985 43.2942 63.3012C42.4064 62.4529 41.5272 61.5939 40.6638 60.7179C38.8338 58.862 36.9772 56.9531 35.1335 55.0036C35.5335 54.6581 35.3744 54.1796 35.7485 53.8128C36.122 53.4468 36.8576 53.2444 37.2968 52.9044C38.4014 52.0489 39.3174 50.8025 39.9799 49.5758C41.0736 47.5489 42.487 43.2971 39.292 42.331C35.9987 41.3337 34.3271 45.4266 34.1154 47.9855C34.0742 48.4813 34.4433 52.9481 34.726 54.5701C31.3144 50.9469 27.959 47.1879 24.919 43.3633C25.8408 43.3548 28.454 41.456 28.9823 40.9379C30.2713 39.6742 32.3204 36.8818 30.0605 35.4042C28.0512 34.0936 25.5744 35.9919 24.7151 37.8368C24.5739 38.1405 24.0759 40.968 24.037 42.2367C22.7788 40.6149 21.5786 38.9835 20.4619 37.3469C19.7172 36.2588 19.0214 35.1419 18.3703 34.0013C18.527 33.912 18.6745 33.7563 18.8137 33.5626C22.165 32.9907 26.4376 27.7334 22.5012 25.9042C20.6271 25.0344 18.5946 26.8298 17.6765 28.2998C17.4884 28.6005 17.1838 30.1124 16.9358 31.305C15.0627 27.5264 13.6312 23.5261 12.5417 19.4246C12.8335 19.3518 13.0805 19.1277 13.1131 18.7423C14.7401 17.8097 16.025 17.0331 17.1608 15.2397C17.8664 14.1257 19.1372 11.5807 17.0639 10.9624C14.3657 10.158 12.6709 14.3015 12.4501 16.3424C12.4244 16.5793 12.4254 17.2683 12.4343 17.8997C12.3406 17.8869 12.2459 17.8884 12.153 17.9049C11.5334 15.3651 11.0387 12.7927 10.6453 10.216C12.118 9.73945 12.3727 1.96323 11.3921 0.855987C9.20044 -1.62326 7.6542 1.95813 7.77121 3.85097C7.90943 6.08281 8.91529 8.11304 10.113 9.91483C10.2415 10.1056 10.2049 10.0964 10.2382 9.83058C10.2566 9.96196 10.3003 10.0589 10.3651 10.1292C10.3033 11.304 10.1829 12.5068 10.2407 13.5463C10.4066 16.5234 10.7515 19.5178 11.2523 22.4566C11.3741 23.1713 11.5136 23.8802 11.67 24.583C10.4863 23.5691 8.89039 22.6682 8.26592 22.3865C6.64515 21.6561 4.14735 20.8675 2.5375 22.1049ZM84.0588 125.454C83.9836 126.492 83.7973 127.442 83.4493 128.226C83.7102 127.334 83.9104 126.406 84.0588 125.454Z" fill="#F2F2F2"/>
<g opacity="0.7">
<path opacity="0.7" fill-rule="evenodd" clip-rule="evenodd" d="M49.1317 77.8506C55.4703 77.5199 63.3094 81.24 63.9857 88.1675C64.4769 93.201 64.3248 98.22 65.085 103.246C65.6929 107.263 66.9786 111.119 68.7321 114.778C70.4182 118.296 73.9158 121.291 74.8255 125.05C75.4053 127.445 75.0807 130.814 74.2812 133.157C73.3088 136.005 73.8256 135.78 75.7631 138.17C79.5598 142.853 82.9785 147.656 85.396 153.25C88.8784 161.308 91.1614 170.726 89.869 179.545C89.7045 180.665 89.5096 184.684 87.9757 184.965C86.2626 185.279 87.0637 182.981 87.1551 182.238C87.738 177.5 88.2559 173.359 87.5528 168.547C84.8398 149.982 71.5933 137.75 62.968 121.993C62.4939 121.18 61.4929 119.245 60.7969 117.969C59.6981 115.954 58.5934 112.119 57.106 110.624C54.3045 107.809 56.88 113.469 57.4259 114.549C58.1161 115.916 58.8754 117.369 59.5826 118.566C62.8187 124.117 66.4308 130.177 69.773 135.899C55.3183 139.211 45.1383 121.738 41.2593 110.251C38.0633 100.787 34.2394 78.6603 49.1317 77.8506Z" fill="#D0DCDE"/>
<path opacity="0.7" fill-rule="evenodd" clip-rule="evenodd" d="M134.088 60.2756C123.492 61.1209 116.689 68.151 113.523 77.9839C111.816 83.2829 111.62 88.7265 110.672 94.1721C109.245 102.365 106.175 108.574 100.176 114.411C98.3177 116.219 96.9484 118.075 95.975 120.06C94.0426 122.043 92.3605 124.287 91.1247 127.03C89.5461 130.533 89.0994 134.736 90.9221 138.228C91.4121 139.167 92.6346 141.052 93.9017 141.908C89.158 152.066 86.5497 163.191 86.8437 174.302C87.0214 181.009 87.347 187.719 87.7269 194.417C87.8292 196.216 88.4118 199.186 89.2868 196.17C90.0877 193.411 89.0834 189.079 88.9905 186.197C88.5383 172.154 88.1518 159.387 93.9009 146.267C94.5037 144.892 95.1429 143.528 95.8087 142.175C95.8477 142.152 95.884 142.125 95.9207 142.098C95.9461 142.118 95.9691 142.139 95.9945 142.158C96.0371 142.082 96.0953 141.991 96.1632 141.89C96.3541 141.692 96.5209 141.441 96.6794 141.162C97.1893 140.452 97.7664 139.617 97.7695 139.16C97.7695 139.156 97.7676 139.151 97.7676 139.147C101.327 133.306 105.403 127.786 109.567 122.375C109.536 122.414 114.083 116.189 113.38 119.632C113.041 121.291 109.696 124.45 108.345 126.208C105.357 130.118 101.847 135.072 98.9308 139.862C98.5384 140.089 97.9839 141.202 97.5829 142.031C97.3615 142.451 97.155 142.875 96.9519 143.244C107.285 146.677 115.324 139.762 120.805 131.72C120.812 131.71 120.818 131.701 120.824 131.691C122.492 129.469 124.2 127.262 126.335 125.506C129.896 122.574 133.71 122.057 137.909 120.614C149.36 116.681 154.229 101.759 155.775 90.6879C157.52 78.1973 148.986 59.044 134.088 60.2756Z" fill="#E8D8D8"/>
<path opacity="0.7" fill-rule="evenodd" clip-rule="evenodd" d="M113.157 25.2969C102.282 36.6773 97.0274 52.4621 92.8671 67.3014C88.2205 83.8754 85.1514 100.705 85.0336 117.937C84.9564 129.258 84.65 140.651 85.3073 151.959C85.5404 155.975 85.9386 159.998 86.5717 163.971C86.6238 164.298 88.0403 173.168 89.3956 171.101C90.1664 169.926 87.9437 161.899 87.7757 160.562C86.8309 153.032 86.6114 145.447 86.6575 137.862C86.7332 125.375 86.367 112.951 87.6258 100.51C87.8135 98.6519 87.962 96.7009 88.4009 94.8836C88.8668 92.9517 88.2733 93.795 89.7911 93.0302C91.2658 92.2866 93.0882 92.3928 94.6183 91.46C100.688 87.7596 103.793 78.2546 106.209 72.018C108.973 64.8861 110.653 57.281 111.994 49.7757C112.98 44.2613 113.684 38.7806 114.083 33.1952C114.208 31.4349 114.216 29.5941 114.56 27.8633C114.652 27.3964 115.117 26.5704 115.101 26.157C115.065 25.2819 114.539 24.7672 114.496 24.0319C114.041 24.4439 113.594 24.8658 113.157 25.2969Z" fill="#E8D8D8"/>
<path opacity="0.7" fill-rule="evenodd" clip-rule="evenodd" d="M53.8569 176.923C53.8569 195.743 69.0313 211 87.7498 211C106.468 211 121.643 195.743 121.643 176.923" fill="#E8D8D8"/>
<path opacity="0.7" fill-rule="evenodd" clip-rule="evenodd" d="M90.4696 177.031H88.6787C88.803 174.772 88.9671 172.517 89.3427 170.283C90.7794 161.739 95.2715 149.19 105.124 147.803C105.487 147.751 106.824 147.743 108.444 147.838C109.211 147.407 110.071 147.146 110.977 147.086C119.365 146.464 128.733 153.268 132.779 160.349C136.041 166.058 135.492 173.555 133.477 179.62C132.128 183.68 129.183 189.47 124.273 189.526C118.13 189.597 117.833 181.962 117.715 177.499C117.557 171.566 116.811 166.397 112.161 162.353C111.077 161.411 109.893 160.582 108.798 159.653C107.084 158.198 105.189 156.71 104.969 154.304C104.664 150.984 106.527 150.387 109.372 151.004C109.858 151.109 114.743 153.313 114.02 151.571C113.799 151.038 112.992 150.617 111.974 150.301C109.34 150.013 106.198 149.679 105.294 149.878C95.5463 152.028 91.751 165.605 90.7431 174.23C90.6343 175.161 90.5463 176.096 90.4696 177.031Z" fill="#D0DCDE"/>
</g>
</g>
</g>
<defs>
<clipPath id="clip0">
<rect width="156" height="211" fill="white"/>
</clipPath>
<clipPath id="clip1">
<rect width="156" height="211" fill="white"/>
</clipPath>
</defs>
</svg>
